<?xml version="1.0" encoding="UTF-8" standalone="no"?>
<!DOCTYPE svg PUBLIC "-//W3C//DTD SVG 1.1//EN"
 "http://www.w3.org/Graphics/SVG/1.1/DTD/svg11.dtd">
<!-- Generated by graphviz version 2.43.0 (0)
 -->
<!-- Title: %3 Pages: 1 -->
<svg width="539pt" height="729pt"
 viewBox="0.00 0.00 538.50 729.00" xmlns="http://www.w3.org/2000/svg" xmlns:xlink="http://www.w3.org/1999/xlink">
<g id="graph0" class="graph" transform="scale(1 1) rotate(0) translate(4 725)">
<title>%3</title>
<polygon fill="white" stroke="transparent" points="-4,4 -4,-725 534.5,-725 534.5,4 -4,4"/>
<!-- 94826418573072 -->
<g id="node1" class="node">
<title>94826418573072</title>
<polygon fill="#506266" stroke="black" points="343.5,-721 280.5,-721 280.5,-683 343.5,-683 343.5,-721"/>
<text text-anchor="middle" x="312" y="-705.8" font-family="Times,serif" font-size="14.00">APPLY</text>
<text text-anchor="middle" x="312" y="-690.8" font-family="Times,serif" font-size="14.00">Int</text>
</g>
<!-- 94826418572944 -->
<g id="node2" class="node">
<title>94826418572944</title>
<polygon fill="#506266" stroke="black" points="306,-639.5 232,-639.5 232,-601.5 306,-601.5 306,-639.5"/>
<text text-anchor="middle" x="269" y="-624.3" font-family="Times,serif" font-size="14.00">APPLY</text>
<text text-anchor="middle" x="269" y="-609.3" font-family="Times,serif" font-size="14.00">Int&#45;&gt;Int</text>
</g>
<!-- 94826418573072&#45;&gt;94826418572944 -->
<g id="edge19" class="edge">
<title>94826418573072&#45;&gt;94826418572944</title>
<path fill="none" stroke="black" d="M302.24,-682.96C296.78,-672.87 289.87,-660.08 283.76,-648.79"/>
<polygon fill="black" stroke="black" points="286.7,-646.87 278.87,-639.74 280.55,-650.2 286.7,-646.87"/>
</g>
<!-- 94826418572272 -->
<g id="node21" class="node">
<title>94826418572272</title>
<polygon fill="#bde038" stroke="black" points="385.5,-647 324.5,-647 324.5,-594 385.5,-594 385.5,-647"/>
<text text-anchor="middle" x="355" y="-631.8" font-family="Times,serif" font-size="14.00">ELEM</text>
<text text-anchor="middle" x="355" y="-616.8" font-family="Times,serif" font-size="14.00">12</text>
<text text-anchor="middle" x="355" y="-601.8" font-family="Times,serif" font-size="14.00">Int</text>
</g>
<!-- 94826418573072&#45;&gt;94826418572272 -->
<g id="edge20" class="edge">
<title>94826418573072&#45;&gt;94826418572272</title>
<path fill="none" stroke="black" d="M321.76,-682.96C326.07,-674.99 331.29,-665.34 336.3,-656.07"/>
<polygon fill="black" stroke="black" points="339.53,-657.46 341.21,-647 333.37,-654.13 339.53,-657.46"/>
</g>
<!-- 94826418572208 -->
<g id="node3" class="node">
<title>94826418572208</title>
<polygon fill="#818274" stroke="black" points="278,-558 142,-558 142,-490 278,-490 278,-558"/>
<text text-anchor="middle" x="210" y="-542.8" font-family="Times,serif" font-size="14.00">OPERATOR</text>
<text text-anchor="middle" x="210" y="-527.8" font-family="Times,serif" font-size="14.00">+</text>
<text text-anchor="middle" x="210" y="-512.8" font-family="Times,serif" font-size="14.00">0x563e7efe8bb0</text>
<text text-anchor="middle" x="210" y="-497.8" font-family="Times,serif" font-size="14.00">Int&#45;&gt;Int&#45;&gt;Int</text>
</g>
<!-- 94826418572944&#45;&gt;94826418572208 -->
<g id="edge1" class="edge">
<title>94826418572944&#45;&gt;94826418572208</title>
<path fill="none" stroke="black" d="M257.62,-601.28C251.48,-591.44 243.62,-578.86 236.07,-566.76"/>
<polygon fill="black" stroke="black" points="238.92,-564.71 230.66,-558.08 232.98,-568.42 238.92,-564.71"/>
</g>
<!-- 94826418572848 -->
<g id="node4" class="node">
<title>94826418572848</title>
<polygon fill="#506266" stroke="black" points="359.5,-543 296.5,-543 296.5,-505 359.5,-505 359.5,-543"/>
<text text-anchor="middle" x="328" y="-527.8" font-family="Times,serif" font-size="14.00">APPLY</text>
<text text-anchor="middle" x="328" y="-512.8" font-family="Times,serif" font-size="14.00">Int</text>
</g>
<!-- 94826418572944&#45;&gt;94826418572848 -->
<g id="edge18" class="edge">
<title>94826418572944&#45;&gt;94826418572848</title>
<path fill="none" stroke="black" d="M280.38,-601.28C289.11,-587.29 301.3,-567.76 311.17,-551.96"/>
<polygon fill="black" stroke="black" points="314.33,-553.5 316.66,-543.16 308.39,-549.79 314.33,-553.5"/>
</g>
<!-- 94826418572720 -->
<g id="node5" class="node">
<title>94826418572720</title>
<polygon fill="#506266" stroke="black" points="308,-454 234,-454 234,-416 308,-416 308,-454"/>
<text text-anchor="middle" x="271" y="-438.8" font-family="Times,serif" font-size="14.00">APPLY</text>
<text text-anchor="middle" x="271" y="-423.8" font-family="Times,serif" font-size="14.00">Int&#45;&gt;Int</text>
</g>
<!-- 94826418572848&#45;&gt;94826418572720 -->
<g id="edge12" class="edge">
<title>94826418572848&#45;&gt;94826418572720</title>
<path fill="none" stroke="black" d="M316.19,-504.97C308.16,-492.73 297.41,-476.32 288.41,-462.58"/>
<polygon fill="black" stroke="black" points="291.2,-460.45 282.8,-454 285.35,-464.29 291.2,-460.45"/>
</g>
<!-- 94826418572368 -->
<g id="node16" class="node">
<title>94826418572368</title>
<polygon fill="#506266" stroke="black" points="417.5,-454 354.5,-454 354.5,-416 417.5,-416 417.5,-454"/>
<text text-anchor="middle" x="386" y="-438.8" font-family="Times,serif" font-size="14.00">APPLY</text>
<text text-anchor="middle" x="386" y="-423.8" font-family="Times,serif" font-size="14.00">Int</text>
</g>
<!-- 94826418572848&#45;&gt;94826418572368 -->
<g id="edge17" class="edge">
<title>94826418572848&#45;&gt;94826418572368</title>
<path fill="none" stroke="black" d="M340.02,-504.97C348.18,-492.73 359.12,-476.32 368.28,-462.58"/>
<polygon fill="black" stroke="black" points="371.36,-464.27 374,-454 365.54,-460.38 371.36,-464.27"/>
</g>
<!-- 94826418571824 -->
<g id="node6" class="node">
<title>94826418571824</title>
<polygon fill="#818274" stroke="black" points="221.5,-380 86.5,-380 86.5,-312 221.5,-312 221.5,-380"/>
<text text-anchor="middle" x="154" y="-364.8" font-family="Times,serif" font-size="14.00">OPERATOR</text>
<text text-anchor="middle" x="154" y="-349.8" font-family="Times,serif" font-size="14.00">&#45;</text>
<text text-anchor="middle" x="154" y="-334.8" font-family="Times,serif" font-size="14.00">0x563e7efe8a30</text>
<text text-anchor="middle" x="154" y="-319.8" font-family="Times,serif" font-size="14.00">Int&#45;&gt;Int&#45;&gt;Int</text>
</g>
<!-- 94826418572720&#45;&gt;94826418571824 -->
<g id="edge2" class="edge">
<title>94826418572720&#45;&gt;94826418571824</title>
<path fill="none" stroke="black" d="M246.76,-415.97C235.12,-407.32 220.69,-396.59 206.7,-386.19"/>
<polygon fill="black" stroke="black" points="208.66,-383.28 198.55,-380.12 204.48,-388.9 208.66,-383.28"/>
</g>
<!-- 94826418572624 -->
<g id="node7" class="node">
<title>94826418572624</title>
<polygon fill="#506266" stroke="black" points="302.5,-365 239.5,-365 239.5,-327 302.5,-327 302.5,-365"/>
<text text-anchor="middle" x="271" y="-349.8" font-family="Times,serif" font-size="14.00">APPLY</text>
<text text-anchor="middle" x="271" y="-334.8" font-family="Times,serif" font-size="14.00">Int</text>
</g>
<!-- 94826418572720&#45;&gt;94826418572624 -->
<g id="edge11" class="edge">
<title>94826418572720&#45;&gt;94826418572624</title>
<path fill="none" stroke="black" d="M271,-415.97C271,-404.19 271,-388.56 271,-375.16"/>
<polygon fill="black" stroke="black" points="274.5,-375 271,-365 267.5,-375 274.5,-375"/>
</g>
<!-- 94826418570832 -->
<g id="node8" class="node">
<title>94826418570832</title>
<polygon fill="#506266" stroke="black" points="221,-261 147,-261 147,-223 221,-223 221,-261"/>
<text text-anchor="middle" x="184" y="-245.8" font-family="Times,serif" font-size="14.00">APPLY</text>
<text text-anchor="middle" x="184" y="-230.8" font-family="Times,serif" font-size="14.00">Int&#45;&gt;Int</text>
</g>
<!-- 94826418572624&#45;&gt;94826418570832 -->
<g id="edge5" class="edge">
<title>94826418572624&#45;&gt;94826418570832</title>
<path fill="none" stroke="black" d="M255.45,-326.76C241.71,-310.66 221.54,-287.01 206.13,-268.94"/>
<polygon fill="black" stroke="black" points="208.57,-266.41 199.42,-261.08 203.25,-270.96 208.57,-266.41"/>
</g>
<!-- 94826418572432 -->
<g id="node11" class="node">
<title>94826418572432</title>
<polygon fill="#506266" stroke="black" points="302.5,-261 239.5,-261 239.5,-223 302.5,-223 302.5,-261"/>
<text text-anchor="middle" x="271" y="-245.8" font-family="Times,serif" font-size="14.00">APPLY</text>
<text text-anchor="middle" x="271" y="-230.8" font-family="Times,serif" font-size="14.00">Int</text>
</g>
<!-- 94826418572624&#45;&gt;94826418572432 -->
<g id="edge10" class="edge">
<title>94826418572624&#45;&gt;94826418572432</title>
<path fill="none" stroke="black" d="M271,-326.76C271,-311.32 271,-288.91 271,-271.16"/>
<polygon fill="black" stroke="black" points="274.5,-271.08 271,-261.08 267.5,-271.08 274.5,-271.08"/>
</g>
<!-- 94826418570864 -->
<g id="node9" class="node">
<title>94826418570864</title>
<polygon fill="#818274" stroke="black" points="136,-172 0,-172 0,-104 136,-104 136,-172"/>
<text text-anchor="middle" x="68" y="-156.8" font-family="Times,serif" font-size="14.00">OPERATOR</text>
<text text-anchor="middle" x="68" y="-141.8" font-family="Times,serif" font-size="14.00">+</text>
<text text-anchor="middle" x="68" y="-126.8" font-family="Times,serif" font-size="14.00">0x563e7efe8670</text>
<text text-anchor="middle" x="68" y="-111.8" font-family="Times,serif" font-size="14.00">Int&#45;&gt;Int&#45;&gt;Int</text>
</g>
<!-- 94826418570832&#45;&gt;94826418570864 -->
<g id="edge3" class="edge">
<title>94826418570832&#45;&gt;94826418570864</title>
<path fill="none" stroke="black" d="M163.53,-223C149.65,-210.8 130.76,-194.18 113.43,-178.95"/>
<polygon fill="black" stroke="black" points="115.43,-176.04 105.61,-172.07 110.8,-181.3 115.43,-176.04"/>
</g>
<!-- 94826418570736 -->
<g id="node10" class="node">
<title>94826418570736</title>
<polygon fill="#bde038" stroke="black" points="215.5,-164.5 154.5,-164.5 154.5,-111.5 215.5,-111.5 215.5,-164.5"/>
<text text-anchor="middle" x="185" y="-149.3" font-family="Times,serif" font-size="14.00">ELEM</text>
<text text-anchor="middle" x="185" y="-134.3" font-family="Times,serif" font-size="14.00">a</text>
<text text-anchor="middle" x="185" y="-119.3" font-family="Times,serif" font-size="14.00">Int</text>
</g>
<!-- 94826418570832&#45;&gt;94826418570736 -->
<g id="edge4" class="edge">
<title>94826418570832&#45;&gt;94826418570736</title>
<path fill="none" stroke="black" d="M184.18,-222.76C184.31,-209.51 184.49,-191.13 184.65,-174.97"/>
<polygon fill="black" stroke="black" points="188.15,-174.77 184.75,-164.74 181.15,-174.71 188.15,-174.77"/>
</g>
<!-- 94826418571024 -->
<g id="node12" class="node">
<title>94826418571024</title>
<polygon fill="#506266" stroke="black" points="308,-157 234,-157 234,-119 308,-119 308,-157"/>
<text text-anchor="middle" x="271" y="-141.8" font-family="Times,serif" font-size="14.00">APPLY</text>
<text text-anchor="middle" x="271" y="-126.8" font-family="Times,serif" font-size="14.00">Int&#45;&gt;Int</text>
</g>
<!-- 94826418572432&#45;&gt;94826418571024 -->
<g id="edge8" class="edge">
<title>94826418572432&#45;&gt;94826418571024</title>
<path fill="none" stroke="black" d="M271,-222.76C271,-207.32 271,-184.91 271,-167.16"/>
<polygon fill="black" stroke="black" points="274.5,-167.08 271,-157.08 267.5,-167.08 274.5,-167.08"/>
</g>
<!-- 94826418571120 -->
<g id="node15" class="node">
<title>94826418571120</title>
<polygon fill="#bde038" stroke="black" points="387.5,-164.5 326.5,-164.5 326.5,-111.5 387.5,-111.5 387.5,-164.5"/>
<text text-anchor="middle" x="357" y="-149.3" font-family="Times,serif" font-size="14.00">ELEM</text>
<text text-anchor="middle" x="357" y="-134.3" font-family="Times,serif" font-size="14.00">c</text>
<text text-anchor="middle" x="357" y="-119.3" font-family="Times,serif" font-size="14.00">Int</text>
</g>
<!-- 94826418572432&#45;&gt;94826418571120 -->
<g id="edge9" class="edge">
<title>94826418572432&#45;&gt;94826418571120</title>
<path fill="none" stroke="black" d="M286.38,-222.76C298.08,-208.88 314.53,-189.37 328.61,-172.67"/>
<polygon fill="black" stroke="black" points="331.53,-174.64 335.3,-164.74 326.17,-170.13 331.53,-174.64"/>
</g>
<!-- 94826418571056 -->
<g id="node13" class="node">
<title>94826418571056</title>
<polygon fill="#818274" stroke="black" points="280,-68 144,-68 144,0 280,0 280,-68"/>
<text text-anchor="middle" x="212" y="-52.8" font-family="Times,serif" font-size="14.00">OPERATOR</text>
<text text-anchor="middle" x="212" y="-37.8" font-family="Times,serif" font-size="14.00">*</text>
<text text-anchor="middle" x="212" y="-22.8" font-family="Times,serif" font-size="14.00">0x563e7efe8730</text>
<text text-anchor="middle" x="212" y="-7.8" font-family="Times,serif" font-size="14.00">Int&#45;&gt;Int&#45;&gt;Int</text>
</g>
<!-- 94826418571024&#45;&gt;94826418571056 -->
<g id="edge6" class="edge">
<title>94826418571024&#45;&gt;94826418571056</title>
<path fill="none" stroke="black" d="M260.45,-118.76C253.75,-107.19 244.8,-91.7 236.41,-77.19"/>
<polygon fill="black" stroke="black" points="239.32,-75.24 231.28,-68.33 233.26,-78.74 239.32,-75.24"/>
</g>
<!-- 94826418570928 -->
<g id="node14" class="node">
<title>94826418570928</title>
<polygon fill="#bde038" stroke="black" points="359.5,-60.5 298.5,-60.5 298.5,-7.5 359.5,-7.5 359.5,-60.5"/>
<text text-anchor="middle" x="329" y="-45.3" font-family="Times,serif" font-size="14.00">ELEM</text>
<text text-anchor="middle" x="329" y="-30.3" font-family="Times,serif" font-size="14.00">b</text>
<text text-anchor="middle" x="329" y="-15.3" font-family="Times,serif" font-size="14.00">Int</text>
</g>
<!-- 94826418571024&#45;&gt;94826418570928 -->
<g id="edge7" class="edge">
<title>94826418571024&#45;&gt;94826418570928</title>
<path fill="none" stroke="black" d="M281.37,-118.76C289.12,-105.13 299.96,-86.08 309.33,-69.59"/>
<polygon fill="black" stroke="black" points="312.46,-71.16 314.36,-60.74 306.38,-67.7 312.46,-71.16"/>
</g>
<!-- 94826418571984 -->
<g id="node17" class="node">
<title>94826418571984</title>
<polygon fill="#506266" stroke="black" points="423,-365 349,-365 349,-327 423,-327 423,-365"/>
<text text-anchor="middle" x="386" y="-349.8" font-family="Times,serif" font-size="14.00">APPLY</text>
<text text-anchor="middle" x="386" y="-334.8" font-family="Times,serif" font-size="14.00">Int&#45;&gt;Int</text>
</g>
<!-- 94826418572368&#45;&gt;94826418571984 -->
<g id="edge15" class="edge">
<title>94826418572368&#45;&gt;94826418571984</title>
<path fill="none" stroke="black" d="M386,-415.97C386,-404.19 386,-388.56 386,-375.16"/>
<polygon fill="black" stroke="black" points="389.5,-375 386,-365 382.5,-375 389.5,-375"/>
</g>
<!-- 94826418572080 -->
<g id="node20" class="node">
<title>94826418572080</title>
<polygon fill="#bde038" stroke="black" points="502.5,-372.5 441.5,-372.5 441.5,-319.5 502.5,-319.5 502.5,-372.5"/>
<text text-anchor="middle" x="472" y="-357.3" font-family="Times,serif" font-size="14.00">ELEM</text>
<text text-anchor="middle" x="472" y="-342.3" font-family="Times,serif" font-size="14.00">a</text>
<text text-anchor="middle" x="472" y="-327.3" font-family="Times,serif" font-size="14.00">Int</text>
</g>
<!-- 94826418572368&#45;&gt;94826418572080 -->
<g id="edge16" class="edge">
<title>94826418572368&#45;&gt;94826418572080</title>
<path fill="none" stroke="black" d="M403.82,-415.97C414.09,-405.59 427.31,-392.21 439.38,-380"/>
<polygon fill="black" stroke="black" points="442.16,-382.16 446.7,-372.59 437.18,-377.24 442.16,-382.16"/>
</g>
<!-- 94826418572016 -->
<g id="node18" class="node">
<title>94826418572016</title>
<polygon fill="#818274" stroke="black" points="451.5,-276 320.5,-276 320.5,-208 451.5,-208 451.5,-276"/>
<text text-anchor="middle" x="386" y="-260.8" font-family="Times,serif" font-size="14.00">OPERATOR</text>
<text text-anchor="middle" x="386" y="-245.8" font-family="Times,serif" font-size="14.00">/</text>
<text text-anchor="middle" x="386" y="-230.8" font-family="Times,serif" font-size="14.00">0x563e7efe8af0</text>
<text text-anchor="middle" x="386" y="-215.8" font-family="Times,serif" font-size="14.00">Int&#45;&gt;Int&#45;&gt;Int</text>
</g>
<!-- 94826418571984&#45;&gt;94826418572016 -->
<g id="edge13" class="edge">
<title>94826418571984&#45;&gt;94826418572016</title>
<path fill="none" stroke="black" d="M386,-326.76C386,-315.51 386,-300.57 386,-286.43"/>
<polygon fill="black" stroke="black" points="389.5,-286.33 386,-276.33 382.5,-286.33 389.5,-286.33"/>
</g>
<!-- 94826418571888 -->
<g id="node19" class="node">
<title>94826418571888</title>
<polygon fill="#bde038" stroke="black" points="530.5,-268.5 469.5,-268.5 469.5,-215.5 530.5,-215.5 530.5,-268.5"/>
<text text-anchor="middle" x="500" y="-253.3" font-family="Times,serif" font-size="14.00">ELEM</text>
<text text-anchor="middle" x="500" y="-238.3" font-family="Times,serif" font-size="14.00">d</text>
<text text-anchor="middle" x="500" y="-223.3" font-family="Times,serif" font-size="14.00">Int</text>
</g>
<!-- 94826418571984&#45;&gt;94826418571888 -->
<g id="edge14" class="edge">
<title>94826418571984&#45;&gt;94826418571888</title>
<path fill="none" stroke="black" d="M406.12,-327C421.96,-312.82 444.47,-292.69 463.47,-275.69"/>
<polygon fill="black" stroke="black" points="465.98,-278.14 471.1,-268.86 461.31,-272.92 465.98,-278.14"/>
</g>
</g>
</svg>
