<?xml version="1.0" encoding="UTF-8" standalone="no"?>
<!DOCTYPE svg PUBLIC "-//W3C//DTD SVG 1.1//EN"
 "http://www.w3.org/Graphics/SVG/1.1/DTD/svg11.dtd">
<!-- Generated by graphviz version 2.43.0 (0)
 -->
<!-- Title: %3 Pages: 1 -->
<svg width="256pt" height="230pt"
 viewBox="0.00 0.00 256.00 230.00" xmlns="http://www.w3.org/2000/svg" xmlns:xlink="http://www.w3.org/1999/xlink">
<g id="graph0" class="graph" transform="scale(1 1) rotate(0) translate(4 226)">
<title>%3</title>
<polygon fill="white" stroke="transparent" points="-4,4 -4,-226 252,-226 252,4 -4,4"/>
<!-- 94144373545312 -->
<g id="node1" class="node">
<title>94144373545312</title>
<polygon fill="none" stroke="black" points="0,-129.5 0,-221.5 217,-221.5 217,-129.5 0,-129.5"/>
<text text-anchor="middle" x="41.5" y="-206.3" font-family="Times,serif" font-size="14.00">TypeTree</text>
<polyline fill="none" stroke="black" points="83,-198.5 83,-221.5 "/>
<text text-anchor="middle" x="150" y="-206.3" font-family="Times,serif" font-size="14.00">0x559fb1f15960</text>
<polyline fill="none" stroke="black" points="0,-198.5 217,-198.5 "/>
<text text-anchor="middle" x="52.5" y="-183.3" font-family="Times,serif" font-size="14.00">entity</text>
<polyline fill="none" stroke="black" points="105,-175.5 105,-198.5 "/>
<text text-anchor="middle" x="161" y="-183.3" font-family="Times,serif" font-size="14.00">ARRAY</text>
<polyline fill="none" stroke="black" points="0,-175.5 217,-175.5 "/>
<text text-anchor="middle" x="30.5" y="-160.3" font-family="Times,serif" font-size="14.00">type</text>
<polyline fill="none" stroke="black" points="61,-152.5 61,-175.5 "/>
<text text-anchor="middle" x="139" y="-160.3" font-family="Times,serif" font-size="14.00">94144373541200</text>
<polyline fill="none" stroke="black" points="0,-152.5 217,-152.5 "/>
<text text-anchor="middle" x="55.5" y="-137.3" font-family="Times,serif" font-size="14.00">child</text>
<polyline fill="none" stroke="black" points="111,-129.5 111,-152.5 "/>
<text text-anchor="middle" x="164" y="-137.3" font-family="Times,serif" font-size="14.00">(nil)</text>
</g>
<!-- 94144373541200 -->
<g id="node2" class="node">
<title>94144373541200</title>
<polygon fill="none" stroke="black" points="31,-0.5 31,-92.5 248,-92.5 248,-0.5 31,-0.5"/>
<text text-anchor="middle" x="72.5" y="-77.3" font-family="Times,serif" font-size="14.00">TypeTree</text>
<polyline fill="none" stroke="black" points="114,-69.5 114,-92.5 "/>
<text text-anchor="middle" x="181" y="-77.3" font-family="Times,serif" font-size="14.00">0x559fb1f14950</text>
<polyline fill="none" stroke="black" points="31,-69.5 248,-69.5 "/>
<text text-anchor="middle" x="81" y="-54.3" font-family="Times,serif" font-size="14.00">entity</text>
<polyline fill="none" stroke="black" points="131,-46.5 131,-69.5 "/>
<text text-anchor="middle" x="189.5" y="-54.3" font-family="Times,serif" font-size="14.00">SIMPLE</text>
<polyline fill="none" stroke="black" points="31,-46.5 248,-46.5 "/>
<text text-anchor="middle" x="86.5" y="-31.3" font-family="Times,serif" font-size="14.00">type</text>
<polyline fill="none" stroke="black" points="142,-23.5 142,-46.5 "/>
<text text-anchor="middle" x="195" y="-31.3" font-family="Times,serif" font-size="14.00">INT</text>
<polyline fill="none" stroke="black" points="31,-23.5 248,-23.5 "/>
<text text-anchor="middle" x="86.5" y="-8.3" font-family="Times,serif" font-size="14.00">child</text>
<polyline fill="none" stroke="black" points="142,-0.5 142,-23.5 "/>
<text text-anchor="middle" x="195" y="-8.3" font-family="Times,serif" font-size="14.00">(nil)</text>
</g>
<!-- 94144373545312&#45;&gt;94144373541200 -->
<g id="edge1" class="edge">
<title>94144373545312:01&#45;&gt;94144373541200</title>
<path fill="none" stroke="black" d="M218.5,-163.5C251.66,-163.5 227.24,-130.72 197.09,-100.01"/>
<polygon fill="black" stroke="black" points="199.3,-97.27 189.75,-92.68 194.35,-102.22 199.3,-97.27"/>
</g>
</g>
</svg>
