<?xml version="1.0" encoding="UTF-8" standalone="no"?>
<!DOCTYPE svg PUBLIC "-//W3C//DTD SVG 1.1//EN"
 "http://www.w3.org/Graphics/SVG/1.1/DTD/svg11.dtd">
<!-- Generated by graphviz version 2.43.0 (0)
 -->
<!-- Title: %3 Pages: 1 -->
<svg width="233pt" height="101pt"
 viewBox="0.00 0.00 233.00 101.00" xmlns="http://www.w3.org/2000/svg" xmlns:xlink="http://www.w3.org/1999/xlink">
<g id="graph0" class="graph" transform="scale(1 1) rotate(0) translate(4 97)">
<title>%3</title>
<polygon fill="white" stroke="transparent" points="-4,4 -4,-97 229,-97 229,4 -4,4"/>
<!-- 94605734909616 -->
<g id="node1" class="node">
<title>94605734909616</title>
<polygon fill="none" stroke="black" points="0,-0.5 0,-92.5 225,-92.5 225,-0.5 0,-0.5"/>
<text text-anchor="middle" x="41.5" y="-77.3" font-family="Times,serif" font-size="14.00">TypeTree</text>
<polyline fill="none" stroke="black" points="83,-69.5 83,-92.5 "/>
<text text-anchor="middle" x="154" y="-77.3" font-family="Times,serif" font-size="14.00">0x560b1d3916b0</text>
<polyline fill="none" stroke="black" points="0,-69.5 225,-69.5 "/>
<text text-anchor="middle" x="52" y="-54.3" font-family="Times,serif" font-size="14.00">entity</text>
<polyline fill="none" stroke="black" points="104,-46.5 104,-69.5 "/>
<text text-anchor="middle" x="164.5" y="-54.3" font-family="Times,serif" font-size="14.00">SIMPLE</text>
<polyline fill="none" stroke="black" points="0,-46.5 225,-46.5 "/>
<text text-anchor="middle" x="57.5" y="-31.3" font-family="Times,serif" font-size="14.00">type</text>
<polyline fill="none" stroke="black" points="115,-23.5 115,-46.5 "/>
<text text-anchor="middle" x="170" y="-31.3" font-family="Times,serif" font-size="14.00">INT</text>
<polyline fill="none" stroke="black" points="0,-23.5 225,-23.5 "/>
<text text-anchor="middle" x="57.5" y="-8.3" font-family="Times,serif" font-size="14.00">child</text>
<polyline fill="none" stroke="black" points="115,-0.5 115,-23.5 "/>
<text text-anchor="middle" x="170" y="-8.3" font-family="Times,serif" font-size="14.00">(nil)</text>
</g>
</g>
</svg>
