<?xml version="1.0" encoding="UTF-8" standalone="no"?>
<!DOCTYPE svg PUBLIC "-//W3C//DTD SVG 1.1//EN"
 "http://www.w3.org/Graphics/SVG/1.1/DTD/svg11.dtd">
<!-- Generated by graphviz version 2.43.0 (0)
 -->
<!-- Title: G Pages: 1 -->
<svg width="206pt" height="476pt"
 viewBox="0.00 0.00 206.00 476.00" xmlns="http://www.w3.org/2000/svg" xmlns:xlink="http://www.w3.org/1999/xlink">
<g id="graph0" class="graph" transform="scale(1 1) rotate(0) translate(4 472)">
<title>G</title>
<polygon fill="white" stroke="transparent" points="-4,4 -4,-472 202,-472 202,4 -4,4"/>
<!-- START -->
<g id="node1" class="node">
<title>START</title>
<ellipse fill="none" stroke="black" cx="99" cy="-450" rx="41.69" ry="18"/>
<text text-anchor="middle" x="99" y="-446.3" font-family="Times,serif" font-size="14.00">START</text>
</g>
<!-- def_d -->
<g id="node2" class="node">
<title>def_d</title>
<ellipse fill="none" stroke="black" cx="27" cy="-378" rx="27" ry="18"/>
<text text-anchor="middle" x="27" y="-374.3" font-family="Times,serif" font-size="14.00">d</text>
</g>
<!-- START&#45;&gt;def_d -->
<g id="edge1" class="edge">
<title>START&#45;&gt;def_d</title>
<path fill="none" stroke="black" d="M82.66,-433.12C72.78,-423.51 60.05,-411.13 49.25,-400.63"/>
<polygon fill="black" stroke="black" points="51.41,-397.85 41.8,-393.39 46.53,-402.87 51.41,-397.85"/>
</g>
<!-- import_i -->
<g id="node5" class="node">
<title>import_i</title>
<ellipse fill="none" stroke="black" cx="99" cy="-378" rx="27" ry="18"/>
<text text-anchor="middle" x="99" y="-374.3" font-family="Times,serif" font-size="14.00">i</text>
</g>
<!-- START&#45;&gt;import_i -->
<g id="edge4" class="edge">
<title>START&#45;&gt;import_i</title>
<path fill="none" stroke="black" d="M99,-431.7C99,-423.98 99,-414.71 99,-406.11"/>
<polygon fill="black" stroke="black" points="102.5,-406.1 99,-396.1 95.5,-406.1 102.5,-406.1"/>
</g>
<!-- main_m -->
<g id="node11" class="node">
<title>main_m</title>
<ellipse fill="none" stroke="black" cx="171" cy="-378" rx="27" ry="18"/>
<text text-anchor="middle" x="171" y="-374.3" font-family="Times,serif" font-size="14.00">m</text>
</g>
<!-- START&#45;&gt;main_m -->
<g id="edge10" class="edge">
<title>START&#45;&gt;main_m</title>
<path fill="none" stroke="black" d="M115.34,-433.12C125.22,-423.51 137.95,-411.13 148.75,-400.63"/>
<polygon fill="black" stroke="black" points="151.47,-402.87 156.2,-393.39 146.59,-397.85 151.47,-402.87"/>
</g>
<!-- def_e -->
<g id="node3" class="node">
<title>def_e</title>
<ellipse fill="none" stroke="black" cx="27" cy="-306" rx="27" ry="18"/>
<text text-anchor="middle" x="27" y="-302.3" font-family="Times,serif" font-size="14.00">e</text>
</g>
<!-- def_d&#45;&gt;def_e -->
<g id="edge2" class="edge">
<title>def_d&#45;&gt;def_e</title>
<path fill="none" stroke="black" d="M27,-359.7C27,-351.98 27,-342.71 27,-334.11"/>
<polygon fill="black" stroke="black" points="30.5,-334.1 27,-324.1 23.5,-334.1 30.5,-334.1"/>
</g>
<!-- def_f -->
<g id="node4" class="node">
<title>def_f</title>
<ellipse fill="none" stroke="black" cx="27" cy="-234" rx="27" ry="18"/>
<text text-anchor="middle" x="27" y="-230.3" font-family="Times,serif" font-size="14.00">f</text>
</g>
<!-- def_e&#45;&gt;def_f -->
<g id="edge3" class="edge">
<title>def_e&#45;&gt;def_f</title>
<path fill="none" stroke="black" d="M27,-287.7C27,-279.98 27,-270.71 27,-262.11"/>
<polygon fill="black" stroke="black" points="30.5,-262.1 27,-252.1 23.5,-262.1 30.5,-262.1"/>
</g>
<!-- import_m -->
<g id="node6" class="node">
<title>import_m</title>
<ellipse fill="none" stroke="black" cx="99" cy="-306" rx="27" ry="18"/>
<text text-anchor="middle" x="99" y="-302.3" font-family="Times,serif" font-size="14.00">m</text>
</g>
<!-- import_i&#45;&gt;import_m -->
<g id="edge5" class="edge">
<title>import_i&#45;&gt;import_m</title>
<path fill="none" stroke="black" d="M99,-359.7C99,-351.98 99,-342.71 99,-334.11"/>
<polygon fill="black" stroke="black" points="102.5,-334.1 99,-324.1 95.5,-334.1 102.5,-334.1"/>
</g>
<!-- import_p -->
<g id="node7" class="node">
<title>import_p</title>
<ellipse fill="none" stroke="black" cx="99" cy="-234" rx="27" ry="18"/>
<text text-anchor="middle" x="99" y="-230.3" font-family="Times,serif" font-size="14.00">p</text>
</g>
<!-- import_m&#45;&gt;import_p -->
<g id="edge6" class="edge">
<title>import_m&#45;&gt;import_p</title>
<path fill="none" stroke="black" d="M99,-287.7C99,-279.98 99,-270.71 99,-262.11"/>
<polygon fill="black" stroke="black" points="102.5,-262.1 99,-252.1 95.5,-262.1 102.5,-262.1"/>
</g>
<!-- import_o -->
<g id="node8" class="node">
<title>import_o</title>
<ellipse fill="none" stroke="black" cx="99" cy="-162" rx="27" ry="18"/>
<text text-anchor="middle" x="99" y="-158.3" font-family="Times,serif" font-size="14.00">o</text>
</g>
<!-- import_p&#45;&gt;import_o -->
<g id="edge7" class="edge">
<title>import_p&#45;&gt;import_o</title>
<path fill="none" stroke="black" d="M99,-215.7C99,-207.98 99,-198.71 99,-190.11"/>
<polygon fill="black" stroke="black" points="102.5,-190.1 99,-180.1 95.5,-190.1 102.5,-190.1"/>
</g>
<!-- import_r -->
<g id="node9" class="node">
<title>import_r</title>
<ellipse fill="none" stroke="black" cx="99" cy="-90" rx="27" ry="18"/>
<text text-anchor="middle" x="99" y="-86.3" font-family="Times,serif" font-size="14.00">r</text>
</g>
<!-- import_o&#45;&gt;import_r -->
<g id="edge8" class="edge">
<title>import_o&#45;&gt;import_r</title>
<path fill="none" stroke="black" d="M99,-143.7C99,-135.98 99,-126.71 99,-118.11"/>
<polygon fill="black" stroke="black" points="102.5,-118.1 99,-108.1 95.5,-118.1 102.5,-118.1"/>
</g>
<!-- import_t -->
<g id="node10" class="node">
<title>import_t</title>
<ellipse fill="none" stroke="black" cx="99" cy="-18" rx="27" ry="18"/>
<text text-anchor="middle" x="99" y="-14.3" font-family="Times,serif" font-size="14.00">t</text>
</g>
<!-- import_r&#45;&gt;import_t -->
<g id="edge9" class="edge">
<title>import_r&#45;&gt;import_t</title>
<path fill="none" stroke="black" d="M99,-71.7C99,-63.98 99,-54.71 99,-46.11"/>
<polygon fill="black" stroke="black" points="102.5,-46.1 99,-36.1 95.5,-46.1 102.5,-46.1"/>
</g>
<!-- main_a -->
<g id="node12" class="node">
<title>main_a</title>
<ellipse fill="none" stroke="black" cx="171" cy="-306" rx="27" ry="18"/>
<text text-anchor="middle" x="171" y="-302.3" font-family="Times,serif" font-size="14.00">a</text>
</g>
<!-- main_m&#45;&gt;main_a -->
<g id="edge11" class="edge">
<title>main_m&#45;&gt;main_a</title>
<path fill="none" stroke="black" d="M171,-359.7C171,-351.98 171,-342.71 171,-334.11"/>
<polygon fill="black" stroke="black" points="174.5,-334.1 171,-324.1 167.5,-334.1 174.5,-334.1"/>
</g>
<!-- main_i -->
<g id="node13" class="node">
<title>main_i</title>
<ellipse fill="none" stroke="black" cx="171" cy="-234" rx="27" ry="18"/>
<text text-anchor="middle" x="171" y="-230.3" font-family="Times,serif" font-size="14.00">i</text>
</g>
<!-- main_a&#45;&gt;main_i -->
<g id="edge12" class="edge">
<title>main_a&#45;&gt;main_i</title>
<path fill="none" stroke="black" d="M171,-287.7C171,-279.98 171,-270.71 171,-262.11"/>
<polygon fill="black" stroke="black" points="174.5,-262.1 171,-252.1 167.5,-262.1 174.5,-262.1"/>
</g>
<!-- main_n -->
<g id="node14" class="node">
<title>main_n</title>
<ellipse fill="none" stroke="black" cx="171" cy="-162" rx="27" ry="18"/>
<text text-anchor="middle" x="171" y="-158.3" font-family="Times,serif" font-size="14.00">n</text>
</g>
<!-- main_i&#45;&gt;main_n -->
<g id="edge13" class="edge">
<title>main_i&#45;&gt;main_n</title>
<path fill="none" stroke="black" d="M171,-215.7C171,-207.98 171,-198.71 171,-190.11"/>
<polygon fill="black" stroke="black" points="174.5,-190.1 171,-180.1 167.5,-190.1 174.5,-190.1"/>
</g>
</g>
</svg>
