<?xml version="1.0" encoding="UTF-8" standalone="no"?>
<!DOCTYPE svg PUBLIC "-//W3C//DTD SVG 1.1//EN"
 "http://www.w3.org/Graphics/SVG/1.1/DTD/svg11.dtd">
<!-- Generated by graphviz version 2.43.0 (0)
 -->
<!-- Title: %3 Pages: 1 -->
<svg width="243pt" height="239pt"
 viewBox="0.00 0.00 243.00 239.00" xmlns="http://www.w3.org/2000/svg" xmlns:xlink="http://www.w3.org/1999/xlink">
<g id="graph0" class="graph" transform="scale(1 1) rotate(0) translate(4 235)">
<title>%3</title>
<polygon fill="white" stroke="transparent" points="-4,4 -4,-235 239,-235 239,4 -4,4"/>
<!-- 94029360242592 -->
<g id="node1" class="node">
<title>94029360242592</title>
<polygon fill="#506266" stroke="black" points="198.5,-231 135.5,-231 135.5,-193 198.5,-193 198.5,-231"/>
<text text-anchor="middle" x="167" y="-215.8" font-family="Times,serif" font-size="14.00">APPLY</text>
<text text-anchor="middle" x="167" y="-200.8" font-family="Times,serif" font-size="14.00">Int</text>
</g>
<!-- 94029360242336 -->
<g id="node2" class="node">
<title>94029360242336</title>
<polygon fill="#506266" stroke="black" points="163,-149.5 89,-149.5 89,-111.5 163,-111.5 163,-149.5"/>
<text text-anchor="middle" x="126" y="-134.3" font-family="Times,serif" font-size="14.00">APPLY</text>
<text text-anchor="middle" x="126" y="-119.3" font-family="Times,serif" font-size="14.00">Int&#45;&gt;Int</text>
</g>
<!-- 94029360242592&#45;&gt;94029360242336 -->
<g id="edge3" class="edge">
<title>94029360242592&#45;&gt;94029360242336</title>
<path fill="none" stroke="black" d="M157.7,-192.96C152.49,-182.87 145.9,-170.08 140.07,-158.79"/>
<polygon fill="black" stroke="black" points="143.1,-157.03 135.41,-149.74 136.88,-160.24 143.1,-157.03"/>
</g>
<!-- 94029360242432 -->
<g id="node5" class="node">
<title>94029360242432</title>
<polygon fill="#c26d97" stroke="black" points="235,-157 181,-157 181,-104 235,-104 235,-157"/>
<text text-anchor="middle" x="208" y="-141.8" font-family="Times,serif" font-size="14.00">VAR</text>
<text text-anchor="middle" x="208" y="-126.8" font-family="Times,serif" font-size="14.00">a</text>
<text text-anchor="middle" x="208" y="-111.8" font-family="Times,serif" font-size="14.00">Int</text>
</g>
<!-- 94029360242592&#45;&gt;94029360242432 -->
<g id="edge4" class="edge">
<title>94029360242592&#45;&gt;94029360242432</title>
<path fill="none" stroke="black" d="M176.3,-192.96C180.41,-184.99 185.39,-175.34 190.17,-166.07"/>
<polygon fill="black" stroke="black" points="193.37,-167.49 194.85,-157 187.15,-164.29 193.37,-167.49"/>
</g>
<!-- 94029360242368 -->
<g id="node3" class="node">
<title>94029360242368</title>
<polygon fill="#818274" stroke="black" points="138,-68 0,-68 0,0 138,0 138,-68"/>
<text text-anchor="middle" x="69" y="-52.8" font-family="Times,serif" font-size="14.00">OPERATOR</text>
<text text-anchor="middle" x="69" y="-37.8" font-family="Times,serif" font-size="14.00">*</text>
<text text-anchor="middle" x="69" y="-22.8" font-family="Times,serif" font-size="14.00">0x5584ea9d9ec0</text>
<text text-anchor="middle" x="69" y="-7.8" font-family="Times,serif" font-size="14.00">Int&#45;&gt;Int&#45;&gt;Int</text>
</g>
<!-- 94029360242336&#45;&gt;94029360242368 -->
<g id="edge1" class="edge">
<title>94029360242336&#45;&gt;94029360242368</title>
<path fill="none" stroke="black" d="M115.01,-111.28C109.07,-101.44 101.48,-88.86 94.19,-76.76"/>
<polygon fill="black" stroke="black" points="97.12,-74.84 88.96,-68.08 91.12,-78.46 97.12,-74.84"/>
</g>
<!-- 94029360242240 -->
<g id="node4" class="node">
<title>94029360242240</title>
<polygon fill="#c26d97" stroke="black" points="210,-60.5 156,-60.5 156,-7.5 210,-7.5 210,-60.5"/>
<text text-anchor="middle" x="183" y="-45.3" font-family="Times,serif" font-size="14.00">VAR</text>
<text text-anchor="middle" x="183" y="-30.3" font-family="Times,serif" font-size="14.00">a</text>
<text text-anchor="middle" x="183" y="-15.3" font-family="Times,serif" font-size="14.00">Int</text>
</g>
<!-- 94029360242336&#45;&gt;94029360242240 -->
<g id="edge2" class="edge">
<title>94029360242336&#45;&gt;94029360242240</title>
<path fill="none" stroke="black" d="M136.99,-111.28C144.17,-99.38 153.77,-83.46 162.34,-69.25"/>
<polygon fill="black" stroke="black" points="165.35,-71.04 167.52,-60.67 159.36,-67.42 165.35,-71.04"/>
</g>
</g>
</svg>
