<?xml version="1.0" encoding="UTF-8" standalone="no"?>
<!DOCTYPE svg PUBLIC "-//W3C//DTD SVG 1.1//EN"
 "http://www.w3.org/Graphics/SVG/1.1/DTD/svg11.dtd">
<!-- Generated by graphviz version 2.43.0 (0)
 -->
<!-- Title: %3 Pages: 1 -->
<svg width="304pt" height="729pt"
 viewBox="0.00 0.00 304.00 729.00" xmlns="http://www.w3.org/2000/svg" xmlns:xlink="http://www.w3.org/1999/xlink">
<g id="graph0" class="graph" transform="scale(1 1) rotate(0) translate(4 725)">
<title>%3</title>
<polygon fill="white" stroke="transparent" points="-4,4 -4,-725 300,-725 300,4 -4,4"/>
<!-- 94176617076864 -->
<g id="node1" class="node">
<title>94176617076864</title>
<polygon fill="#506266" stroke="black" points="160,-721 97,-721 97,-683 160,-683 160,-721"/>
<text text-anchor="middle" x="128.5" y="-705.8" font-family="Times,serif" font-size="14.00">APPLY</text>
<text text-anchor="middle" x="128.5" y="-690.8" font-family="Times,serif" font-size="14.00">Int</text>
</g>
<!-- 94176617075504 -->
<g id="node2" class="node">
<title>94176617075504</title>
<polygon fill="#a3ab78" stroke="black" points="139,-647 0,-647 0,-579 139,-579 139,-647"/>
<text text-anchor="middle" x="69.5" y="-631.8" font-family="Times,serif" font-size="14.00">FUNCTION</text>
<text text-anchor="middle" x="69.5" y="-616.8" font-family="Times,serif" font-size="14.00">print_int</text>
<text text-anchor="middle" x="69.5" y="-601.8" font-family="Times,serif" font-size="14.00">0x55a733ce9330</text>
<text text-anchor="middle" x="69.5" y="-586.8" font-family="Times,serif" font-size="14.00">Int&#45;&gt;Int</text>
</g>
<!-- 94176617076864&#45;&gt;94176617075504 -->
<g id="edge1" class="edge">
<title>94176617076864&#45;&gt;94176617075504</title>
<path fill="none" stroke="black" d="M116.28,-682.97C110.85,-674.97 104.21,-665.18 97.66,-655.53"/>
<polygon fill="black" stroke="black" points="100.47,-653.44 91.96,-647.12 94.68,-657.36 100.47,-653.44"/>
</g>
<!-- 94176617076704 -->
<g id="node3" class="node">
<title>94176617076704</title>
<polygon fill="#506266" stroke="black" points="220,-632 157,-632 157,-594 220,-594 220,-632"/>
<text text-anchor="middle" x="188.5" y="-616.8" font-family="Times,serif" font-size="14.00">APPLY</text>
<text text-anchor="middle" x="188.5" y="-601.8" font-family="Times,serif" font-size="14.00">Int</text>
</g>
<!-- 94176617076864&#45;&gt;94176617076704 -->
<g id="edge14" class="edge">
<title>94176617076864&#45;&gt;94176617076704</title>
<path fill="none" stroke="black" d="M140.93,-682.97C149.38,-670.73 160.7,-654.32 170.17,-640.58"/>
<polygon fill="black" stroke="black" points="173.29,-642.22 176.08,-632 167.53,-638.25 173.29,-642.22"/>
</g>
<!-- 94176617076576 -->
<g id="node4" class="node">
<title>94176617076576</title>
<polygon fill="#506266" stroke="black" points="182.5,-535.5 108.5,-535.5 108.5,-497.5 182.5,-497.5 182.5,-535.5"/>
<text text-anchor="middle" x="145.5" y="-520.3" font-family="Times,serif" font-size="14.00">APPLY</text>
<text text-anchor="middle" x="145.5" y="-505.3" font-family="Times,serif" font-size="14.00">Int&#45;&gt;Int</text>
</g>
<!-- 94176617076704&#45;&gt;94176617076576 -->
<g id="edge12" class="edge">
<title>94176617076704&#45;&gt;94176617076576</title>
<path fill="none" stroke="black" d="M180.21,-593.78C173.9,-579.92 165.12,-560.62 157.97,-544.91"/>
<polygon fill="black" stroke="black" points="161.09,-543.32 153.77,-535.66 154.72,-546.22 161.09,-543.32"/>
</g>
<!-- 94176617076448 -->
<g id="node15" class="node">
<title>94176617076448</title>
<polygon fill="#bde038" stroke="black" points="262,-543 201,-543 201,-490 262,-490 262,-543"/>
<text text-anchor="middle" x="231.5" y="-527.8" font-family="Times,serif" font-size="14.00">ELEM</text>
<text text-anchor="middle" x="231.5" y="-512.8" font-family="Times,serif" font-size="14.00">5</text>
<text text-anchor="middle" x="231.5" y="-497.8" font-family="Times,serif" font-size="14.00">Int</text>
</g>
<!-- 94176617076704&#45;&gt;94176617076448 -->
<g id="edge13" class="edge">
<title>94176617076704&#45;&gt;94176617076448</title>
<path fill="none" stroke="black" d="M196.79,-593.78C202.1,-582.1 209.18,-566.56 215.55,-552.55"/>
<polygon fill="black" stroke="black" points="218.87,-553.72 219.82,-543.17 212.49,-550.82 218.87,-553.72"/>
</g>
<!-- 94176617076544 -->
<g id="node5" class="node">
<title>94176617076544</title>
<polygon fill="#818274" stroke="black" points="156,-454 17,-454 17,-386 156,-386 156,-454"/>
<text text-anchor="middle" x="86.5" y="-438.8" font-family="Times,serif" font-size="14.00">OPERATOR</text>
<text text-anchor="middle" x="86.5" y="-423.8" font-family="Times,serif" font-size="14.00">+</text>
<text text-anchor="middle" x="86.5" y="-408.8" font-family="Times,serif" font-size="14.00">0x55a733ce9740</text>
<text text-anchor="middle" x="86.5" y="-393.8" font-family="Times,serif" font-size="14.00">Int&#45;&gt;Int&#45;&gt;Int</text>
</g>
<!-- 94176617076576&#45;&gt;94176617076544 -->
<g id="edge2" class="edge">
<title>94176617076576&#45;&gt;94176617076544</title>
<path fill="none" stroke="black" d="M134.12,-497.28C127.98,-487.44 120.12,-474.86 112.57,-462.76"/>
<polygon fill="black" stroke="black" points="115.42,-460.71 107.16,-454.08 109.48,-464.42 115.42,-460.71"/>
</g>
<!-- 94176617076288 -->
<g id="node6" class="node">
<title>94176617076288</title>
<polygon fill="#506266" stroke="black" points="237,-439 174,-439 174,-401 237,-401 237,-439"/>
<text text-anchor="middle" x="205.5" y="-423.8" font-family="Times,serif" font-size="14.00">APPLY</text>
<text text-anchor="middle" x="205.5" y="-408.8" font-family="Times,serif" font-size="14.00">Int</text>
</g>
<!-- 94176617076576&#45;&gt;94176617076288 -->
<g id="edge11" class="edge">
<title>94176617076576&#45;&gt;94176617076288</title>
<path fill="none" stroke="black" d="M157.07,-497.28C165.95,-483.29 178.35,-463.76 188.38,-447.96"/>
<polygon fill="black" stroke="black" points="191.56,-449.48 193.97,-439.16 185.65,-445.73 191.56,-449.48"/>
</g>
<!-- 94176617076160 -->
<g id="node7" class="node">
<title>94176617076160</title>
<polygon fill="#506266" stroke="black" points="199.5,-342.5 125.5,-342.5 125.5,-304.5 199.5,-304.5 199.5,-342.5"/>
<text text-anchor="middle" x="162.5" y="-327.3" font-family="Times,serif" font-size="14.00">APPLY</text>
<text text-anchor="middle" x="162.5" y="-312.3" font-family="Times,serif" font-size="14.00">Int&#45;&gt;Int</text>
</g>
<!-- 94176617076288&#45;&gt;94176617076160 -->
<g id="edge9" class="edge">
<title>94176617076288&#45;&gt;94176617076160</title>
<path fill="none" stroke="black" d="M197.21,-400.78C190.9,-386.92 182.12,-367.62 174.97,-351.91"/>
<polygon fill="black" stroke="black" points="178.09,-350.32 170.77,-342.66 171.72,-353.22 178.09,-350.32"/>
</g>
<!-- 94176617076032 -->
<g id="node14" class="node">
<title>94176617076032</title>
<polygon fill="#bde038" stroke="black" points="279,-350 218,-350 218,-297 279,-297 279,-350"/>
<text text-anchor="middle" x="248.5" y="-334.8" font-family="Times,serif" font-size="14.00">ELEM</text>
<text text-anchor="middle" x="248.5" y="-319.8" font-family="Times,serif" font-size="14.00">4</text>
<text text-anchor="middle" x="248.5" y="-304.8" font-family="Times,serif" font-size="14.00">Int</text>
</g>
<!-- 94176617076288&#45;&gt;94176617076032 -->
<g id="edge10" class="edge">
<title>94176617076288&#45;&gt;94176617076032</title>
<path fill="none" stroke="black" d="M213.79,-400.78C219.1,-389.1 226.18,-373.56 232.55,-359.55"/>
<polygon fill="black" stroke="black" points="235.87,-360.72 236.82,-350.17 229.49,-357.82 235.87,-360.72"/>
</g>
<!-- 94176617076128 -->
<g id="node8" class="node">
<title>94176617076128</title>
<polygon fill="#818274" stroke="black" points="172.5,-261 34.5,-261 34.5,-193 172.5,-193 172.5,-261"/>
<text text-anchor="middle" x="103.5" y="-245.8" font-family="Times,serif" font-size="14.00">OPERATOR</text>
<text text-anchor="middle" x="103.5" y="-230.8" font-family="Times,serif" font-size="14.00">/</text>
<text text-anchor="middle" x="103.5" y="-215.8" font-family="Times,serif" font-size="14.00">0x55a733ce95a0</text>
<text text-anchor="middle" x="103.5" y="-200.8" font-family="Times,serif" font-size="14.00">Int&#45;&gt;Int&#45;&gt;Int</text>
</g>
<!-- 94176617076160&#45;&gt;94176617076128 -->
<g id="edge3" class="edge">
<title>94176617076160&#45;&gt;94176617076128</title>
<path fill="none" stroke="black" d="M151.12,-304.28C144.98,-294.44 137.12,-281.86 129.57,-269.76"/>
<polygon fill="black" stroke="black" points="132.42,-267.71 124.16,-261.08 126.48,-271.42 132.42,-267.71"/>
</g>
<!-- 94176617075872 -->
<g id="node9" class="node">
<title>94176617075872</title>
<polygon fill="#506266" stroke="black" points="254,-246 191,-246 191,-208 254,-208 254,-246"/>
<text text-anchor="middle" x="222.5" y="-230.8" font-family="Times,serif" font-size="14.00">APPLY</text>
<text text-anchor="middle" x="222.5" y="-215.8" font-family="Times,serif" font-size="14.00">Int</text>
</g>
<!-- 94176617076160&#45;&gt;94176617075872 -->
<g id="edge8" class="edge">
<title>94176617076160&#45;&gt;94176617075872</title>
<path fill="none" stroke="black" d="M174.07,-304.28C182.95,-290.29 195.35,-270.76 205.38,-254.96"/>
<polygon fill="black" stroke="black" points="208.56,-256.48 210.97,-246.16 202.65,-252.73 208.56,-256.48"/>
</g>
<!-- 94176617075280 -->
<g id="node10" class="node">
<title>94176617075280</title>
<polygon fill="#506266" stroke="black" points="216.5,-149.5 142.5,-149.5 142.5,-111.5 216.5,-111.5 216.5,-149.5"/>
<text text-anchor="middle" x="179.5" y="-134.3" font-family="Times,serif" font-size="14.00">APPLY</text>
<text text-anchor="middle" x="179.5" y="-119.3" font-family="Times,serif" font-size="14.00">Int&#45;&gt;Int</text>
</g>
<!-- 94176617075872&#45;&gt;94176617075280 -->
<g id="edge6" class="edge">
<title>94176617075872&#45;&gt;94176617075280</title>
<path fill="none" stroke="black" d="M214.21,-207.78C207.9,-193.92 199.12,-174.62 191.97,-158.91"/>
<polygon fill="black" stroke="black" points="195.09,-157.32 187.77,-149.66 188.72,-160.22 195.09,-157.32"/>
</g>
<!-- 94176617075152 -->
<g id="node13" class="node">
<title>94176617075152</title>
<polygon fill="#bde038" stroke="black" points="296,-157 235,-157 235,-104 296,-104 296,-157"/>
<text text-anchor="middle" x="265.5" y="-141.8" font-family="Times,serif" font-size="14.00">ELEM</text>
<text text-anchor="middle" x="265.5" y="-126.8" font-family="Times,serif" font-size="14.00">6</text>
<text text-anchor="middle" x="265.5" y="-111.8" font-family="Times,serif" font-size="14.00">Int</text>
</g>
<!-- 94176617075872&#45;&gt;94176617075152 -->
<g id="edge7" class="edge">
<title>94176617075872&#45;&gt;94176617075152</title>
<path fill="none" stroke="black" d="M230.79,-207.78C236.1,-196.1 243.18,-180.56 249.55,-166.55"/>
<polygon fill="black" stroke="black" points="252.87,-167.72 253.82,-157.17 246.49,-164.82 252.87,-167.72"/>
</g>
<!-- 94176617079872 -->
<g id="node11" class="node">
<title>94176617079872</title>
<polygon fill="#a3ab78" stroke="black" points="189.5,-68 51.5,-68 51.5,0 189.5,0 189.5,-68"/>
<text text-anchor="middle" x="120.5" y="-52.8" font-family="Times,serif" font-size="14.00">FUNCTION</text>
<text text-anchor="middle" x="120.5" y="-37.8" font-family="Times,serif" font-size="14.00">pow</text>
<text text-anchor="middle" x="120.5" y="-22.8" font-family="Times,serif" font-size="14.00">0x55a733cea440</text>
<text text-anchor="middle" x="120.5" y="-7.8" font-family="Times,serif" font-size="14.00">Int&#45;&gt;Int&#45;&gt;Int</text>
</g>
<!-- 94176617075280&#45;&gt;94176617079872 -->
<g id="edge4" class="edge">
<title>94176617075280&#45;&gt;94176617079872</title>
<path fill="none" stroke="black" d="M168.12,-111.28C161.98,-101.44 154.12,-88.86 146.57,-76.76"/>
<polygon fill="black" stroke="black" points="149.42,-74.71 141.16,-68.08 143.48,-78.42 149.42,-74.71"/>
</g>
<!-- 94176617079904 -->
<g id="node12" class="node">
<title>94176617079904</title>
<polygon fill="#bde038" stroke="black" points="269,-60.5 208,-60.5 208,-7.5 269,-7.5 269,-60.5"/>
<text text-anchor="middle" x="238.5" y="-45.3" font-family="Times,serif" font-size="14.00">ELEM</text>
<text text-anchor="middle" x="238.5" y="-30.3" font-family="Times,serif" font-size="14.00">2</text>
<text text-anchor="middle" x="238.5" y="-15.3" font-family="Times,serif" font-size="14.00">Int</text>
</g>
<!-- 94176617075280&#45;&gt;94176617079904 -->
<g id="edge5" class="edge">
<title>94176617075280&#45;&gt;94176617079904</title>
<path fill="none" stroke="black" d="M190.88,-111.28C198.31,-99.38 208.24,-83.46 217.12,-69.25"/>
<polygon fill="black" stroke="black" points="220.15,-71 222.48,-60.67 214.21,-67.3 220.15,-71"/>
</g>
</g>
</svg>
