<?xml version="1.0" encoding="UTF-8" standalone="no"?>
<!DOCTYPE svg PUBLIC "-//W3C//DTD SVG 1.1//EN"
 "http://www.w3.org/Graphics/SVG/1.1/DTD/svg11.dtd">
<!-- Generated by graphviz version 2.43.0 (0)
 -->
<!-- Title: %3 Pages: 1 -->
<svg width="238pt" height="239pt"
 viewBox="0.00 0.00 238.00 239.00" xmlns="http://www.w3.org/2000/svg" xmlns:xlink="http://www.w3.org/1999/xlink">
<g id="graph0" class="graph" transform="scale(1 1) rotate(0) translate(4 235)">
<title>%3</title>
<polygon fill="white" stroke="transparent" points="-4,4 -4,-235 234,-235 234,4 -4,4"/>
<!-- 94433245409344 -->
<g id="node1" class="node">
<title>94433245409344</title>
<polygon fill="#506266" stroke="black" points="193.5,-231 130.5,-231 130.5,-193 193.5,-193 193.5,-231"/>
<text text-anchor="middle" x="162" y="-215.8" font-family="Times,serif" font-size="14.00">APPLY</text>
<text text-anchor="middle" x="162" y="-200.8" font-family="Times,serif" font-size="14.00">Int</text>
</g>
<!-- 94433245409088 -->
<g id="node2" class="node">
<title>94433245409088</title>
<polygon fill="#506266" stroke="black" points="158,-149.5 84,-149.5 84,-111.5 158,-111.5 158,-149.5"/>
<text text-anchor="middle" x="121" y="-134.3" font-family="Times,serif" font-size="14.00">APPLY</text>
<text text-anchor="middle" x="121" y="-119.3" font-family="Times,serif" font-size="14.00">Int&#45;&gt;Int</text>
</g>
<!-- 94433245409344&#45;&gt;94433245409088 -->
<g id="edge3" class="edge">
<title>94433245409344&#45;&gt;94433245409088</title>
<path fill="none" stroke="black" d="M152.7,-192.96C147.49,-182.87 140.9,-170.08 135.07,-158.79"/>
<polygon fill="black" stroke="black" points="138.1,-157.03 130.41,-149.74 131.88,-160.24 138.1,-157.03"/>
</g>
<!-- 94433245409184 -->
<g id="node5" class="node">
<title>94433245409184</title>
<polygon fill="#c26d97" stroke="black" points="230,-157 176,-157 176,-104 230,-104 230,-157"/>
<text text-anchor="middle" x="203" y="-141.8" font-family="Times,serif" font-size="14.00">VAR</text>
<text text-anchor="middle" x="203" y="-126.8" font-family="Times,serif" font-size="14.00">a</text>
<text text-anchor="middle" x="203" y="-111.8" font-family="Times,serif" font-size="14.00">Int</text>
</g>
<!-- 94433245409344&#45;&gt;94433245409184 -->
<g id="edge4" class="edge">
<title>94433245409344&#45;&gt;94433245409184</title>
<path fill="none" stroke="black" d="M171.3,-192.96C175.41,-184.99 180.39,-175.34 185.17,-166.07"/>
<polygon fill="black" stroke="black" points="188.37,-167.49 189.85,-157 182.15,-164.29 188.37,-167.49"/>
</g>
<!-- 94433245409120 -->
<g id="node3" class="node">
<title>94433245409120</title>
<polygon fill="#818274" stroke="black" points="132,-68 0,-68 0,0 132,0 132,-68"/>
<text text-anchor="middle" x="66" y="-52.8" font-family="Times,serif" font-size="14.00">OPERATOR</text>
<text text-anchor="middle" x="66" y="-37.8" font-family="Times,serif" font-size="14.00">*</text>
<text text-anchor="middle" x="66" y="-22.8" font-family="Times,serif" font-size="14.00">0x55e2f40c2f60</text>
<text text-anchor="middle" x="66" y="-7.8" font-family="Times,serif" font-size="14.00">Int&#45;&gt;Int&#45;&gt;Int</text>
</g>
<!-- 94433245409088&#45;&gt;94433245409120 -->
<g id="edge1" class="edge">
<title>94433245409088&#45;&gt;94433245409120</title>
<path fill="none" stroke="black" d="M110.4,-111.28C104.67,-101.44 97.35,-88.86 90.31,-76.76"/>
<polygon fill="black" stroke="black" points="93.31,-74.97 85.26,-68.08 87.26,-78.49 93.31,-74.97"/>
</g>
<!-- 94433245408992 -->
<g id="node4" class="node">
<title>94433245408992</title>
<polygon fill="#c26d97" stroke="black" points="204,-60.5 150,-60.5 150,-7.5 204,-7.5 204,-60.5"/>
<text text-anchor="middle" x="177" y="-45.3" font-family="Times,serif" font-size="14.00">VAR</text>
<text text-anchor="middle" x="177" y="-30.3" font-family="Times,serif" font-size="14.00">a</text>
<text text-anchor="middle" x="177" y="-15.3" font-family="Times,serif" font-size="14.00">Int</text>
</g>
<!-- 94433245409088&#45;&gt;94433245408992 -->
<g id="edge2" class="edge">
<title>94433245409088&#45;&gt;94433245408992</title>
<path fill="none" stroke="black" d="M131.8,-111.28C138.78,-99.49 148.11,-83.76 156.47,-69.65"/>
<polygon fill="black" stroke="black" points="159.7,-71.05 161.79,-60.67 153.68,-67.49 159.7,-71.05"/>
</g>
</g>
</svg>
