<?xml version="1.0" encoding="UTF-8" standalone="no"?>
<!DOCTYPE svg PUBLIC "-//W3C//DTD SVG 1.1//EN"
 "http://www.w3.org/Graphics/SVG/1.1/DTD/svg11.dtd">
<!-- Generated by graphviz version 2.43.0 (0)
 -->
<!-- Title: %3 Pages: 1 -->
<svg width="732pt" height="699pt"
 viewBox="0.00 0.00 732.00 699.00" xmlns="http://www.w3.org/2000/svg" xmlns:xlink="http://www.w3.org/1999/xlink">
<g id="graph0" class="graph" transform="scale(1 1) rotate(0) translate(4 695)">
<title>%3</title>
<polygon fill="white" stroke="transparent" points="-4,4 -4,-695 728,-695 728,4 -4,4"/>
<!-- 94457370238928 -->
<g id="node1" class="node">
<title>94457370238928</title>
<polygon fill="#a3ab78" stroke="black" points="457.5,-691 329.5,-691 329.5,-653 457.5,-653 457.5,-691"/>
<text text-anchor="middle" x="393.5" y="-675.8" font-family="Times,serif" font-size="14.00">IF_THEN_ELSE</text>
<text text-anchor="middle" x="393.5" y="-660.8" font-family="Times,serif" font-size="14.00">Int&#45;&gt;Int</text>
</g>
<!-- 94457370237040 -->
<g id="node2" class="node">
<title>94457370237040</title>
<polygon fill="#506266" stroke="black" points="296,-617 233,-617 233,-579 296,-579 296,-617"/>
<text text-anchor="middle" x="264.5" y="-601.8" font-family="Times,serif" font-size="14.00">APPLY</text>
<text text-anchor="middle" x="264.5" y="-586.8" font-family="Times,serif" font-size="14.00">Int</text>
</g>
<!-- 94457370238928&#45;&gt;94457370237040 -->
<g id="edge9" class="edge">
<title>94457370238928&#45;&gt;94457370237040</title>
<path fill="none" stroke="black" d="M360.95,-652.83C344.04,-643.39 323.22,-631.77 305.25,-621.74"/>
<polygon fill="black" stroke="black" points="306.59,-618.48 296.15,-616.67 303.18,-624.59 306.59,-618.48"/>
</g>
<!-- 94457370237552 -->
<g id="node11" class="node">
<title>94457370237552</title>
<polygon fill="#506266" stroke="black" points="425,-617 362,-617 362,-579 425,-579 425,-617"/>
<text text-anchor="middle" x="393.5" y="-601.8" font-family="Times,serif" font-size="14.00">APPLY</text>
<text text-anchor="middle" x="393.5" y="-586.8" font-family="Times,serif" font-size="14.00">Int</text>
</g>
<!-- 94457370238928&#45;&gt;94457370237552 -->
<g id="edge10" class="edge">
<title>94457370238928&#45;&gt;94457370237552</title>
<path fill="none" stroke="black" d="M393.5,-652.83C393.5,-645.13 393.5,-635.97 393.5,-627.42"/>
<polygon fill="black" stroke="black" points="397,-627.41 393.5,-617.41 390,-627.41 397,-627.41"/>
</g>
<!-- 94457370238768 -->
<g id="node12" class="node">
<title>94457370238768</title>
<polygon fill="#506266" stroke="black" points="554,-617 491,-617 491,-579 554,-579 554,-617"/>
<text text-anchor="middle" x="522.5" y="-601.8" font-family="Times,serif" font-size="14.00">APPLY</text>
<text text-anchor="middle" x="522.5" y="-586.8" font-family="Times,serif" font-size="14.00">Int</text>
</g>
<!-- 94457370238928&#45;&gt;94457370238768 -->
<g id="edge11" class="edge">
<title>94457370238928&#45;&gt;94457370238768</title>
<path fill="none" stroke="black" d="M426.05,-652.83C442.96,-643.39 463.78,-631.77 481.75,-621.74"/>
<polygon fill="black" stroke="black" points="483.82,-624.59 490.85,-616.67 480.41,-618.48 483.82,-624.59"/>
</g>
<!-- 94457370236912 -->
<g id="node3" class="node">
<title>94457370236912</title>
<polygon fill="#506266" stroke="black" points="215.5,-535.5 141.5,-535.5 141.5,-497.5 215.5,-497.5 215.5,-535.5"/>
<text text-anchor="middle" x="178.5" y="-520.3" font-family="Times,serif" font-size="14.00">APPLY</text>
<text text-anchor="middle" x="178.5" y="-505.3" font-family="Times,serif" font-size="14.00">Int&#45;&gt;Int</text>
</g>
<!-- 94457370237040&#45;&gt;94457370236912 -->
<g id="edge7" class="edge">
<title>94457370237040&#45;&gt;94457370236912</title>
<path fill="none" stroke="black" d="M244.99,-578.96C233.41,-568.26 218.56,-554.54 205.84,-542.77"/>
<polygon fill="black" stroke="black" points="207.95,-539.96 198.24,-535.74 203.2,-545.1 207.95,-539.96"/>
</g>
<!-- 94457370236720 -->
<g id="node10" class="node">
<title>94457370236720</title>
<polygon fill="#bde038" stroke="black" points="295,-543 234,-543 234,-490 295,-490 295,-543"/>
<text text-anchor="middle" x="264.5" y="-527.8" font-family="Times,serif" font-size="14.00">ELEM</text>
<text text-anchor="middle" x="264.5" y="-512.8" font-family="Times,serif" font-size="14.00">13</text>
<text text-anchor="middle" x="264.5" y="-497.8" font-family="Times,serif" font-size="14.00">Int</text>
</g>
<!-- 94457370237040&#45;&gt;94457370236720 -->
<g id="edge8" class="edge">
<title>94457370237040&#45;&gt;94457370236720</title>
<path fill="none" stroke="black" d="M264.5,-578.96C264.5,-571.32 264.5,-562.14 264.5,-553.23"/>
<polygon fill="black" stroke="black" points="268,-553 264.5,-543 261,-553 268,-553"/>
</g>
<!-- 94457370236656 -->
<g id="node4" class="node">
<title>94457370236656</title>
<polygon fill="#818274" stroke="black" points="129,-454 0,-454 0,-386 129,-386 129,-454"/>
<text text-anchor="middle" x="64.5" y="-438.8" font-family="Times,serif" font-size="14.00">OPERATOR</text>
<text text-anchor="middle" x="64.5" y="-423.8" font-family="Times,serif" font-size="14.00">==</text>
<text text-anchor="middle" x="64.5" y="-408.8" font-family="Times,serif" font-size="14.00">0x55e891ffd6f0</text>
<text text-anchor="middle" x="64.5" y="-393.8" font-family="Times,serif" font-size="14.00">Int&#45;&gt;Int&#45;&gt;Int</text>
</g>
<!-- 94457370236912&#45;&gt;94457370236656 -->
<g id="edge1" class="edge">
<title>94457370236912&#45;&gt;94457370236656</title>
<path fill="none" stroke="black" d="M156.52,-497.28C143.96,-486.87 127.69,-473.38 112.33,-460.65"/>
<polygon fill="black" stroke="black" points="114.34,-457.77 104.41,-454.08 109.88,-463.16 114.34,-457.77"/>
</g>
<!-- 94457370236688 -->
<g id="node5" class="node">
<title>94457370236688</title>
<polygon fill="#506266" stroke="black" points="210,-439 147,-439 147,-401 210,-401 210,-439"/>
<text text-anchor="middle" x="178.5" y="-423.8" font-family="Times,serif" font-size="14.00">APPLY</text>
<text text-anchor="middle" x="178.5" y="-408.8" font-family="Times,serif" font-size="14.00">Int</text>
</g>
<!-- 94457370236912&#45;&gt;94457370236688 -->
<g id="edge6" class="edge">
<title>94457370236912&#45;&gt;94457370236688</title>
<path fill="none" stroke="black" d="M178.5,-497.28C178.5,-483.68 178.5,-464.85 178.5,-449.3"/>
<polygon fill="black" stroke="black" points="182,-449.16 178.5,-439.16 175,-449.16 182,-449.16"/>
</g>
<!-- 94457370236432 -->
<g id="node6" class="node">
<title>94457370236432</title>
<polygon fill="#506266" stroke="black" points="172.5,-342.5 98.5,-342.5 98.5,-304.5 172.5,-304.5 172.5,-342.5"/>
<text text-anchor="middle" x="135.5" y="-327.3" font-family="Times,serif" font-size="14.00">APPLY</text>
<text text-anchor="middle" x="135.5" y="-312.3" font-family="Times,serif" font-size="14.00">Int&#45;&gt;Int</text>
</g>
<!-- 94457370236688&#45;&gt;94457370236432 -->
<g id="edge4" class="edge">
<title>94457370236688&#45;&gt;94457370236432</title>
<path fill="none" stroke="black" d="M170.21,-400.78C163.9,-386.92 155.12,-367.62 147.97,-351.91"/>
<polygon fill="black" stroke="black" points="151.09,-350.32 143.77,-342.66 144.72,-353.22 151.09,-350.32"/>
</g>
<!-- 94457370236528 -->
<g id="node9" class="node">
<title>94457370236528</title>
<polygon fill="#bde038" stroke="black" points="252,-350 191,-350 191,-297 252,-297 252,-350"/>
<text text-anchor="middle" x="221.5" y="-334.8" font-family="Times,serif" font-size="14.00">ELEM</text>
<text text-anchor="middle" x="221.5" y="-319.8" font-family="Times,serif" font-size="14.00">9</text>
<text text-anchor="middle" x="221.5" y="-304.8" font-family="Times,serif" font-size="14.00">Int</text>
</g>
<!-- 94457370236688&#45;&gt;94457370236528 -->
<g id="edge5" class="edge">
<title>94457370236688&#45;&gt;94457370236528</title>
<path fill="none" stroke="black" d="M186.79,-400.78C192.1,-389.1 199.18,-373.56 205.55,-359.55"/>
<polygon fill="black" stroke="black" points="208.87,-360.72 209.82,-350.17 202.49,-357.82 208.87,-360.72"/>
</g>
<!-- 94457370236464 -->
<g id="node7" class="node">
<title>94457370236464</title>
<polygon fill="#818274" stroke="black" points="145,-261 12,-261 12,-193 145,-193 145,-261"/>
<text text-anchor="middle" x="78.5" y="-245.8" font-family="Times,serif" font-size="14.00">OPERATOR</text>
<text text-anchor="middle" x="78.5" y="-230.8" font-family="Times,serif" font-size="14.00">+</text>
<text text-anchor="middle" x="78.5" y="-215.8" font-family="Times,serif" font-size="14.00">0x55e891ffd630</text>
<text text-anchor="middle" x="78.5" y="-200.8" font-family="Times,serif" font-size="14.00">Int&#45;&gt;Int&#45;&gt;Int</text>
</g>
<!-- 94457370236432&#45;&gt;94457370236464 -->
<g id="edge2" class="edge">
<title>94457370236432&#45;&gt;94457370236464</title>
<path fill="none" stroke="black" d="M124.51,-304.28C118.57,-294.44 110.98,-281.86 103.69,-269.76"/>
<polygon fill="black" stroke="black" points="106.62,-267.84 98.46,-261.08 100.62,-271.46 106.62,-267.84"/>
</g>
<!-- 94457370236336 -->
<g id="node8" class="node">
<title>94457370236336</title>
<polygon fill="#bde038" stroke="black" points="224,-253.5 163,-253.5 163,-200.5 224,-200.5 224,-253.5"/>
<text text-anchor="middle" x="193.5" y="-238.3" font-family="Times,serif" font-size="14.00">ELEM</text>
<text text-anchor="middle" x="193.5" y="-223.3" font-family="Times,serif" font-size="14.00">4</text>
<text text-anchor="middle" x="193.5" y="-208.3" font-family="Times,serif" font-size="14.00">Int</text>
</g>
<!-- 94457370236432&#45;&gt;94457370236336 -->
<g id="edge3" class="edge">
<title>94457370236432&#45;&gt;94457370236336</title>
<path fill="none" stroke="black" d="M146.68,-304.28C153.99,-292.38 163.76,-276.46 172.48,-262.25"/>
<polygon fill="black" stroke="black" points="175.5,-264.02 177.75,-253.67 169.53,-260.36 175.5,-264.02"/>
</g>
<!-- 94457370237296 -->
<g id="node13" class="node">
<title>94457370237296</title>
<polygon fill="#506266" stroke="black" points="387.5,-535.5 313.5,-535.5 313.5,-497.5 387.5,-497.5 387.5,-535.5"/>
<text text-anchor="middle" x="350.5" y="-520.3" font-family="Times,serif" font-size="14.00">APPLY</text>
<text text-anchor="middle" x="350.5" y="-505.3" font-family="Times,serif" font-size="14.00">Int&#45;&gt;Int</text>
</g>
<!-- 94457370237552&#45;&gt;94457370237296 -->
<g id="edge14" class="edge">
<title>94457370237552&#45;&gt;94457370237296</title>
<path fill="none" stroke="black" d="M383.74,-578.96C378.28,-568.87 371.37,-556.08 365.26,-544.79"/>
<polygon fill="black" stroke="black" points="368.2,-542.87 360.37,-535.74 362.05,-546.2 368.2,-542.87"/>
</g>
<!-- 94457370237392 -->
<g id="node16" class="node">
<title>94457370237392</title>
<polygon fill="#bde038" stroke="black" points="467,-543 406,-543 406,-490 467,-490 467,-543"/>
<text text-anchor="middle" x="436.5" y="-527.8" font-family="Times,serif" font-size="14.00">ELEM</text>
<text text-anchor="middle" x="436.5" y="-512.8" font-family="Times,serif" font-size="14.00">2</text>
<text text-anchor="middle" x="436.5" y="-497.8" font-family="Times,serif" font-size="14.00">Int</text>
</g>
<!-- 94457370237552&#45;&gt;94457370237392 -->
<g id="edge15" class="edge">
<title>94457370237552&#45;&gt;94457370237392</title>
<path fill="none" stroke="black" d="M403.26,-578.96C407.57,-570.99 412.79,-561.34 417.8,-552.07"/>
<polygon fill="black" stroke="black" points="421.03,-553.46 422.71,-543 414.87,-550.13 421.03,-553.46"/>
</g>
<!-- 94457370242976 -->
<g id="node17" class="node">
<title>94457370242976</title>
<polygon fill="#506266" stroke="black" points="559.5,-535.5 485.5,-535.5 485.5,-497.5 559.5,-497.5 559.5,-535.5"/>
<text text-anchor="middle" x="522.5" y="-520.3" font-family="Times,serif" font-size="14.00">APPLY</text>
<text text-anchor="middle" x="522.5" y="-505.3" font-family="Times,serif" font-size="14.00">Int&#45;&gt;Int</text>
</g>
<!-- 94457370238768&#45;&gt;94457370242976 -->
<g id="edge26" class="edge">
<title>94457370238768&#45;&gt;94457370242976</title>
<path fill="none" stroke="black" d="M522.5,-578.96C522.5,-569.17 522.5,-556.85 522.5,-545.81"/>
<polygon fill="black" stroke="black" points="526,-545.74 522.5,-535.74 519,-545.74 526,-545.74"/>
</g>
<!-- 94457370242848 -->
<g id="node28" class="node">
<title>94457370242848</title>
<polygon fill="#bde038" stroke="black" points="639,-543 578,-543 578,-490 639,-490 639,-543"/>
<text text-anchor="middle" x="608.5" y="-527.8" font-family="Times,serif" font-size="14.00">ELEM</text>
<text text-anchor="middle" x="608.5" y="-512.8" font-family="Times,serif" font-size="14.00">1</text>
<text text-anchor="middle" x="608.5" y="-497.8" font-family="Times,serif" font-size="14.00">Int</text>
</g>
<!-- 94457370238768&#45;&gt;94457370242848 -->
<g id="edge27" class="edge">
<title>94457370238768&#45;&gt;94457370242848</title>
<path fill="none" stroke="black" d="M542.01,-578.96C551.27,-570.41 562.61,-559.92 573.29,-550.05"/>
<polygon fill="black" stroke="black" points="575.94,-552.36 580.91,-543 571.19,-547.22 575.94,-552.36"/>
</g>
<!-- 94457370237328 -->
<g id="node14" class="node">
<title>94457370237328</title>
<polygon fill="#818274" stroke="black" points="361,-454 228,-454 228,-386 361,-386 361,-454"/>
<text text-anchor="middle" x="294.5" y="-438.8" font-family="Times,serif" font-size="14.00">OPERATOR</text>
<text text-anchor="middle" x="294.5" y="-423.8" font-family="Times,serif" font-size="14.00">/</text>
<text text-anchor="middle" x="294.5" y="-408.8" font-family="Times,serif" font-size="14.00">0x55e891ffd990</text>
<text text-anchor="middle" x="294.5" y="-393.8" font-family="Times,serif" font-size="14.00">Int&#45;&gt;Int&#45;&gt;Int</text>
</g>
<!-- 94457370237296&#45;&gt;94457370237328 -->
<g id="edge12" class="edge">
<title>94457370237296&#45;&gt;94457370237328</title>
<path fill="none" stroke="black" d="M339.7,-497.28C333.87,-487.44 326.42,-474.86 319.25,-462.76"/>
<polygon fill="black" stroke="black" points="322.21,-460.9 314.11,-454.08 316.19,-464.47 322.21,-460.9"/>
</g>
<!-- 94457370237200 -->
<g id="node15" class="node">
<title>94457370237200</title>
<polygon fill="#bde038" stroke="black" points="440,-446.5 379,-446.5 379,-393.5 440,-393.5 440,-446.5"/>
<text text-anchor="middle" x="409.5" y="-431.3" font-family="Times,serif" font-size="14.00">ELEM</text>
<text text-anchor="middle" x="409.5" y="-416.3" font-family="Times,serif" font-size="14.00">8</text>
<text text-anchor="middle" x="409.5" y="-401.3" font-family="Times,serif" font-size="14.00">Int</text>
</g>
<!-- 94457370237296&#45;&gt;94457370237200 -->
<g id="edge13" class="edge">
<title>94457370237296&#45;&gt;94457370237200</title>
<path fill="none" stroke="black" d="M361.88,-497.28C369.31,-485.38 379.24,-469.46 388.12,-455.25"/>
<polygon fill="black" stroke="black" points="391.15,-457 393.48,-446.67 385.21,-453.3 391.15,-457"/>
</g>
<!-- 94457370242944 -->
<g id="node18" class="node">
<title>94457370242944</title>
<polygon fill="#818274" stroke="black" points="586.5,-454 458.5,-454 458.5,-386 586.5,-386 586.5,-454"/>
<text text-anchor="middle" x="522.5" y="-438.8" font-family="Times,serif" font-size="14.00">OPERATOR</text>
<text text-anchor="middle" x="522.5" y="-423.8" font-family="Times,serif" font-size="14.00">+</text>
<text text-anchor="middle" x="522.5" y="-408.8" font-family="Times,serif" font-size="14.00">0x55e891ffef80</text>
<text text-anchor="middle" x="522.5" y="-393.8" font-family="Times,serif" font-size="14.00">Int&#45;&gt;Int&#45;&gt;Int</text>
</g>
<!-- 94457370242976&#45;&gt;94457370242944 -->
<g id="edge16" class="edge">
<title>94457370242976&#45;&gt;94457370242944</title>
<path fill="none" stroke="black" d="M522.5,-497.28C522.5,-487.82 522.5,-475.83 522.5,-464.17"/>
<polygon fill="black" stroke="black" points="526,-464.08 522.5,-454.08 519,-464.08 526,-464.08"/>
</g>
<!-- 94457370238576 -->
<g id="node19" class="node">
<title>94457370238576</title>
<polygon fill="#506266" stroke="black" points="668,-439 605,-439 605,-401 668,-401 668,-439"/>
<text text-anchor="middle" x="636.5" y="-423.8" font-family="Times,serif" font-size="14.00">APPLY</text>
<text text-anchor="middle" x="636.5" y="-408.8" font-family="Times,serif" font-size="14.00">Int</text>
</g>
<!-- 94457370242976&#45;&gt;94457370238576 -->
<g id="edge25" class="edge">
<title>94457370242976&#45;&gt;94457370238576</title>
<path fill="none" stroke="black" d="M544.48,-497.28C562.22,-482.57 587.36,-461.74 606.87,-445.56"/>
<polygon fill="black" stroke="black" points="609.12,-448.24 614.59,-439.16 604.65,-442.85 609.12,-448.24"/>
</g>
<!-- 94457370238448 -->
<g id="node20" class="node">
<title>94457370238448</title>
<polygon fill="#506266" stroke="black" points="630.5,-342.5 556.5,-342.5 556.5,-304.5 630.5,-304.5 630.5,-342.5"/>
<text text-anchor="middle" x="593.5" y="-327.3" font-family="Times,serif" font-size="14.00">APPLY</text>
<text text-anchor="middle" x="593.5" y="-312.3" font-family="Times,serif" font-size="14.00">Int&#45;&gt;Int</text>
</g>
<!-- 94457370238576&#45;&gt;94457370238448 -->
<g id="edge23" class="edge">
<title>94457370238576&#45;&gt;94457370238448</title>
<path fill="none" stroke="black" d="M628.21,-400.78C621.9,-386.92 613.12,-367.62 605.97,-351.91"/>
<polygon fill="black" stroke="black" points="609.09,-350.32 601.77,-342.66 602.72,-353.22 609.09,-350.32"/>
</g>
<!-- 94457370238256 -->
<g id="node27" class="node">
<title>94457370238256</title>
<polygon fill="#bde038" stroke="black" points="710,-350 649,-350 649,-297 710,-297 710,-350"/>
<text text-anchor="middle" x="679.5" y="-334.8" font-family="Times,serif" font-size="14.00">ELEM</text>
<text text-anchor="middle" x="679.5" y="-319.8" font-family="Times,serif" font-size="14.00">2</text>
<text text-anchor="middle" x="679.5" y="-304.8" font-family="Times,serif" font-size="14.00">Int</text>
</g>
<!-- 94457370238576&#45;&gt;94457370238256 -->
<g id="edge24" class="edge">
<title>94457370238576&#45;&gt;94457370238256</title>
<path fill="none" stroke="black" d="M644.79,-400.78C650.1,-389.1 657.18,-373.56 663.55,-359.55"/>
<polygon fill="black" stroke="black" points="666.87,-360.72 667.82,-350.17 660.49,-357.82 666.87,-360.72"/>
</g>
<!-- 94457370238192 -->
<g id="node21" class="node">
<title>94457370238192</title>
<polygon fill="#818274" stroke="black" points="600.5,-261 472.5,-261 472.5,-193 600.5,-193 600.5,-261"/>
<text text-anchor="middle" x="536.5" y="-245.8" font-family="Times,serif" font-size="14.00">OPERATOR</text>
<text text-anchor="middle" x="536.5" y="-230.8" font-family="Times,serif" font-size="14.00">&#45;</text>
<text text-anchor="middle" x="536.5" y="-215.8" font-family="Times,serif" font-size="14.00">0x55e891ffdcf0</text>
<text text-anchor="middle" x="536.5" y="-200.8" font-family="Times,serif" font-size="14.00">Int&#45;&gt;Int&#45;&gt;Int</text>
</g>
<!-- 94457370238448&#45;&gt;94457370238192 -->
<g id="edge17" class="edge">
<title>94457370238448&#45;&gt;94457370238192</title>
<path fill="none" stroke="black" d="M582.51,-304.28C576.57,-294.44 568.98,-281.86 561.69,-269.76"/>
<polygon fill="black" stroke="black" points="564.62,-267.84 556.46,-261.08 558.62,-271.46 564.62,-267.84"/>
</g>
<!-- 94457370238224 -->
<g id="node22" class="node">
<title>94457370238224</title>
<polygon fill="#506266" stroke="black" points="682,-246 619,-246 619,-208 682,-208 682,-246"/>
<text text-anchor="middle" x="650.5" y="-230.8" font-family="Times,serif" font-size="14.00">APPLY</text>
<text text-anchor="middle" x="650.5" y="-215.8" font-family="Times,serif" font-size="14.00">Int</text>
</g>
<!-- 94457370238448&#45;&gt;94457370238224 -->
<g id="edge22" class="edge">
<title>94457370238448&#45;&gt;94457370238224</title>
<path fill="none" stroke="black" d="M604.49,-304.28C612.93,-290.29 624.71,-270.76 634.24,-254.96"/>
<polygon fill="black" stroke="black" points="637.38,-256.54 639.54,-246.16 631.38,-252.92 637.38,-256.54"/>
</g>
<!-- 94457370237808 -->
<g id="node23" class="node">
<title>94457370237808</title>
<polygon fill="#506266" stroke="black" points="644.5,-149.5 570.5,-149.5 570.5,-111.5 644.5,-111.5 644.5,-149.5"/>
<text text-anchor="middle" x="607.5" y="-134.3" font-family="Times,serif" font-size="14.00">APPLY</text>
<text text-anchor="middle" x="607.5" y="-119.3" font-family="Times,serif" font-size="14.00">Int&#45;&gt;Int</text>
</g>
<!-- 94457370238224&#45;&gt;94457370237808 -->
<g id="edge20" class="edge">
<title>94457370238224&#45;&gt;94457370237808</title>
<path fill="none" stroke="black" d="M642.21,-207.78C635.9,-193.92 627.12,-174.62 619.97,-158.91"/>
<polygon fill="black" stroke="black" points="623.09,-157.32 615.77,-149.66 616.72,-160.22 623.09,-157.32"/>
</g>
<!-- 94457370237904 -->
<g id="node26" class="node">
<title>94457370237904</title>
<polygon fill="#bde038" stroke="black" points="724,-157 663,-157 663,-104 724,-104 724,-157"/>
<text text-anchor="middle" x="693.5" y="-141.8" font-family="Times,serif" font-size="14.00">ELEM</text>
<text text-anchor="middle" x="693.5" y="-126.8" font-family="Times,serif" font-size="14.00">6</text>
<text text-anchor="middle" x="693.5" y="-111.8" font-family="Times,serif" font-size="14.00">Int</text>
</g>
<!-- 94457370238224&#45;&gt;94457370237904 -->
<g id="edge21" class="edge">
<title>94457370238224&#45;&gt;94457370237904</title>
<path fill="none" stroke="black" d="M658.79,-207.78C664.1,-196.1 671.18,-180.56 677.55,-166.55"/>
<polygon fill="black" stroke="black" points="680.87,-167.72 681.82,-157.17 674.49,-164.82 680.87,-167.72"/>
</g>
<!-- 94457370237840 -->
<g id="node24" class="node">
<title>94457370237840</title>
<polygon fill="#818274" stroke="black" points="617,-68 484,-68 484,0 617,0 617,-68"/>
<text text-anchor="middle" x="550.5" y="-52.8" font-family="Times,serif" font-size="14.00">OPERATOR</text>
<text text-anchor="middle" x="550.5" y="-37.8" font-family="Times,serif" font-size="14.00">+</text>
<text text-anchor="middle" x="550.5" y="-22.8" font-family="Times,serif" font-size="14.00">0x55e891ffdb90</text>
<text text-anchor="middle" x="550.5" y="-7.8" font-family="Times,serif" font-size="14.00">Int&#45;&gt;Int&#45;&gt;Int</text>
</g>
<!-- 94457370237808&#45;&gt;94457370237840 -->
<g id="edge18" class="edge">
<title>94457370237808&#45;&gt;94457370237840</title>
<path fill="none" stroke="black" d="M596.51,-111.28C590.57,-101.44 582.98,-88.86 575.69,-76.76"/>
<polygon fill="black" stroke="black" points="578.62,-74.84 570.46,-68.08 572.62,-78.46 578.62,-74.84"/>
</g>
<!-- 94457370237712 -->
<g id="node25" class="node">
<title>94457370237712</title>
<polygon fill="#bde038" stroke="black" points="696,-60.5 635,-60.5 635,-7.5 696,-7.5 696,-60.5"/>
<text text-anchor="middle" x="665.5" y="-45.3" font-family="Times,serif" font-size="14.00">ELEM</text>
<text text-anchor="middle" x="665.5" y="-30.3" font-family="Times,serif" font-size="14.00">2</text>
<text text-anchor="middle" x="665.5" y="-15.3" font-family="Times,serif" font-size="14.00">Int</text>
</g>
<!-- 94457370237808&#45;&gt;94457370237712 -->
<g id="edge19" class="edge">
<title>94457370237808&#45;&gt;94457370237712</title>
<path fill="none" stroke="black" d="M618.68,-111.28C625.99,-99.38 635.76,-83.46 644.48,-69.25"/>
<polygon fill="black" stroke="black" points="647.5,-71.02 649.75,-60.67 641.53,-67.36 647.5,-71.02"/>
</g>
</g>
</svg>
