<?xml version="1.0" encoding="UTF-8" standalone="no"?>
<!DOCTYPE svg PUBLIC "-//W3C//DTD SVG 1.1//EN"
 "http://www.w3.org/Graphics/SVG/1.1/DTD/svg11.dtd">
<!-- Generated by graphviz version 2.43.0 (0)
 -->
<!-- Title: %3 Pages: 1 -->
<svg width="270pt" height="343pt"
 viewBox="0.00 0.00 269.50 343.00" xmlns="http://www.w3.org/2000/svg" xmlns:xlink="http://www.w3.org/1999/xlink">
<g id="graph0" class="graph" transform="scale(1 1) rotate(0) translate(4 339)">
<title>%3</title>
<polygon fill="white" stroke="transparent" points="-4,4 -4,-339 265.5,-339 265.5,4 -4,4"/>
<!-- 93826998711392 -->
<g id="node1" class="node">
<title>93826998711392</title>
<polygon fill="#506266" stroke="black" points="159.5,-335 96.5,-335 96.5,-297 159.5,-297 159.5,-335"/>
<text text-anchor="middle" x="128" y="-319.8" font-family="Times,serif" font-size="14.00">APPLY</text>
<text text-anchor="middle" x="128" y="-304.8" font-family="Times,serif" font-size="14.00">Int</text>
</g>
<!-- 93826998710928 -->
<g id="node2" class="node">
<title>93826998710928</title>
<polygon fill="#a3ab78" stroke="black" points="138,-261 0,-261 0,-193 138,-193 138,-261"/>
<text text-anchor="middle" x="69" y="-245.8" font-family="Times,serif" font-size="14.00">FUNCTION</text>
<text text-anchor="middle" x="69" y="-230.8" font-family="Times,serif" font-size="14.00">print_int</text>
<text text-anchor="middle" x="69" y="-215.8" font-family="Times,serif" font-size="14.00">0x5555ccedb290</text>
<text text-anchor="middle" x="69" y="-200.8" font-family="Times,serif" font-size="14.00">Int&#45;&gt;Int</text>
</g>
<!-- 93826998711392&#45;&gt;93826998710928 -->
<g id="edge1" class="edge">
<title>93826998711392&#45;&gt;93826998710928</title>
<path fill="none" stroke="black" d="M115.78,-296.97C110.35,-288.97 103.71,-279.18 97.16,-269.53"/>
<polygon fill="black" stroke="black" points="99.97,-267.44 91.46,-261.12 94.18,-271.36 99.97,-267.44"/>
</g>
<!-- 93826998711296 -->
<g id="node3" class="node">
<title>93826998711296</title>
<polygon fill="#506266" stroke="black" points="219.5,-246 156.5,-246 156.5,-208 219.5,-208 219.5,-246"/>
<text text-anchor="middle" x="188" y="-230.8" font-family="Times,serif" font-size="14.00">APPLY</text>
<text text-anchor="middle" x="188" y="-215.8" font-family="Times,serif" font-size="14.00">Int</text>
</g>
<!-- 93826998711392&#45;&gt;93826998711296 -->
<g id="edge6" class="edge">
<title>93826998711392&#45;&gt;93826998711296</title>
<path fill="none" stroke="black" d="M140.43,-296.97C148.88,-284.73 160.2,-268.32 169.67,-254.58"/>
<polygon fill="black" stroke="black" points="172.79,-256.22 175.58,-246 167.03,-252.25 172.79,-256.22"/>
</g>
<!-- 93826998710704 -->
<g id="node4" class="node">
<title>93826998710704</title>
<polygon fill="#506266" stroke="black" points="182,-149.5 108,-149.5 108,-111.5 182,-111.5 182,-149.5"/>
<text text-anchor="middle" x="145" y="-134.3" font-family="Times,serif" font-size="14.00">APPLY</text>
<text text-anchor="middle" x="145" y="-119.3" font-family="Times,serif" font-size="14.00">Int&#45;&gt;Int</text>
</g>
<!-- 93826998711296&#45;&gt;93826998710704 -->
<g id="edge4" class="edge">
<title>93826998711296&#45;&gt;93826998710704</title>
<path fill="none" stroke="black" d="M179.71,-207.78C173.4,-193.92 164.62,-174.62 157.47,-158.91"/>
<polygon fill="black" stroke="black" points="160.59,-157.32 153.27,-149.66 154.22,-160.22 160.59,-157.32"/>
</g>
<!-- 93826998710576 -->
<g id="node7" class="node">
<title>93826998710576</title>
<polygon fill="#bde038" stroke="black" points="261.5,-157 200.5,-157 200.5,-104 261.5,-104 261.5,-157"/>
<text text-anchor="middle" x="231" y="-141.8" font-family="Times,serif" font-size="14.00">ELEM</text>
<text text-anchor="middle" x="231" y="-126.8" font-family="Times,serif" font-size="14.00">6</text>
<text text-anchor="middle" x="231" y="-111.8" font-family="Times,serif" font-size="14.00">Int</text>
</g>
<!-- 93826998711296&#45;&gt;93826998710576 -->
<g id="edge5" class="edge">
<title>93826998711296&#45;&gt;93826998710576</title>
<path fill="none" stroke="black" d="M196.29,-207.78C201.6,-196.1 208.68,-180.56 215.05,-166.55"/>
<polygon fill="black" stroke="black" points="218.37,-167.72 219.32,-157.17 211.99,-164.82 218.37,-167.72"/>
</g>
<!-- 93826998715296 -->
<g id="node5" class="node">
<title>93826998715296</title>
<polygon fill="#a3ab78" stroke="black" points="155,-68 19,-68 19,0 155,0 155,-68"/>
<text text-anchor="middle" x="87" y="-52.8" font-family="Times,serif" font-size="14.00">FUNCTION</text>
<text text-anchor="middle" x="87" y="-37.8" font-family="Times,serif" font-size="14.00">pow</text>
<text text-anchor="middle" x="87" y="-22.8" font-family="Times,serif" font-size="14.00">0x5555ccedc3a0</text>
<text text-anchor="middle" x="87" y="-7.8" font-family="Times,serif" font-size="14.00">Int&#45;&gt;Int&#45;&gt;Int</text>
</g>
<!-- 93826998710704&#45;&gt;93826998715296 -->
<g id="edge2" class="edge">
<title>93826998710704&#45;&gt;93826998715296</title>
<path fill="none" stroke="black" d="M133.82,-111.28C127.78,-101.44 120.05,-88.86 112.63,-76.76"/>
<polygon fill="black" stroke="black" points="115.52,-74.78 107.31,-68.08 109.55,-78.44 115.52,-74.78"/>
</g>
<!-- 93826998715328 -->
<g id="node6" class="node">
<title>93826998715328</title>
<polygon fill="#bde038" stroke="black" points="234.5,-60.5 173.5,-60.5 173.5,-7.5 234.5,-7.5 234.5,-60.5"/>
<text text-anchor="middle" x="204" y="-45.3" font-family="Times,serif" font-size="14.00">ELEM</text>
<text text-anchor="middle" x="204" y="-30.3" font-family="Times,serif" font-size="14.00">2</text>
<text text-anchor="middle" x="204" y="-15.3" font-family="Times,serif" font-size="14.00">Int</text>
</g>
<!-- 93826998710704&#45;&gt;93826998715328 -->
<g id="edge3" class="edge">
<title>93826998710704&#45;&gt;93826998715328</title>
<path fill="none" stroke="black" d="M156.38,-111.28C163.81,-99.38 173.74,-83.46 182.62,-69.25"/>
<polygon fill="black" stroke="black" points="185.65,-71 187.98,-60.67 179.71,-67.3 185.65,-71"/>
</g>
</g>
</svg>
