<?xml version="1.0" encoding="UTF-8" standalone="no"?>
<!DOCTYPE svg PUBLIC "-//W3C//DTD SVG 1.1//EN"
 "http://www.w3.org/Graphics/SVG/1.1/DTD/svg11.dtd">
<!-- Generated by graphviz version 2.43.0 (0)
 -->
<!-- Title: %3 Pages: 1 -->
<svg width="266pt" height="432pt"
 viewBox="0.00 0.00 266.00 432.00" xmlns="http://www.w3.org/2000/svg" xmlns:xlink="http://www.w3.org/1999/xlink">
<g id="graph0" class="graph" transform="scale(1 1) rotate(0) translate(4 428)">
<title>%3</title>
<polygon fill="white" stroke="transparent" points="-4,4 -4,-428 262,-428 262,4 -4,4"/>
<!-- 93845777735584 -->
<g id="node1" class="node">
<title>93845777735584</title>
<polygon fill="#506266" stroke="black" points="200,-424 137,-424 137,-386 200,-386 200,-424"/>
<text text-anchor="middle" x="168.5" y="-408.8" font-family="Times,serif" font-size="14.00">APPLY</text>
<text text-anchor="middle" x="168.5" y="-393.8" font-family="Times,serif" font-size="14.00">Int</text>
</g>
<!-- 93845777735456 -->
<g id="node2" class="node">
<title>93845777735456</title>
<polygon fill="#506266" stroke="black" points="162.5,-342.5 88.5,-342.5 88.5,-304.5 162.5,-304.5 162.5,-342.5"/>
<text text-anchor="middle" x="125.5" y="-327.3" font-family="Times,serif" font-size="14.00">APPLY</text>
<text text-anchor="middle" x="125.5" y="-312.3" font-family="Times,serif" font-size="14.00">Int&#45;&gt;Int</text>
</g>
<!-- 93845777735584&#45;&gt;93845777735456 -->
<g id="edge7" class="edge">
<title>93845777735584&#45;&gt;93845777735456</title>
<path fill="none" stroke="black" d="M158.74,-385.96C153.28,-375.87 146.37,-363.08 140.26,-351.79"/>
<polygon fill="black" stroke="black" points="143.2,-349.87 135.37,-342.74 137.05,-353.2 143.2,-349.87"/>
</g>
<!-- 93845777735328 -->
<g id="node9" class="node">
<title>93845777735328</title>
<polygon fill="#bde038" stroke="black" points="242,-350 181,-350 181,-297 242,-297 242,-350"/>
<text text-anchor="middle" x="211.5" y="-334.8" font-family="Times,serif" font-size="14.00">ELEM</text>
<text text-anchor="middle" x="211.5" y="-319.8" font-family="Times,serif" font-size="14.00">4</text>
<text text-anchor="middle" x="211.5" y="-304.8" font-family="Times,serif" font-size="14.00">Int</text>
</g>
<!-- 93845777735584&#45;&gt;93845777735328 -->
<g id="edge8" class="edge">
<title>93845777735584&#45;&gt;93845777735328</title>
<path fill="none" stroke="black" d="M178.26,-385.96C182.57,-377.99 187.79,-368.34 192.8,-359.07"/>
<polygon fill="black" stroke="black" points="196.03,-360.46 197.71,-350 189.87,-357.13 196.03,-360.46"/>
</g>
<!-- 93845777735424 -->
<g id="node3" class="node">
<title>93845777735424</title>
<polygon fill="#818274" stroke="black" points="135,-261 0,-261 0,-193 135,-193 135,-261"/>
<text text-anchor="middle" x="67.5" y="-245.8" font-family="Times,serif" font-size="14.00">OPERATOR</text>
<text text-anchor="middle" x="67.5" y="-230.8" font-family="Times,serif" font-size="14.00">+</text>
<text text-anchor="middle" x="67.5" y="-215.8" font-family="Times,serif" font-size="14.00">0x555a2c3edf00</text>
<text text-anchor="middle" x="67.5" y="-200.8" font-family="Times,serif" font-size="14.00">Int&#45;&gt;Int&#45;&gt;Int</text>
</g>
<!-- 93845777735456&#45;&gt;93845777735424 -->
<g id="edge1" class="edge">
<title>93845777735456&#45;&gt;93845777735424</title>
<path fill="none" stroke="black" d="M114.32,-304.28C108.28,-294.44 100.55,-281.86 93.13,-269.76"/>
<polygon fill="black" stroke="black" points="96.02,-267.78 87.81,-261.08 90.05,-271.44 96.02,-267.78"/>
</g>
<!-- 93845777734672 -->
<g id="node4" class="node">
<title>93845777734672</title>
<polygon fill="#506266" stroke="black" points="216,-246 153,-246 153,-208 216,-208 216,-246"/>
<text text-anchor="middle" x="184.5" y="-230.8" font-family="Times,serif" font-size="14.00">APPLY</text>
<text text-anchor="middle" x="184.5" y="-215.8" font-family="Times,serif" font-size="14.00">Int</text>
</g>
<!-- 93845777735456&#45;&gt;93845777734672 -->
<g id="edge6" class="edge">
<title>93845777735456&#45;&gt;93845777734672</title>
<path fill="none" stroke="black" d="M136.88,-304.28C145.61,-290.29 157.8,-270.76 167.67,-254.96"/>
<polygon fill="black" stroke="black" points="170.83,-256.5 173.16,-246.16 164.89,-252.79 170.83,-256.5"/>
</g>
<!-- 93845777734640 -->
<g id="node5" class="node">
<title>93845777734640</title>
<polygon fill="#506266" stroke="black" points="178.5,-149.5 104.5,-149.5 104.5,-111.5 178.5,-111.5 178.5,-149.5"/>
<text text-anchor="middle" x="141.5" y="-134.3" font-family="Times,serif" font-size="14.00">APPLY</text>
<text text-anchor="middle" x="141.5" y="-119.3" font-family="Times,serif" font-size="14.00">Int&#45;&gt;Int</text>
</g>
<!-- 93845777734672&#45;&gt;93845777734640 -->
<g id="edge4" class="edge">
<title>93845777734672&#45;&gt;93845777734640</title>
<path fill="none" stroke="black" d="M176.21,-207.78C169.9,-193.92 161.12,-174.62 153.97,-158.91"/>
<polygon fill="black" stroke="black" points="157.09,-157.32 149.77,-149.66 150.72,-160.22 157.09,-157.32"/>
</g>
<!-- 93845777734512 -->
<g id="node8" class="node">
<title>93845777734512</title>
<polygon fill="#bde038" stroke="black" points="258,-157 197,-157 197,-104 258,-104 258,-157"/>
<text text-anchor="middle" x="227.5" y="-141.8" font-family="Times,serif" font-size="14.00">ELEM</text>
<text text-anchor="middle" x="227.5" y="-126.8" font-family="Times,serif" font-size="14.00">6</text>
<text text-anchor="middle" x="227.5" y="-111.8" font-family="Times,serif" font-size="14.00">Int</text>
</g>
<!-- 93845777734672&#45;&gt;93845777734512 -->
<g id="edge5" class="edge">
<title>93845777734672&#45;&gt;93845777734512</title>
<path fill="none" stroke="black" d="M192.79,-207.78C198.1,-196.1 205.18,-180.56 211.55,-166.55"/>
<polygon fill="black" stroke="black" points="214.87,-167.72 215.82,-157.17 208.49,-164.82 214.87,-167.72"/>
</g>
<!-- 93845777734832 -->
<g id="node6" class="node">
<title>93845777734832</title>
<polygon fill="#a3ab78" stroke="black" points="152,-68 15,-68 15,0 152,0 152,-68"/>
<text text-anchor="middle" x="83.5" y="-52.8" font-family="Times,serif" font-size="14.00">FUNCTION</text>
<text text-anchor="middle" x="83.5" y="-37.8" font-family="Times,serif" font-size="14.00">pow</text>
<text text-anchor="middle" x="83.5" y="-22.8" font-family="Times,serif" font-size="14.00">0x555a2c3edcb0</text>
<text text-anchor="middle" x="83.5" y="-7.8" font-family="Times,serif" font-size="14.00">Int&#45;&gt;Int&#45;&gt;Int</text>
</g>
<!-- 93845777734640&#45;&gt;93845777734832 -->
<g id="edge2" class="edge">
<title>93845777734640&#45;&gt;93845777734832</title>
<path fill="none" stroke="black" d="M130.32,-111.28C124.28,-101.44 116.55,-88.86 109.13,-76.76"/>
<polygon fill="black" stroke="black" points="112.02,-74.78 103.81,-68.08 106.05,-78.44 112.02,-74.78"/>
</g>
<!-- 93845777739200 -->
<g id="node7" class="node">
<title>93845777739200</title>
<polygon fill="#bde038" stroke="black" points="231,-60.5 170,-60.5 170,-7.5 231,-7.5 231,-60.5"/>
<text text-anchor="middle" x="200.5" y="-45.3" font-family="Times,serif" font-size="14.00">ELEM</text>
<text text-anchor="middle" x="200.5" y="-30.3" font-family="Times,serif" font-size="14.00">2</text>
<text text-anchor="middle" x="200.5" y="-15.3" font-family="Times,serif" font-size="14.00">Int</text>
</g>
<!-- 93845777734640&#45;&gt;93845777739200 -->
<g id="edge3" class="edge">
<title>93845777734640&#45;&gt;93845777739200</title>
<path fill="none" stroke="black" d="M152.88,-111.28C160.31,-99.38 170.24,-83.46 179.12,-69.25"/>
<polygon fill="black" stroke="black" points="182.15,-71 184.48,-60.67 176.21,-67.3 182.15,-71"/>
</g>
</g>
</svg>
