<?xml version="1.0" encoding="UTF-8" standalone="no"?>
<!DOCTYPE svg PUBLIC "-//W3C//DTD SVG 1.1//EN"
 "http://www.w3.org/Graphics/SVG/1.1/DTD/svg11.dtd">
<!-- Generated by graphviz version 2.43.0 (0)
 -->
<!-- Title: %3 Pages: 1 -->
<svg width="570pt" height="1189pt"
 viewBox="0.00 0.00 570.00 1189.00" xmlns="http://www.w3.org/2000/svg" xmlns:xlink="http://www.w3.org/1999/xlink">
<g id="graph0" class="graph" transform="scale(1 1) rotate(0) translate(4 1185)">
<title>%3</title>
<polygon fill="white" stroke="transparent" points="-4,4 -4,-1185 566,-1185 566,4 -4,4"/>
<!-- 94075681845984 -->
<g id="node1" class="node">
<title>94075681845984</title>
<polygon fill="#506266" stroke="black" points="384.5,-1181 321.5,-1181 321.5,-1143 384.5,-1143 384.5,-1181"/>
<text text-anchor="middle" x="353" y="-1165.8" font-family="Times,serif" font-size="14.00">APPLY</text>
<text text-anchor="middle" x="353" y="-1150.8" font-family="Times,serif" font-size="14.00">Int</text>
</g>
<!-- 94075681845856 -->
<g id="node2" class="node">
<title>94075681845856</title>
<polygon fill="#506266" stroke="black" points="347,-1099.5 273,-1099.5 273,-1061.5 347,-1061.5 347,-1099.5"/>
<text text-anchor="middle" x="310" y="-1084.3" font-family="Times,serif" font-size="14.00">APPLY</text>
<text text-anchor="middle" x="310" y="-1069.3" font-family="Times,serif" font-size="14.00">Int&#45;&gt;Int</text>
</g>
<!-- 94075681845984&#45;&gt;94075681845856 -->
<g id="edge27" class="edge">
<title>94075681845984&#45;&gt;94075681845856</title>
<path fill="none" stroke="black" d="M343.24,-1142.96C337.78,-1132.87 330.87,-1120.08 324.76,-1108.79"/>
<polygon fill="black" stroke="black" points="327.7,-1106.87 319.87,-1099.74 321.55,-1110.2 327.7,-1106.87"/>
</g>
<!-- 94075681845728 -->
<g id="node29" class="node">
<title>94075681845728</title>
<polygon fill="#bde038" stroke="black" points="426.5,-1107 365.5,-1107 365.5,-1054 426.5,-1054 426.5,-1107"/>
<text text-anchor="middle" x="396" y="-1091.8" font-family="Times,serif" font-size="14.00">ELEM</text>
<text text-anchor="middle" x="396" y="-1076.8" font-family="Times,serif" font-size="14.00">12</text>
<text text-anchor="middle" x="396" y="-1061.8" font-family="Times,serif" font-size="14.00">Int</text>
</g>
<!-- 94075681845984&#45;&gt;94075681845728 -->
<g id="edge28" class="edge">
<title>94075681845984&#45;&gt;94075681845728</title>
<path fill="none" stroke="black" d="M362.76,-1142.96C367.07,-1134.99 372.29,-1125.34 377.3,-1116.07"/>
<polygon fill="black" stroke="black" points="380.53,-1117.46 382.21,-1107 374.37,-1114.13 380.53,-1117.46"/>
</g>
<!-- 94075681845824 -->
<g id="node3" class="node">
<title>94075681845824</title>
<polygon fill="#818274" stroke="black" points="320,-1018 182,-1018 182,-950 320,-950 320,-1018"/>
<text text-anchor="middle" x="251" y="-1002.8" font-family="Times,serif" font-size="14.00">OPERATOR</text>
<text text-anchor="middle" x="251" y="-987.8" font-family="Times,serif" font-size="14.00">+</text>
<text text-anchor="middle" x="251" y="-972.8" font-family="Times,serif" font-size="14.00">0x558fb3993240</text>
<text text-anchor="middle" x="251" y="-957.8" font-family="Times,serif" font-size="14.00">Int&#45;&gt;Int&#45;&gt;Int</text>
</g>
<!-- 94075681845856&#45;&gt;94075681845824 -->
<g id="edge1" class="edge">
<title>94075681845856&#45;&gt;94075681845824</title>
<path fill="none" stroke="black" d="M298.62,-1061.28C292.48,-1051.44 284.62,-1038.86 277.07,-1026.76"/>
<polygon fill="black" stroke="black" points="279.92,-1024.71 271.66,-1018.08 273.98,-1028.42 279.92,-1024.71"/>
</g>
<!-- 94075681845568 -->
<g id="node4" class="node">
<title>94075681845568</title>
<polygon fill="#506266" stroke="black" points="401.5,-1003 338.5,-1003 338.5,-965 401.5,-965 401.5,-1003"/>
<text text-anchor="middle" x="370" y="-987.8" font-family="Times,serif" font-size="14.00">APPLY</text>
<text text-anchor="middle" x="370" y="-972.8" font-family="Times,serif" font-size="14.00">Int</text>
</g>
<!-- 94075681845856&#45;&gt;94075681845568 -->
<g id="edge26" class="edge">
<title>94075681845856&#45;&gt;94075681845568</title>
<path fill="none" stroke="black" d="M321.57,-1061.28C330.45,-1047.29 342.85,-1027.76 352.88,-1011.96"/>
<polygon fill="black" stroke="black" points="356.06,-1013.48 358.47,-1003.16 350.15,-1009.73 356.06,-1013.48"/>
</g>
<!-- 94075681845120 -->
<g id="node5" class="node">
<title>94075681845120</title>
<polygon fill="#506266" stroke="black" points="366,-906.5 292,-906.5 292,-868.5 366,-868.5 366,-906.5"/>
<text text-anchor="middle" x="329" y="-891.3" font-family="Times,serif" font-size="14.00">APPLY</text>
<text text-anchor="middle" x="329" y="-876.3" font-family="Times,serif" font-size="14.00">Int&#45;&gt;Int</text>
</g>
<!-- 94075681845568&#45;&gt;94075681845120 -->
<g id="edge24" class="edge">
<title>94075681845568&#45;&gt;94075681845120</title>
<path fill="none" stroke="black" d="M362.09,-964.78C356.08,-950.92 347.71,-931.62 340.89,-915.91"/>
<polygon fill="black" stroke="black" points="344.07,-914.45 336.88,-906.66 337.65,-917.23 344.07,-914.45"/>
</g>
<!-- 94075681845472 -->
<g id="node28" class="node">
<title>94075681845472</title>
<polygon fill="#c26d97" stroke="black" points="438,-914 384,-914 384,-861 438,-861 438,-914"/>
<text text-anchor="middle" x="411" y="-898.8" font-family="Times,serif" font-size="14.00">VAR</text>
<text text-anchor="middle" x="411" y="-883.8" font-family="Times,serif" font-size="14.00">d</text>
<text text-anchor="middle" x="411" y="-868.8" font-family="Times,serif" font-size="14.00">Int</text>
</g>
<!-- 94075681845568&#45;&gt;94075681845472 -->
<g id="edge25" class="edge">
<title>94075681845568&#45;&gt;94075681845472</title>
<path fill="none" stroke="black" d="M377.91,-964.78C382.97,-953.1 389.72,-937.56 395.79,-923.55"/>
<polygon fill="black" stroke="black" points="399.09,-924.73 399.86,-914.17 392.67,-921.95 399.09,-924.73"/>
</g>
<!-- 94075681845184 -->
<g id="node6" class="node">
<title>94075681845184</title>
<polygon fill="#506266" stroke="black" points="334,-817.5 224,-817.5 224,-779.5 334,-779.5 334,-817.5"/>
<text text-anchor="middle" x="279" y="-802.3" font-family="Times,serif" font-size="14.00">APPLY</text>
<text text-anchor="middle" x="279" y="-787.3" font-family="Times,serif" font-size="14.00">Int&#45;&gt;Int&#45;&gt;Int</text>
</g>
<!-- 94075681845120&#45;&gt;94075681845184 -->
<g id="edge22" class="edge">
<title>94075681845120&#45;&gt;94075681845184</title>
<path fill="none" stroke="black" d="M318.64,-868.47C311.67,-856.34 302.35,-840.13 294.5,-826.47"/>
<polygon fill="black" stroke="black" points="297.36,-824.43 289.35,-817.5 291.3,-827.92 297.36,-824.43"/>
</g>
<!-- 94075681845344 -->
<g id="node27" class="node">
<title>94075681845344</title>
<polygon fill="#c26d97" stroke="black" points="406,-825 352,-825 352,-772 406,-772 406,-825"/>
<text text-anchor="middle" x="379" y="-809.8" font-family="Times,serif" font-size="14.00">VAR</text>
<text text-anchor="middle" x="379" y="-794.8" font-family="Times,serif" font-size="14.00">e</text>
<text text-anchor="middle" x="379" y="-779.8" font-family="Times,serif" font-size="14.00">Int</text>
</g>
<!-- 94075681845120&#45;&gt;94075681845344 -->
<g id="edge23" class="edge">
<title>94075681845120&#45;&gt;94075681845344</title>
<path fill="none" stroke="black" d="M339.36,-868.47C345.1,-858.48 352.44,-845.71 359.24,-833.89"/>
<polygon fill="black" stroke="black" points="362.34,-835.51 364.29,-825.09 356.27,-832.02 362.34,-835.51"/>
</g>
<!-- 94075681843264 -->
<g id="node7" class="node">
<title>94075681843264</title>
<polygon fill="#506266" stroke="black" points="291.5,-736 144.5,-736 144.5,-698 291.5,-698 291.5,-736"/>
<text text-anchor="middle" x="218" y="-720.8" font-family="Times,serif" font-size="14.00">APPLY</text>
<text text-anchor="middle" x="218" y="-705.8" font-family="Times,serif" font-size="14.00">Int&#45;&gt;Int&#45;&gt;Int&#45;&gt;Int</text>
</g>
<!-- 94075681845184&#45;&gt;94075681843264 -->
<g id="edge4" class="edge">
<title>94075681845184&#45;&gt;94075681843264</title>
<path fill="none" stroke="black" d="M265.16,-779.46C257.18,-769.06 247.01,-755.81 238.16,-744.27"/>
<polygon fill="black" stroke="black" points="240.86,-742.05 232,-736.24 235.31,-746.31 240.86,-742.05"/>
</g>
<!-- 94075681844992 -->
<g id="node10" class="node">
<title>94075681844992</title>
<polygon fill="#506266" stroke="black" points="372.5,-736 309.5,-736 309.5,-698 372.5,-698 372.5,-736"/>
<text text-anchor="middle" x="341" y="-720.8" font-family="Times,serif" font-size="14.00">APPLY</text>
<text text-anchor="middle" x="341" y="-705.8" font-family="Times,serif" font-size="14.00">Int</text>
</g>
<!-- 94075681845184&#45;&gt;94075681844992 -->
<g id="edge21" class="edge">
<title>94075681845184&#45;&gt;94075681844992</title>
<path fill="none" stroke="black" d="M293.07,-779.46C301.18,-769.06 311.51,-755.81 320.51,-744.27"/>
<polygon fill="black" stroke="black" points="323.38,-746.28 326.77,-736.24 317.86,-741.98 323.38,-746.28"/>
</g>
<!-- 94075681843136 -->
<g id="node8" class="node">
<title>94075681843136</title>
<polygon fill="#a3ab78" stroke="black" points="184,-662 0,-662 0,-594 184,-594 184,-662"/>
<text text-anchor="middle" x="92" y="-646.8" font-family="Times,serif" font-size="14.00">FUNCTION</text>
<text text-anchor="middle" x="92" y="-631.8" font-family="Times,serif" font-size="14.00">workWithFour</text>
<text text-anchor="middle" x="92" y="-616.8" font-family="Times,serif" font-size="14.00">0x558fb39927c0</text>
<text text-anchor="middle" x="92" y="-601.8" font-family="Times,serif" font-size="14.00">Int&#45;&gt;Int&#45;&gt;Int&#45;&gt;Int&#45;&gt;Int</text>
</g>
<!-- 94075681843264&#45;&gt;94075681843136 -->
<g id="edge2" class="edge">
<title>94075681843264&#45;&gt;94075681843136</title>
<path fill="none" stroke="black" d="M191.89,-697.97C179.24,-689.24 163.53,-678.39 148.34,-667.9"/>
<polygon fill="black" stroke="black" points="150.19,-664.93 139.97,-662.12 146.21,-670.69 150.19,-664.93"/>
</g>
<!-- 94075681843168 -->
<g id="node9" class="node">
<title>94075681843168</title>
<polygon fill="#c26d97" stroke="black" points="256,-654.5 202,-654.5 202,-601.5 256,-601.5 256,-654.5"/>
<text text-anchor="middle" x="229" y="-639.3" font-family="Times,serif" font-size="14.00">VAR</text>
<text text-anchor="middle" x="229" y="-624.3" font-family="Times,serif" font-size="14.00">a</text>
<text text-anchor="middle" x="229" y="-609.3" font-family="Times,serif" font-size="14.00">Int</text>
</g>
<!-- 94075681843264&#45;&gt;94075681843168 -->
<g id="edge3" class="edge">
<title>94075681843264&#45;&gt;94075681843168</title>
<path fill="none" stroke="black" d="M220.28,-697.97C221.49,-688.37 223.03,-676.21 224.48,-664.78"/>
<polygon fill="black" stroke="black" points="227.98,-664.95 225.76,-654.59 221.04,-664.07 227.98,-664.95"/>
</g>
<!-- 94075681843616 -->
<g id="node11" class="node">
<title>94075681843616</title>
<polygon fill="#506266" stroke="black" points="368,-647 294,-647 294,-609 368,-609 368,-647"/>
<text text-anchor="middle" x="331" y="-631.8" font-family="Times,serif" font-size="14.00">APPLY</text>
<text text-anchor="middle" x="331" y="-616.8" font-family="Times,serif" font-size="14.00">Int&#45;&gt;Int</text>
</g>
<!-- 94075681844992&#45;&gt;94075681843616 -->
<g id="edge7" class="edge">
<title>94075681844992&#45;&gt;94075681843616</title>
<path fill="none" stroke="black" d="M338.93,-697.97C337.57,-686.19 335.78,-670.56 334.24,-657.16"/>
<polygon fill="black" stroke="black" points="337.69,-656.54 333.07,-647 330.73,-657.34 337.69,-656.54"/>
</g>
<!-- 94075681844800 -->
<g id="node14" class="node">
<title>94075681844800</title>
<polygon fill="#506266" stroke="black" points="449.5,-647 386.5,-647 386.5,-609 449.5,-609 449.5,-647"/>
<text text-anchor="middle" x="418" y="-631.8" font-family="Times,serif" font-size="14.00">APPLY</text>
<text text-anchor="middle" x="418" y="-616.8" font-family="Times,serif" font-size="14.00">Int</text>
</g>
<!-- 94075681844992&#45;&gt;94075681844800 -->
<g id="edge20" class="edge">
<title>94075681844992&#45;&gt;94075681844800</title>
<path fill="none" stroke="black" d="M356.95,-697.97C368,-685.49 382.87,-668.69 395.17,-654.79"/>
<polygon fill="black" stroke="black" points="398.06,-656.81 402.07,-647 392.82,-652.17 398.06,-656.81"/>
</g>
<!-- 94075681843648 -->
<g id="node12" class="node">
<title>94075681843648</title>
<polygon fill="#818274" stroke="black" points="286.5,-558 149.5,-558 149.5,-490 286.5,-490 286.5,-558"/>
<text text-anchor="middle" x="218" y="-542.8" font-family="Times,serif" font-size="14.00">OPERATOR</text>
<text text-anchor="middle" x="218" y="-527.8" font-family="Times,serif" font-size="14.00">+</text>
<text text-anchor="middle" x="218" y="-512.8" font-family="Times,serif" font-size="14.00">0x558fb39929c0</text>
<text text-anchor="middle" x="218" y="-497.8" font-family="Times,serif" font-size="14.00">Int&#45;&gt;Int&#45;&gt;Int</text>
</g>
<!-- 94075681843616&#45;&gt;94075681843648 -->
<g id="edge5" class="edge">
<title>94075681843616&#45;&gt;94075681843648</title>
<path fill="none" stroke="black" d="M311.06,-609C297.54,-596.8 279.13,-580.18 262.26,-564.95"/>
<polygon fill="black" stroke="black" points="264.4,-562.17 254.63,-558.07 259.71,-567.37 264.4,-562.17"/>
</g>
<!-- 94075681843520 -->
<g id="node13" class="node">
<title>94075681843520</title>
<polygon fill="#c26d97" stroke="black" points="359,-550.5 305,-550.5 305,-497.5 359,-497.5 359,-550.5"/>
<text text-anchor="middle" x="332" y="-535.3" font-family="Times,serif" font-size="14.00">VAR</text>
<text text-anchor="middle" x="332" y="-520.3" font-family="Times,serif" font-size="14.00">a</text>
<text text-anchor="middle" x="332" y="-505.3" font-family="Times,serif" font-size="14.00">Int</text>
</g>
<!-- 94075681843616&#45;&gt;94075681843520 -->
<g id="edge6" class="edge">
<title>94075681843616&#45;&gt;94075681843520</title>
<path fill="none" stroke="black" d="M331.18,-608.76C331.31,-595.51 331.49,-577.13 331.65,-560.97"/>
<polygon fill="black" stroke="black" points="335.15,-560.77 331.75,-550.74 328.15,-560.71 335.15,-560.77"/>
</g>
<!-- 94075681844576 -->
<g id="node15" class="node">
<title>94075681844576</title>
<polygon fill="#506266" stroke="black" points="453,-543 379,-543 379,-505 453,-505 453,-543"/>
<text text-anchor="middle" x="416" y="-527.8" font-family="Times,serif" font-size="14.00">APPLY</text>
<text text-anchor="middle" x="416" y="-512.8" font-family="Times,serif" font-size="14.00">Int&#45;&gt;Int</text>
</g>
<!-- 94075681844800&#45;&gt;94075681844576 -->
<g id="edge18" class="edge">
<title>94075681844800&#45;&gt;94075681844576</title>
<path fill="none" stroke="black" d="M417.64,-608.76C417.34,-593.32 416.9,-570.91 416.55,-553.16"/>
<polygon fill="black" stroke="black" points="420.05,-553.01 416.35,-543.08 413.05,-553.14 420.05,-553.01"/>
</g>
<!-- 94075681844672 -->
<g id="node26" class="node">
<title>94075681844672</title>
<polygon fill="#c26d97" stroke="black" points="525,-550.5 471,-550.5 471,-497.5 525,-497.5 525,-550.5"/>
<text text-anchor="middle" x="498" y="-535.3" font-family="Times,serif" font-size="14.00">VAR</text>
<text text-anchor="middle" x="498" y="-520.3" font-family="Times,serif" font-size="14.00">a</text>
<text text-anchor="middle" x="498" y="-505.3" font-family="Times,serif" font-size="14.00">Int</text>
</g>
<!-- 94075681844800&#45;&gt;94075681844672 -->
<g id="edge19" class="edge">
<title>94075681844800&#45;&gt;94075681844672</title>
<path fill="none" stroke="black" d="M432.3,-608.76C443.19,-594.88 458.49,-575.37 471.59,-558.67"/>
<polygon fill="black" stroke="black" points="474.39,-560.77 477.81,-550.74 468.89,-556.45 474.39,-560.77"/>
</g>
<!-- 94075681844608 -->
<g id="node16" class="node">
<title>94075681844608</title>
<polygon fill="#818274" stroke="black" points="425,-454 287,-454 287,-386 425,-386 425,-454"/>
<text text-anchor="middle" x="356" y="-438.8" font-family="Times,serif" font-size="14.00">OPERATOR</text>
<text text-anchor="middle" x="356" y="-423.8" font-family="Times,serif" font-size="14.00">/</text>
<text text-anchor="middle" x="356" y="-408.8" font-family="Times,serif" font-size="14.00">0x558fb3992d80</text>
<text text-anchor="middle" x="356" y="-393.8" font-family="Times,serif" font-size="14.00">Int&#45;&gt;Int&#45;&gt;Int</text>
</g>
<!-- 94075681844576&#45;&gt;94075681844608 -->
<g id="edge8" class="edge">
<title>94075681844576&#45;&gt;94075681844608</title>
<path fill="none" stroke="black" d="M405.27,-504.76C398.46,-493.19 389.35,-477.7 380.82,-463.19"/>
<polygon fill="black" stroke="black" points="383.69,-461.18 375.61,-454.33 377.66,-464.73 383.69,-461.18"/>
</g>
<!-- 94075681844480 -->
<g id="node17" class="node">
<title>94075681844480</title>
<polygon fill="#506266" stroke="black" points="506.5,-439 443.5,-439 443.5,-401 506.5,-401 506.5,-439"/>
<text text-anchor="middle" x="475" y="-423.8" font-family="Times,serif" font-size="14.00">APPLY</text>
<text text-anchor="middle" x="475" y="-408.8" font-family="Times,serif" font-size="14.00">Int</text>
</g>
<!-- 94075681844576&#45;&gt;94075681844480 -->
<g id="edge17" class="edge">
<title>94075681844576&#45;&gt;94075681844480</title>
<path fill="none" stroke="black" d="M426.55,-504.76C435.69,-488.95 449.05,-465.86 459.43,-447.92"/>
<polygon fill="black" stroke="black" points="462.57,-449.49 464.54,-439.08 456.51,-445.98 462.57,-449.49"/>
</g>
<!-- 94075681844352 -->
<g id="node18" class="node">
<title>94075681844352</title>
<polygon fill="#506266" stroke="black" points="471,-342.5 397,-342.5 397,-304.5 471,-304.5 471,-342.5"/>
<text text-anchor="middle" x="434" y="-327.3" font-family="Times,serif" font-size="14.00">APPLY</text>
<text text-anchor="middle" x="434" y="-312.3" font-family="Times,serif" font-size="14.00">Int&#45;&gt;Int</text>
</g>
<!-- 94075681844480&#45;&gt;94075681844352 -->
<g id="edge15" class="edge">
<title>94075681844480&#45;&gt;94075681844352</title>
<path fill="none" stroke="black" d="M467.09,-400.78C461.08,-386.92 452.71,-367.62 445.89,-351.91"/>
<polygon fill="black" stroke="black" points="449.07,-350.45 441.88,-342.66 442.65,-353.23 449.07,-350.45"/>
</g>
<!-- 94075681844160 -->
<g id="node25" class="node">
<title>94075681844160</title>
<polygon fill="#c26d97" stroke="black" points="543,-350 489,-350 489,-297 543,-297 543,-350"/>
<text text-anchor="middle" x="516" y="-334.8" font-family="Times,serif" font-size="14.00">VAR</text>
<text text-anchor="middle" x="516" y="-319.8" font-family="Times,serif" font-size="14.00">d</text>
<text text-anchor="middle" x="516" y="-304.8" font-family="Times,serif" font-size="14.00">Int</text>
</g>
<!-- 94075681844480&#45;&gt;94075681844160 -->
<g id="edge16" class="edge">
<title>94075681844480&#45;&gt;94075681844160</title>
<path fill="none" stroke="black" d="M482.91,-400.78C487.97,-389.1 494.72,-373.56 500.79,-359.55"/>
<polygon fill="black" stroke="black" points="504.09,-360.73 504.86,-350.17 497.67,-357.95 504.09,-360.73"/>
</g>
<!-- 94075681844096 -->
<g id="node19" class="node">
<title>94075681844096</title>
<polygon fill="#818274" stroke="black" points="444,-261 306,-261 306,-193 444,-193 444,-261"/>
<text text-anchor="middle" x="375" y="-245.8" font-family="Times,serif" font-size="14.00">OPERATOR</text>
<text text-anchor="middle" x="375" y="-230.8" font-family="Times,serif" font-size="14.00">&#45;</text>
<text text-anchor="middle" x="375" y="-215.8" font-family="Times,serif" font-size="14.00">0x558fb3992b80</text>
<text text-anchor="middle" x="375" y="-200.8" font-family="Times,serif" font-size="14.00">Int&#45;&gt;Int&#45;&gt;Int</text>
</g>
<!-- 94075681844352&#45;&gt;94075681844096 -->
<g id="edge9" class="edge">
<title>94075681844352&#45;&gt;94075681844096</title>
<path fill="none" stroke="black" d="M422.62,-304.28C416.48,-294.44 408.62,-281.86 401.07,-269.76"/>
<polygon fill="black" stroke="black" points="403.92,-267.71 395.66,-261.08 397.98,-271.42 403.92,-267.71"/>
</g>
<!-- 94075681844128 -->
<g id="node20" class="node">
<title>94075681844128</title>
<polygon fill="#506266" stroke="black" points="525.5,-246 462.5,-246 462.5,-208 525.5,-208 525.5,-246"/>
<text text-anchor="middle" x="494" y="-230.8" font-family="Times,serif" font-size="14.00">APPLY</text>
<text text-anchor="middle" x="494" y="-215.8" font-family="Times,serif" font-size="14.00">Int</text>
</g>
<!-- 94075681844352&#45;&gt;94075681844128 -->
<g id="edge14" class="edge">
<title>94075681844352&#45;&gt;94075681844128</title>
<path fill="none" stroke="black" d="M445.57,-304.28C454.45,-290.29 466.85,-270.76 476.88,-254.96"/>
<polygon fill="black" stroke="black" points="480.06,-256.48 482.47,-246.16 474.15,-252.73 480.06,-256.48"/>
</g>
<!-- 94075681843872 -->
<g id="node21" class="node">
<title>94075681843872</title>
<polygon fill="#506266" stroke="black" points="490,-149.5 416,-149.5 416,-111.5 490,-111.5 490,-149.5"/>
<text text-anchor="middle" x="453" y="-134.3" font-family="Times,serif" font-size="14.00">APPLY</text>
<text text-anchor="middle" x="453" y="-119.3" font-family="Times,serif" font-size="14.00">Int&#45;&gt;Int</text>
</g>
<!-- 94075681844128&#45;&gt;94075681843872 -->
<g id="edge12" class="edge">
<title>94075681844128&#45;&gt;94075681843872</title>
<path fill="none" stroke="black" d="M486.09,-207.78C480.08,-193.92 471.71,-174.62 464.89,-158.91"/>
<polygon fill="black" stroke="black" points="468.07,-157.45 460.88,-149.66 461.65,-160.23 468.07,-157.45"/>
</g>
<!-- 94075681843968 -->
<g id="node24" class="node">
<title>94075681843968</title>
<polygon fill="#c26d97" stroke="black" points="562,-157 508,-157 508,-104 562,-104 562,-157"/>
<text text-anchor="middle" x="535" y="-141.8" font-family="Times,serif" font-size="14.00">VAR</text>
<text text-anchor="middle" x="535" y="-126.8" font-family="Times,serif" font-size="14.00">c</text>
<text text-anchor="middle" x="535" y="-111.8" font-family="Times,serif" font-size="14.00">Int</text>
</g>
<!-- 94075681844128&#45;&gt;94075681843968 -->
<g id="edge13" class="edge">
<title>94075681844128&#45;&gt;94075681843968</title>
<path fill="none" stroke="black" d="M501.91,-207.78C506.97,-196.1 513.72,-180.56 519.79,-166.55"/>
<polygon fill="black" stroke="black" points="523.09,-167.73 523.86,-157.17 516.67,-164.95 523.09,-167.73"/>
</g>
<!-- 94075681843904 -->
<g id="node22" class="node">
<title>94075681843904</title>
<polygon fill="#818274" stroke="black" points="465,-68 329,-68 329,0 465,0 465,-68"/>
<text text-anchor="middle" x="397" y="-52.8" font-family="Times,serif" font-size="14.00">OPERATOR</text>
<text text-anchor="middle" x="397" y="-37.8" font-family="Times,serif" font-size="14.00">*</text>
<text text-anchor="middle" x="397" y="-22.8" font-family="Times,serif" font-size="14.00">0x558fb3992ac0</text>
<text text-anchor="middle" x="397" y="-7.8" font-family="Times,serif" font-size="14.00">Int&#45;&gt;Int&#45;&gt;Int</text>
</g>
<!-- 94075681843872&#45;&gt;94075681843904 -->
<g id="edge10" class="edge">
<title>94075681843872&#45;&gt;94075681843904</title>
<path fill="none" stroke="black" d="M442.2,-111.28C436.37,-101.44 428.92,-88.86 421.75,-76.76"/>
<polygon fill="black" stroke="black" points="424.71,-74.9 416.61,-68.08 418.69,-78.47 424.71,-74.9"/>
</g>
<!-- 94075681843776 -->
<g id="node23" class="node">
<title>94075681843776</title>
<polygon fill="#c26d97" stroke="black" points="537,-60.5 483,-60.5 483,-7.5 537,-7.5 537,-60.5"/>
<text text-anchor="middle" x="510" y="-45.3" font-family="Times,serif" font-size="14.00">VAR</text>
<text text-anchor="middle" x="510" y="-30.3" font-family="Times,serif" font-size="14.00">b</text>
<text text-anchor="middle" x="510" y="-15.3" font-family="Times,serif" font-size="14.00">Int</text>
</g>
<!-- 94075681843872&#45;&gt;94075681843776 -->
<g id="edge11" class="edge">
<title>94075681843872&#45;&gt;94075681843776</title>
<path fill="none" stroke="black" d="M463.99,-111.28C471.17,-99.38 480.77,-83.46 489.34,-69.25"/>
<polygon fill="black" stroke="black" points="492.35,-71.04 494.52,-60.67 486.36,-67.42 492.35,-71.04"/>
</g>
</g>
</svg>
