<?xml version="1.0" encoding="UTF-8" standalone="no"?>
<!DOCTYPE svg PUBLIC "-//W3C//DTD SVG 1.1//EN"
 "http://www.w3.org/Graphics/SVG/1.1/DTD/svg11.dtd">
<!-- Generated by graphviz version 2.43.0 (0)
 -->
<!-- Title: %3 Pages: 1 -->
<svg width="758pt" height="699pt"
 viewBox="0.00 0.00 757.50 699.00" xmlns="http://www.w3.org/2000/svg" xmlns:xlink="http://www.w3.org/1999/xlink">
<g id="graph0" class="graph" transform="scale(1 1) rotate(0) translate(4 695)">
<title>%3</title>
<polygon fill="white" stroke="transparent" points="-4,4 -4,-695 753.5,-695 753.5,4 -4,4"/>
<!-- 94894228422560 -->
<g id="node1" class="node">
<title>94894228422560</title>
<polygon fill="#a3ab78" stroke="black" points="475,-691 347,-691 347,-653 475,-653 475,-691"/>
<text text-anchor="middle" x="411" y="-675.8" font-family="Times,serif" font-size="14.00">IF_THEN_ELSE</text>
<text text-anchor="middle" x="411" y="-660.8" font-family="Times,serif" font-size="14.00">Int&#45;&gt;Int</text>
</g>
<!-- 94894228420672 -->
<g id="node2" class="node">
<title>94894228420672</title>
<polygon fill="#506266" stroke="black" points="308.5,-617 245.5,-617 245.5,-579 308.5,-579 308.5,-617"/>
<text text-anchor="middle" x="277" y="-601.8" font-family="Times,serif" font-size="14.00">APPLY</text>
<text text-anchor="middle" x="277" y="-586.8" font-family="Times,serif" font-size="14.00">Int</text>
</g>
<!-- 94894228422560&#45;&gt;94894228420672 -->
<g id="edge9" class="edge">
<title>94894228422560&#45;&gt;94894228420672</title>
<path fill="none" stroke="black" d="M377.19,-652.83C359.06,-643.09 336.61,-631.03 317.55,-620.79"/>
<polygon fill="black" stroke="black" points="318.97,-617.58 308.5,-615.93 315.65,-623.74 318.97,-617.58"/>
</g>
<!-- 94894228421184 -->
<g id="node11" class="node">
<title>94894228421184</title>
<polygon fill="#506266" stroke="black" points="442.5,-617 379.5,-617 379.5,-579 442.5,-579 442.5,-617"/>
<text text-anchor="middle" x="411" y="-601.8" font-family="Times,serif" font-size="14.00">APPLY</text>
<text text-anchor="middle" x="411" y="-586.8" font-family="Times,serif" font-size="14.00">Int</text>
</g>
<!-- 94894228422560&#45;&gt;94894228421184 -->
<g id="edge10" class="edge">
<title>94894228422560&#45;&gt;94894228421184</title>
<path fill="none" stroke="black" d="M411,-652.83C411,-645.13 411,-635.97 411,-627.42"/>
<polygon fill="black" stroke="black" points="414.5,-627.41 411,-617.41 407.5,-627.41 414.5,-627.41"/>
</g>
<!-- 94894228422400 -->
<g id="node12" class="node">
<title>94894228422400</title>
<polygon fill="#506266" stroke="black" points="574.5,-617 511.5,-617 511.5,-579 574.5,-579 574.5,-617"/>
<text text-anchor="middle" x="543" y="-601.8" font-family="Times,serif" font-size="14.00">APPLY</text>
<text text-anchor="middle" x="543" y="-586.8" font-family="Times,serif" font-size="14.00">Int</text>
</g>
<!-- 94894228422560&#45;&gt;94894228422400 -->
<g id="edge11" class="edge">
<title>94894228422560&#45;&gt;94894228422400</title>
<path fill="none" stroke="black" d="M444.31,-652.83C461.9,-643.24 483.63,-631.38 502.23,-621.24"/>
<polygon fill="black" stroke="black" points="503.96,-624.28 511.07,-616.42 500.61,-618.13 503.96,-624.28"/>
</g>
<!-- 94894228420544 -->
<g id="node3" class="node">
<title>94894228420544</title>
<polygon fill="#506266" stroke="black" points="225,-535.5 151,-535.5 151,-497.5 225,-497.5 225,-535.5"/>
<text text-anchor="middle" x="188" y="-520.3" font-family="Times,serif" font-size="14.00">APPLY</text>
<text text-anchor="middle" x="188" y="-505.3" font-family="Times,serif" font-size="14.00">Int&#45;&gt;Int</text>
</g>
<!-- 94894228420672&#45;&gt;94894228420544 -->
<g id="edge7" class="edge">
<title>94894228420672&#45;&gt;94894228420544</title>
<path fill="none" stroke="black" d="M256.8,-578.96C244.71,-568.16 229.17,-554.28 215.92,-542.44"/>
<polygon fill="black" stroke="black" points="218.21,-539.8 208.42,-535.74 213.55,-545.02 218.21,-539.8"/>
</g>
<!-- 94894228420352 -->
<g id="node10" class="node">
<title>94894228420352</title>
<polygon fill="#bde038" stroke="black" points="307.5,-543 246.5,-543 246.5,-490 307.5,-490 307.5,-543"/>
<text text-anchor="middle" x="277" y="-527.8" font-family="Times,serif" font-size="14.00">ELEM</text>
<text text-anchor="middle" x="277" y="-512.8" font-family="Times,serif" font-size="14.00">13</text>
<text text-anchor="middle" x="277" y="-497.8" font-family="Times,serif" font-size="14.00">Int</text>
</g>
<!-- 94894228420672&#45;&gt;94894228420352 -->
<g id="edge8" class="edge">
<title>94894228420672&#45;&gt;94894228420352</title>
<path fill="none" stroke="black" d="M277,-578.96C277,-571.32 277,-562.14 277,-553.23"/>
<polygon fill="black" stroke="black" points="280.5,-553 277,-543 273.5,-553 280.5,-553"/>
</g>
<!-- 94894228420288 -->
<g id="node4" class="node">
<title>94894228420288</title>
<polygon fill="#818274" stroke="black" points="138,-454 0,-454 0,-386 138,-386 138,-454"/>
<text text-anchor="middle" x="69" y="-438.8" font-family="Times,serif" font-size="14.00">OPERATOR</text>
<text text-anchor="middle" x="69" y="-423.8" font-family="Times,serif" font-size="14.00">==</text>
<text text-anchor="middle" x="69" y="-408.8" font-family="Times,serif" font-size="14.00">0x564e48c6b6c0</text>
<text text-anchor="middle" x="69" y="-393.8" font-family="Times,serif" font-size="14.00">Int&#45;&gt;Int&#45;&gt;Int</text>
</g>
<!-- 94894228420544&#45;&gt;94894228420288 -->
<g id="edge1" class="edge">
<title>94894228420544&#45;&gt;94894228420288</title>
<path fill="none" stroke="black" d="M165.06,-497.28C151.94,-486.87 134.96,-473.38 118.93,-460.65"/>
<polygon fill="black" stroke="black" points="120.67,-457.56 110.66,-454.08 116.32,-463.04 120.67,-457.56"/>
</g>
<!-- 94894228420320 -->
<g id="node5" class="node">
<title>94894228420320</title>
<polygon fill="#506266" stroke="black" points="219.5,-439 156.5,-439 156.5,-401 219.5,-401 219.5,-439"/>
<text text-anchor="middle" x="188" y="-423.8" font-family="Times,serif" font-size="14.00">APPLY</text>
<text text-anchor="middle" x="188" y="-408.8" font-family="Times,serif" font-size="14.00">Int</text>
</g>
<!-- 94894228420544&#45;&gt;94894228420320 -->
<g id="edge6" class="edge">
<title>94894228420544&#45;&gt;94894228420320</title>
<path fill="none" stroke="black" d="M188,-497.28C188,-483.68 188,-464.85 188,-449.3"/>
<polygon fill="black" stroke="black" points="191.5,-449.16 188,-439.16 184.5,-449.16 191.5,-449.16"/>
</g>
<!-- 94894228420064 -->
<g id="node6" class="node">
<title>94894228420064</title>
<polygon fill="#506266" stroke="black" points="182,-342.5 108,-342.5 108,-304.5 182,-304.5 182,-342.5"/>
<text text-anchor="middle" x="145" y="-327.3" font-family="Times,serif" font-size="14.00">APPLY</text>
<text text-anchor="middle" x="145" y="-312.3" font-family="Times,serif" font-size="14.00">Int&#45;&gt;Int</text>
</g>
<!-- 94894228420320&#45;&gt;94894228420064 -->
<g id="edge4" class="edge">
<title>94894228420320&#45;&gt;94894228420064</title>
<path fill="none" stroke="black" d="M179.71,-400.78C173.4,-386.92 164.62,-367.62 157.47,-351.91"/>
<polygon fill="black" stroke="black" points="160.59,-350.32 153.27,-342.66 154.22,-353.22 160.59,-350.32"/>
</g>
<!-- 94894228420160 -->
<g id="node9" class="node">
<title>94894228420160</title>
<polygon fill="#bde038" stroke="black" points="261.5,-350 200.5,-350 200.5,-297 261.5,-297 261.5,-350"/>
<text text-anchor="middle" x="231" y="-334.8" font-family="Times,serif" font-size="14.00">ELEM</text>
<text text-anchor="middle" x="231" y="-319.8" font-family="Times,serif" font-size="14.00">9</text>
<text text-anchor="middle" x="231" y="-304.8" font-family="Times,serif" font-size="14.00">Int</text>
</g>
<!-- 94894228420320&#45;&gt;94894228420160 -->
<g id="edge5" class="edge">
<title>94894228420320&#45;&gt;94894228420160</title>
<path fill="none" stroke="black" d="M196.29,-400.78C201.6,-389.1 208.68,-373.56 215.05,-359.55"/>
<polygon fill="black" stroke="black" points="218.37,-360.72 219.32,-350.17 211.99,-357.82 218.37,-360.72"/>
</g>
<!-- 94894228420096 -->
<g id="node7" class="node">
<title>94894228420096</title>
<polygon fill="#818274" stroke="black" points="156,-261 16,-261 16,-193 156,-193 156,-261"/>
<text text-anchor="middle" x="86" y="-245.8" font-family="Times,serif" font-size="14.00">OPERATOR</text>
<text text-anchor="middle" x="86" y="-230.8" font-family="Times,serif" font-size="14.00">+</text>
<text text-anchor="middle" x="86" y="-215.8" font-family="Times,serif" font-size="14.00">0x564e48c6b600</text>
<text text-anchor="middle" x="86" y="-200.8" font-family="Times,serif" font-size="14.00">Int&#45;&gt;Int&#45;&gt;Int</text>
</g>
<!-- 94894228420064&#45;&gt;94894228420096 -->
<g id="edge2" class="edge">
<title>94894228420064&#45;&gt;94894228420096</title>
<path fill="none" stroke="black" d="M133.62,-304.28C127.48,-294.44 119.62,-281.86 112.07,-269.76"/>
<polygon fill="black" stroke="black" points="114.92,-267.71 106.66,-261.08 108.98,-271.42 114.92,-267.71"/>
</g>
<!-- 94894228419968 -->
<g id="node8" class="node">
<title>94894228419968</title>
<polygon fill="#bde038" stroke="black" points="235.5,-253.5 174.5,-253.5 174.5,-200.5 235.5,-200.5 235.5,-253.5"/>
<text text-anchor="middle" x="205" y="-238.3" font-family="Times,serif" font-size="14.00">ELEM</text>
<text text-anchor="middle" x="205" y="-223.3" font-family="Times,serif" font-size="14.00">4</text>
<text text-anchor="middle" x="205" y="-208.3" font-family="Times,serif" font-size="14.00">Int</text>
</g>
<!-- 94894228420064&#45;&gt;94894228419968 -->
<g id="edge3" class="edge">
<title>94894228420064&#45;&gt;94894228419968</title>
<path fill="none" stroke="black" d="M156.57,-304.28C164.13,-292.38 174.23,-276.46 183.26,-262.25"/>
<polygon fill="black" stroke="black" points="186.3,-263.98 188.7,-253.67 180.39,-260.23 186.3,-263.98"/>
</g>
<!-- 94894228420928 -->
<g id="node13" class="node">
<title>94894228420928</title>
<polygon fill="#506266" stroke="black" points="405,-535.5 331,-535.5 331,-497.5 405,-497.5 405,-535.5"/>
<text text-anchor="middle" x="368" y="-520.3" font-family="Times,serif" font-size="14.00">APPLY</text>
<text text-anchor="middle" x="368" y="-505.3" font-family="Times,serif" font-size="14.00">Int&#45;&gt;Int</text>
</g>
<!-- 94894228421184&#45;&gt;94894228420928 -->
<g id="edge14" class="edge">
<title>94894228421184&#45;&gt;94894228420928</title>
<path fill="none" stroke="black" d="M401.24,-578.96C395.78,-568.87 388.87,-556.08 382.76,-544.79"/>
<polygon fill="black" stroke="black" points="385.7,-542.87 377.87,-535.74 379.55,-546.2 385.7,-542.87"/>
</g>
<!-- 94894228421024 -->
<g id="node16" class="node">
<title>94894228421024</title>
<polygon fill="#bde038" stroke="black" points="484.5,-543 423.5,-543 423.5,-490 484.5,-490 484.5,-543"/>
<text text-anchor="middle" x="454" y="-527.8" font-family="Times,serif" font-size="14.00">ELEM</text>
<text text-anchor="middle" x="454" y="-512.8" font-family="Times,serif" font-size="14.00">2</text>
<text text-anchor="middle" x="454" y="-497.8" font-family="Times,serif" font-size="14.00">Int</text>
</g>
<!-- 94894228421184&#45;&gt;94894228421024 -->
<g id="edge15" class="edge">
<title>94894228421184&#45;&gt;94894228421024</title>
<path fill="none" stroke="black" d="M420.76,-578.96C425.07,-570.99 430.29,-561.34 435.3,-552.07"/>
<polygon fill="black" stroke="black" points="438.53,-553.46 440.21,-543 432.37,-550.13 438.53,-553.46"/>
</g>
<!-- 94894228426608 -->
<g id="node17" class="node">
<title>94894228426608</title>
<polygon fill="#506266" stroke="black" points="580,-535.5 506,-535.5 506,-497.5 580,-497.5 580,-535.5"/>
<text text-anchor="middle" x="543" y="-520.3" font-family="Times,serif" font-size="14.00">APPLY</text>
<text text-anchor="middle" x="543" y="-505.3" font-family="Times,serif" font-size="14.00">Int&#45;&gt;Int</text>
</g>
<!-- 94894228422400&#45;&gt;94894228426608 -->
<g id="edge26" class="edge">
<title>94894228422400&#45;&gt;94894228426608</title>
<path fill="none" stroke="black" d="M543,-578.96C543,-569.17 543,-556.85 543,-545.81"/>
<polygon fill="black" stroke="black" points="546.5,-545.74 543,-535.74 539.5,-545.74 546.5,-545.74"/>
</g>
<!-- 94894228426480 -->
<g id="node28" class="node">
<title>94894228426480</title>
<polygon fill="#bde038" stroke="black" points="659.5,-543 598.5,-543 598.5,-490 659.5,-490 659.5,-543"/>
<text text-anchor="middle" x="629" y="-527.8" font-family="Times,serif" font-size="14.00">ELEM</text>
<text text-anchor="middle" x="629" y="-512.8" font-family="Times,serif" font-size="14.00">1</text>
<text text-anchor="middle" x="629" y="-497.8" font-family="Times,serif" font-size="14.00">Int</text>
</g>
<!-- 94894228422400&#45;&gt;94894228426480 -->
<g id="edge27" class="edge">
<title>94894228422400&#45;&gt;94894228426480</title>
<path fill="none" stroke="black" d="M562.51,-578.96C571.77,-570.41 583.11,-559.92 593.79,-550.05"/>
<polygon fill="black" stroke="black" points="596.44,-552.36 601.41,-543 591.69,-547.22 596.44,-552.36"/>
</g>
<!-- 94894228420960 -->
<g id="node14" class="node">
<title>94894228420960</title>
<polygon fill="#818274" stroke="black" points="378,-454 238,-454 238,-386 378,-386 378,-454"/>
<text text-anchor="middle" x="308" y="-438.8" font-family="Times,serif" font-size="14.00">OPERATOR</text>
<text text-anchor="middle" x="308" y="-423.8" font-family="Times,serif" font-size="14.00">/</text>
<text text-anchor="middle" x="308" y="-408.8" font-family="Times,serif" font-size="14.00">0x564e48c6b960</text>
<text text-anchor="middle" x="308" y="-393.8" font-family="Times,serif" font-size="14.00">Int&#45;&gt;Int&#45;&gt;Int</text>
</g>
<!-- 94894228420928&#45;&gt;94894228420960 -->
<g id="edge12" class="edge">
<title>94894228420928&#45;&gt;94894228420960</title>
<path fill="none" stroke="black" d="M356.43,-497.28C350.18,-487.44 342.19,-474.86 334.51,-462.76"/>
<polygon fill="black" stroke="black" points="337.32,-460.65 329.01,-454.08 331.41,-464.4 337.32,-460.65"/>
</g>
<!-- 94894228420832 -->
<g id="node15" class="node">
<title>94894228420832</title>
<polygon fill="#bde038" stroke="black" points="457.5,-446.5 396.5,-446.5 396.5,-393.5 457.5,-393.5 457.5,-446.5"/>
<text text-anchor="middle" x="427" y="-431.3" font-family="Times,serif" font-size="14.00">ELEM</text>
<text text-anchor="middle" x="427" y="-416.3" font-family="Times,serif" font-size="14.00">8</text>
<text text-anchor="middle" x="427" y="-401.3" font-family="Times,serif" font-size="14.00">Int</text>
</g>
<!-- 94894228420928&#45;&gt;94894228420832 -->
<g id="edge13" class="edge">
<title>94894228420928&#45;&gt;94894228420832</title>
<path fill="none" stroke="black" d="M379.38,-497.28C386.81,-485.38 396.74,-469.46 405.62,-455.25"/>
<polygon fill="black" stroke="black" points="408.65,-457 410.98,-446.67 402.71,-453.3 408.65,-457"/>
</g>
<!-- 94894228426576 -->
<g id="node18" class="node">
<title>94894228426576</title>
<polygon fill="#818274" stroke="black" points="610,-454 476,-454 476,-386 610,-386 610,-454"/>
<text text-anchor="middle" x="543" y="-438.8" font-family="Times,serif" font-size="14.00">OPERATOR</text>
<text text-anchor="middle" x="543" y="-423.8" font-family="Times,serif" font-size="14.00">+</text>
<text text-anchor="middle" x="543" y="-408.8" font-family="Times,serif" font-size="14.00">0x564e48c6cf50</text>
<text text-anchor="middle" x="543" y="-393.8" font-family="Times,serif" font-size="14.00">Int&#45;&gt;Int&#45;&gt;Int</text>
</g>
<!-- 94894228426608&#45;&gt;94894228426576 -->
<g id="edge16" class="edge">
<title>94894228426608&#45;&gt;94894228426576</title>
<path fill="none" stroke="black" d="M543,-497.28C543,-487.82 543,-475.83 543,-464.17"/>
<polygon fill="black" stroke="black" points="546.5,-464.08 543,-454.08 539.5,-464.08 546.5,-464.08"/>
</g>
<!-- 94894228422208 -->
<g id="node19" class="node">
<title>94894228422208</title>
<polygon fill="#506266" stroke="black" points="691.5,-439 628.5,-439 628.5,-401 691.5,-401 691.5,-439"/>
<text text-anchor="middle" x="660" y="-423.8" font-family="Times,serif" font-size="14.00">APPLY</text>
<text text-anchor="middle" x="660" y="-408.8" font-family="Times,serif" font-size="14.00">Int</text>
</g>
<!-- 94894228426608&#45;&gt;94894228422208 -->
<g id="edge25" class="edge">
<title>94894228426608&#45;&gt;94894228422208</title>
<path fill="none" stroke="black" d="M565.56,-497.28C583.77,-482.57 609.56,-461.74 629.59,-445.56"/>
<polygon fill="black" stroke="black" points="631.93,-448.17 637.51,-439.16 627.53,-442.73 631.93,-448.17"/>
</g>
<!-- 94894228422080 -->
<g id="node20" class="node">
<title>94894228422080</title>
<polygon fill="#506266" stroke="black" points="654,-342.5 580,-342.5 580,-304.5 654,-304.5 654,-342.5"/>
<text text-anchor="middle" x="617" y="-327.3" font-family="Times,serif" font-size="14.00">APPLY</text>
<text text-anchor="middle" x="617" y="-312.3" font-family="Times,serif" font-size="14.00">Int&#45;&gt;Int</text>
</g>
<!-- 94894228422208&#45;&gt;94894228422080 -->
<g id="edge23" class="edge">
<title>94894228422208&#45;&gt;94894228422080</title>
<path fill="none" stroke="black" d="M651.71,-400.78C645.4,-386.92 636.62,-367.62 629.47,-351.91"/>
<polygon fill="black" stroke="black" points="632.59,-350.32 625.27,-342.66 626.22,-353.22 632.59,-350.32"/>
</g>
<!-- 94894228421888 -->
<g id="node27" class="node">
<title>94894228421888</title>
<polygon fill="#bde038" stroke="black" points="733.5,-350 672.5,-350 672.5,-297 733.5,-297 733.5,-350"/>
<text text-anchor="middle" x="703" y="-334.8" font-family="Times,serif" font-size="14.00">ELEM</text>
<text text-anchor="middle" x="703" y="-319.8" font-family="Times,serif" font-size="14.00">2</text>
<text text-anchor="middle" x="703" y="-304.8" font-family="Times,serif" font-size="14.00">Int</text>
</g>
<!-- 94894228422208&#45;&gt;94894228421888 -->
<g id="edge24" class="edge">
<title>94894228422208&#45;&gt;94894228421888</title>
<path fill="none" stroke="black" d="M668.29,-400.78C673.6,-389.1 680.68,-373.56 687.05,-359.55"/>
<polygon fill="black" stroke="black" points="690.37,-360.72 691.32,-350.17 683.99,-357.82 690.37,-360.72"/>
</g>
<!-- 94894228421824 -->
<g id="node21" class="node">
<title>94894228421824</title>
<polygon fill="#818274" stroke="black" points="626.5,-261 489.5,-261 489.5,-193 626.5,-193 626.5,-261"/>
<text text-anchor="middle" x="558" y="-245.8" font-family="Times,serif" font-size="14.00">OPERATOR</text>
<text text-anchor="middle" x="558" y="-230.8" font-family="Times,serif" font-size="14.00">&#45;</text>
<text text-anchor="middle" x="558" y="-215.8" font-family="Times,serif" font-size="14.00">0x564e48c6bcc0</text>
<text text-anchor="middle" x="558" y="-200.8" font-family="Times,serif" font-size="14.00">Int&#45;&gt;Int&#45;&gt;Int</text>
</g>
<!-- 94894228422080&#45;&gt;94894228421824 -->
<g id="edge17" class="edge">
<title>94894228422080&#45;&gt;94894228421824</title>
<path fill="none" stroke="black" d="M605.62,-304.28C599.48,-294.44 591.62,-281.86 584.07,-269.76"/>
<polygon fill="black" stroke="black" points="586.92,-267.71 578.66,-261.08 580.98,-271.42 586.92,-267.71"/>
</g>
<!-- 94894228421856 -->
<g id="node22" class="node">
<title>94894228421856</title>
<polygon fill="#506266" stroke="black" points="707.5,-246 644.5,-246 644.5,-208 707.5,-208 707.5,-246"/>
<text text-anchor="middle" x="676" y="-230.8" font-family="Times,serif" font-size="14.00">APPLY</text>
<text text-anchor="middle" x="676" y="-215.8" font-family="Times,serif" font-size="14.00">Int</text>
</g>
<!-- 94894228422080&#45;&gt;94894228421856 -->
<g id="edge22" class="edge">
<title>94894228422080&#45;&gt;94894228421856</title>
<path fill="none" stroke="black" d="M628.38,-304.28C637.11,-290.29 649.3,-270.76 659.17,-254.96"/>
<polygon fill="black" stroke="black" points="662.33,-256.5 664.66,-246.16 656.39,-252.79 662.33,-256.5"/>
</g>
<!-- 94894228421440 -->
<g id="node23" class="node">
<title>94894228421440</title>
<polygon fill="#506266" stroke="black" points="670,-149.5 596,-149.5 596,-111.5 670,-111.5 670,-149.5"/>
<text text-anchor="middle" x="633" y="-134.3" font-family="Times,serif" font-size="14.00">APPLY</text>
<text text-anchor="middle" x="633" y="-119.3" font-family="Times,serif" font-size="14.00">Int&#45;&gt;Int</text>
</g>
<!-- 94894228421856&#45;&gt;94894228421440 -->
<g id="edge20" class="edge">
<title>94894228421856&#45;&gt;94894228421440</title>
<path fill="none" stroke="black" d="M667.71,-207.78C661.4,-193.92 652.62,-174.62 645.47,-158.91"/>
<polygon fill="black" stroke="black" points="648.59,-157.32 641.27,-149.66 642.22,-160.22 648.59,-157.32"/>
</g>
<!-- 94894228421536 -->
<g id="node26" class="node">
<title>94894228421536</title>
<polygon fill="#bde038" stroke="black" points="749.5,-157 688.5,-157 688.5,-104 749.5,-104 749.5,-157"/>
<text text-anchor="middle" x="719" y="-141.8" font-family="Times,serif" font-size="14.00">ELEM</text>
<text text-anchor="middle" x="719" y="-126.8" font-family="Times,serif" font-size="14.00">6</text>
<text text-anchor="middle" x="719" y="-111.8" font-family="Times,serif" font-size="14.00">Int</text>
</g>
<!-- 94894228421856&#45;&gt;94894228421536 -->
<g id="edge21" class="edge">
<title>94894228421856&#45;&gt;94894228421536</title>
<path fill="none" stroke="black" d="M684.29,-207.78C689.6,-196.1 696.68,-180.56 703.05,-166.55"/>
<polygon fill="black" stroke="black" points="706.37,-167.72 707.32,-157.17 699.99,-164.82 706.37,-167.72"/>
</g>
<!-- 94894228421472 -->
<g id="node24" class="node">
<title>94894228421472</title>
<polygon fill="#818274" stroke="black" points="644,-68 504,-68 504,0 644,0 644,-68"/>
<text text-anchor="middle" x="574" y="-52.8" font-family="Times,serif" font-size="14.00">OPERATOR</text>
<text text-anchor="middle" x="574" y="-37.8" font-family="Times,serif" font-size="14.00">+</text>
<text text-anchor="middle" x="574" y="-22.8" font-family="Times,serif" font-size="14.00">0x564e48c6bb60</text>
<text text-anchor="middle" x="574" y="-7.8" font-family="Times,serif" font-size="14.00">Int&#45;&gt;Int&#45;&gt;Int</text>
</g>
<!-- 94894228421440&#45;&gt;94894228421472 -->
<g id="edge18" class="edge">
<title>94894228421440&#45;&gt;94894228421472</title>
<path fill="none" stroke="black" d="M621.62,-111.28C615.48,-101.44 607.62,-88.86 600.07,-76.76"/>
<polygon fill="black" stroke="black" points="602.92,-74.71 594.66,-68.08 596.98,-78.42 602.92,-74.71"/>
</g>
<!-- 94894228421344 -->
<g id="node25" class="node">
<title>94894228421344</title>
<polygon fill="#bde038" stroke="black" points="723.5,-60.5 662.5,-60.5 662.5,-7.5 723.5,-7.5 723.5,-60.5"/>
<text text-anchor="middle" x="693" y="-45.3" font-family="Times,serif" font-size="14.00">ELEM</text>
<text text-anchor="middle" x="693" y="-30.3" font-family="Times,serif" font-size="14.00">2</text>
<text text-anchor="middle" x="693" y="-15.3" font-family="Times,serif" font-size="14.00">Int</text>
</g>
<!-- 94894228421440&#45;&gt;94894228421344 -->
<g id="edge19" class="edge">
<title>94894228421440&#45;&gt;94894228421344</title>
<path fill="none" stroke="black" d="M644.57,-111.28C652.13,-99.38 662.23,-83.46 671.26,-69.25"/>
<polygon fill="black" stroke="black" points="674.3,-70.98 676.7,-60.67 668.39,-67.23 674.3,-70.98"/>
</g>
</g>
</svg>
