<?xml version="1.0" encoding="UTF-8" standalone="no"?>
<!DOCTYPE svg PUBLIC "-//W3C//DTD SVG 1.1//EN"
 "http://www.w3.org/Graphics/SVG/1.1/DTD/svg11.dtd">
<!-- Generated by graphviz version 2.43.0 (0)
 -->
<!-- Title: %3 Pages: 1 -->
<svg width="582pt" height="1189pt"
 viewBox="0.00 0.00 581.50 1189.00" xmlns="http://www.w3.org/2000/svg" xmlns:xlink="http://www.w3.org/1999/xlink">
<g id="graph0" class="graph" transform="scale(1 1) rotate(0) translate(4 1185)">
<title>%3</title>
<polygon fill="white" stroke="transparent" points="-4,4 -4,-1185 577.5,-1185 577.5,4 -4,4"/>
<!-- 94202443772640 -->
<g id="node1" class="node">
<title>94202443772640</title>
<polygon fill="#506266" stroke="black" points="393.5,-1181 330.5,-1181 330.5,-1143 393.5,-1143 393.5,-1181"/>
<text text-anchor="middle" x="362" y="-1165.8" font-family="Times,serif" font-size="14.00">APPLY</text>
<text text-anchor="middle" x="362" y="-1150.8" font-family="Times,serif" font-size="14.00">Int</text>
</g>
<!-- 94202443772512 -->
<g id="node2" class="node">
<title>94202443772512</title>
<polygon fill="#506266" stroke="black" points="356,-1099.5 282,-1099.5 282,-1061.5 356,-1061.5 356,-1099.5"/>
<text text-anchor="middle" x="319" y="-1084.3" font-family="Times,serif" font-size="14.00">APPLY</text>
<text text-anchor="middle" x="319" y="-1069.3" font-family="Times,serif" font-size="14.00">Int&#45;&gt;Int</text>
</g>
<!-- 94202443772640&#45;&gt;94202443772512 -->
<g id="edge27" class="edge">
<title>94202443772640&#45;&gt;94202443772512</title>
<path fill="none" stroke="black" d="M352.24,-1142.96C346.78,-1132.87 339.87,-1120.08 333.76,-1108.79"/>
<polygon fill="black" stroke="black" points="336.7,-1106.87 328.87,-1099.74 330.55,-1110.2 336.7,-1106.87"/>
</g>
<!-- 94202443772384 -->
<g id="node29" class="node">
<title>94202443772384</title>
<polygon fill="#bde038" stroke="black" points="435.5,-1107 374.5,-1107 374.5,-1054 435.5,-1054 435.5,-1107"/>
<text text-anchor="middle" x="405" y="-1091.8" font-family="Times,serif" font-size="14.00">ELEM</text>
<text text-anchor="middle" x="405" y="-1076.8" font-family="Times,serif" font-size="14.00">12</text>
<text text-anchor="middle" x="405" y="-1061.8" font-family="Times,serif" font-size="14.00">Int</text>
</g>
<!-- 94202443772640&#45;&gt;94202443772384 -->
<g id="edge28" class="edge">
<title>94202443772640&#45;&gt;94202443772384</title>
<path fill="none" stroke="black" d="M371.76,-1142.96C376.07,-1134.99 381.29,-1125.34 386.3,-1116.07"/>
<polygon fill="black" stroke="black" points="389.53,-1117.46 391.21,-1107 383.37,-1114.13 389.53,-1117.46"/>
</g>
<!-- 94202443772480 -->
<g id="node3" class="node">
<title>94202443772480</title>
<polygon fill="#818274" stroke="black" points="329.5,-1018 188.5,-1018 188.5,-950 329.5,-950 329.5,-1018"/>
<text text-anchor="middle" x="259" y="-1002.8" font-family="Times,serif" font-size="14.00">OPERATOR</text>
<text text-anchor="middle" x="259" y="-987.8" font-family="Times,serif" font-size="14.00">+</text>
<text text-anchor="middle" x="259" y="-972.8" font-family="Times,serif" font-size="14.00">0x55ad3732b240</text>
<text text-anchor="middle" x="259" y="-957.8" font-family="Times,serif" font-size="14.00">Int&#45;&gt;Int&#45;&gt;Int</text>
</g>
<!-- 94202443772512&#45;&gt;94202443772480 -->
<g id="edge1" class="edge">
<title>94202443772512&#45;&gt;94202443772480</title>
<path fill="none" stroke="black" d="M307.43,-1061.28C301.18,-1051.44 293.19,-1038.86 285.51,-1026.76"/>
<polygon fill="black" stroke="black" points="288.32,-1024.65 280.01,-1018.08 282.41,-1028.4 288.32,-1024.65"/>
</g>
<!-- 94202443772224 -->
<g id="node4" class="node">
<title>94202443772224</title>
<polygon fill="#506266" stroke="black" points="410.5,-1003 347.5,-1003 347.5,-965 410.5,-965 410.5,-1003"/>
<text text-anchor="middle" x="379" y="-987.8" font-family="Times,serif" font-size="14.00">APPLY</text>
<text text-anchor="middle" x="379" y="-972.8" font-family="Times,serif" font-size="14.00">Int</text>
</g>
<!-- 94202443772512&#45;&gt;94202443772224 -->
<g id="edge26" class="edge">
<title>94202443772512&#45;&gt;94202443772224</title>
<path fill="none" stroke="black" d="M330.57,-1061.28C339.45,-1047.29 351.85,-1027.76 361.88,-1011.96"/>
<polygon fill="black" stroke="black" points="365.06,-1013.48 367.47,-1003.16 359.15,-1009.73 365.06,-1013.48"/>
</g>
<!-- 94202443771776 -->
<g id="node5" class="node">
<title>94202443771776</title>
<polygon fill="#506266" stroke="black" points="373,-906.5 299,-906.5 299,-868.5 373,-868.5 373,-906.5"/>
<text text-anchor="middle" x="336" y="-891.3" font-family="Times,serif" font-size="14.00">APPLY</text>
<text text-anchor="middle" x="336" y="-876.3" font-family="Times,serif" font-size="14.00">Int&#45;&gt;Int</text>
</g>
<!-- 94202443772224&#45;&gt;94202443771776 -->
<g id="edge24" class="edge">
<title>94202443772224&#45;&gt;94202443771776</title>
<path fill="none" stroke="black" d="M370.71,-964.78C364.4,-950.92 355.62,-931.62 348.47,-915.91"/>
<polygon fill="black" stroke="black" points="351.59,-914.32 344.27,-906.66 345.22,-917.22 351.59,-914.32"/>
</g>
<!-- 94202443772128 -->
<g id="node28" class="node">
<title>94202443772128</title>
<polygon fill="#bde038" stroke="black" points="452.5,-914 391.5,-914 391.5,-861 452.5,-861 452.5,-914"/>
<text text-anchor="middle" x="422" y="-898.8" font-family="Times,serif" font-size="14.00">ELEM</text>
<text text-anchor="middle" x="422" y="-883.8" font-family="Times,serif" font-size="14.00">d</text>
<text text-anchor="middle" x="422" y="-868.8" font-family="Times,serif" font-size="14.00">Int</text>
</g>
<!-- 94202443772224&#45;&gt;94202443772128 -->
<g id="edge25" class="edge">
<title>94202443772224&#45;&gt;94202443772128</title>
<path fill="none" stroke="black" d="M387.29,-964.78C392.6,-953.1 399.68,-937.56 406.05,-923.55"/>
<polygon fill="black" stroke="black" points="409.37,-924.72 410.32,-914.17 402.99,-921.82 409.37,-924.72"/>
</g>
<!-- 94202443771840 -->
<g id="node6" class="node">
<title>94202443771840</title>
<polygon fill="#506266" stroke="black" points="339,-817.5 229,-817.5 229,-779.5 339,-779.5 339,-817.5"/>
<text text-anchor="middle" x="284" y="-802.3" font-family="Times,serif" font-size="14.00">APPLY</text>
<text text-anchor="middle" x="284" y="-787.3" font-family="Times,serif" font-size="14.00">Int&#45;&gt;Int&#45;&gt;Int</text>
</g>
<!-- 94202443771776&#45;&gt;94202443771840 -->
<g id="edge22" class="edge">
<title>94202443771776&#45;&gt;94202443771840</title>
<path fill="none" stroke="black" d="M325.23,-868.47C317.97,-856.34 308.28,-840.13 300.12,-826.47"/>
<polygon fill="black" stroke="black" points="302.9,-824.29 294.76,-817.5 296.89,-827.88 302.9,-824.29"/>
</g>
<!-- 94202443772000 -->
<g id="node27" class="node">
<title>94202443772000</title>
<polygon fill="#bde038" stroke="black" points="418.5,-825 357.5,-825 357.5,-772 418.5,-772 418.5,-825"/>
<text text-anchor="middle" x="388" y="-809.8" font-family="Times,serif" font-size="14.00">ELEM</text>
<text text-anchor="middle" x="388" y="-794.8" font-family="Times,serif" font-size="14.00">e</text>
<text text-anchor="middle" x="388" y="-779.8" font-family="Times,serif" font-size="14.00">Int</text>
</g>
<!-- 94202443771776&#45;&gt;94202443772000 -->
<g id="edge23" class="edge">
<title>94202443771776&#45;&gt;94202443772000</title>
<path fill="none" stroke="black" d="M346.77,-868.47C352.75,-858.48 360.38,-845.71 367.45,-833.89"/>
<polygon fill="black" stroke="black" points="370.58,-835.47 372.7,-825.09 364.57,-831.88 370.58,-835.47"/>
</g>
<!-- 94202443769920 -->
<g id="node7" class="node">
<title>94202443769920</title>
<polygon fill="#506266" stroke="black" points="296.5,-736 149.5,-736 149.5,-698 296.5,-698 296.5,-736"/>
<text text-anchor="middle" x="223" y="-720.8" font-family="Times,serif" font-size="14.00">APPLY</text>
<text text-anchor="middle" x="223" y="-705.8" font-family="Times,serif" font-size="14.00">Int&#45;&gt;Int&#45;&gt;Int&#45;&gt;Int</text>
</g>
<!-- 94202443771840&#45;&gt;94202443769920 -->
<g id="edge4" class="edge">
<title>94202443771840&#45;&gt;94202443769920</title>
<path fill="none" stroke="black" d="M270.16,-779.46C262.18,-769.06 252.01,-755.81 243.16,-744.27"/>
<polygon fill="black" stroke="black" points="245.86,-742.05 237,-736.24 240.31,-746.31 245.86,-742.05"/>
</g>
<!-- 94202443771648 -->
<g id="node10" class="node">
<title>94202443771648</title>
<polygon fill="#506266" stroke="black" points="377.5,-736 314.5,-736 314.5,-698 377.5,-698 377.5,-736"/>
<text text-anchor="middle" x="346" y="-720.8" font-family="Times,serif" font-size="14.00">APPLY</text>
<text text-anchor="middle" x="346" y="-705.8" font-family="Times,serif" font-size="14.00">Int</text>
</g>
<!-- 94202443771840&#45;&gt;94202443771648 -->
<g id="edge21" class="edge">
<title>94202443771840&#45;&gt;94202443771648</title>
<path fill="none" stroke="black" d="M298.07,-779.46C306.18,-769.06 316.51,-755.81 325.51,-744.27"/>
<polygon fill="black" stroke="black" points="328.38,-746.28 331.77,-736.24 322.86,-741.98 328.38,-746.28"/>
</g>
<!-- 94202443769792 -->
<g id="node8" class="node">
<title>94202443769792</title>
<polygon fill="#a3ab78" stroke="black" points="184,-662 0,-662 0,-594 184,-594 184,-662"/>
<text text-anchor="middle" x="92" y="-646.8" font-family="Times,serif" font-size="14.00">FUNCTION</text>
<text text-anchor="middle" x="92" y="-631.8" font-family="Times,serif" font-size="14.00">workWithFour</text>
<text text-anchor="middle" x="92" y="-616.8" font-family="Times,serif" font-size="14.00">0x55ad3732a7c0</text>
<text text-anchor="middle" x="92" y="-601.8" font-family="Times,serif" font-size="14.00">Int&#45;&gt;Int&#45;&gt;Int&#45;&gt;Int&#45;&gt;Int</text>
</g>
<!-- 94202443769920&#45;&gt;94202443769792 -->
<g id="edge2" class="edge">
<title>94202443769920&#45;&gt;94202443769792</title>
<path fill="none" stroke="black" d="M195.86,-697.97C182.7,-689.24 166.37,-678.39 150.57,-667.9"/>
<polygon fill="black" stroke="black" points="152.14,-664.74 141.88,-662.12 148.27,-670.57 152.14,-664.74"/>
</g>
<!-- 94202443769824 -->
<g id="node9" class="node">
<title>94202443769824</title>
<polygon fill="#bde038" stroke="black" points="263.5,-654.5 202.5,-654.5 202.5,-601.5 263.5,-601.5 263.5,-654.5"/>
<text text-anchor="middle" x="233" y="-639.3" font-family="Times,serif" font-size="14.00">ELEM</text>
<text text-anchor="middle" x="233" y="-624.3" font-family="Times,serif" font-size="14.00">a</text>
<text text-anchor="middle" x="233" y="-609.3" font-family="Times,serif" font-size="14.00">Int</text>
</g>
<!-- 94202443769920&#45;&gt;94202443769824 -->
<g id="edge3" class="edge">
<title>94202443769920&#45;&gt;94202443769824</title>
<path fill="none" stroke="black" d="M225.07,-697.97C226.18,-688.37 227.57,-676.21 228.89,-664.78"/>
<polygon fill="black" stroke="black" points="232.39,-664.93 230.06,-654.59 225.44,-664.13 232.39,-664.93"/>
</g>
<!-- 94202443770272 -->
<g id="node11" class="node">
<title>94202443770272</title>
<polygon fill="#506266" stroke="black" points="374,-647 300,-647 300,-609 374,-609 374,-647"/>
<text text-anchor="middle" x="337" y="-631.8" font-family="Times,serif" font-size="14.00">APPLY</text>
<text text-anchor="middle" x="337" y="-616.8" font-family="Times,serif" font-size="14.00">Int&#45;&gt;Int</text>
</g>
<!-- 94202443771648&#45;&gt;94202443770272 -->
<g id="edge7" class="edge">
<title>94202443771648&#45;&gt;94202443770272</title>
<path fill="none" stroke="black" d="M344.14,-697.97C342.92,-686.19 341.3,-670.56 339.91,-657.16"/>
<polygon fill="black" stroke="black" points="343.37,-656.59 338.86,-647 336.41,-657.31 343.37,-656.59"/>
</g>
<!-- 94202443771456 -->
<g id="node14" class="node">
<title>94202443771456</title>
<polygon fill="#506266" stroke="black" points="455.5,-647 392.5,-647 392.5,-609 455.5,-609 455.5,-647"/>
<text text-anchor="middle" x="424" y="-631.8" font-family="Times,serif" font-size="14.00">APPLY</text>
<text text-anchor="middle" x="424" y="-616.8" font-family="Times,serif" font-size="14.00">Int</text>
</g>
<!-- 94202443771648&#45;&gt;94202443771456 -->
<g id="edge20" class="edge">
<title>94202443771648&#45;&gt;94202443771456</title>
<path fill="none" stroke="black" d="M362.16,-697.97C373.35,-685.49 388.42,-668.69 400.87,-654.79"/>
<polygon fill="black" stroke="black" points="403.79,-656.79 407.86,-647 398.58,-652.11 403.79,-656.79"/>
</g>
<!-- 94202443770304 -->
<g id="node12" class="node">
<title>94202443770304</title>
<polygon fill="#818274" stroke="black" points="288.5,-558 149.5,-558 149.5,-490 288.5,-490 288.5,-558"/>
<text text-anchor="middle" x="219" y="-542.8" font-family="Times,serif" font-size="14.00">OPERATOR</text>
<text text-anchor="middle" x="219" y="-527.8" font-family="Times,serif" font-size="14.00">+</text>
<text text-anchor="middle" x="219" y="-512.8" font-family="Times,serif" font-size="14.00">0x55ad3732a9c0</text>
<text text-anchor="middle" x="219" y="-497.8" font-family="Times,serif" font-size="14.00">Int&#45;&gt;Int&#45;&gt;Int</text>
</g>
<!-- 94202443770272&#45;&gt;94202443770304 -->
<g id="edge5" class="edge">
<title>94202443770272&#45;&gt;94202443770304</title>
<path fill="none" stroke="black" d="M316.18,-609C302.06,-596.8 282.84,-580.18 265.21,-564.95"/>
<polygon fill="black" stroke="black" points="267.11,-561.96 257.25,-558.07 262.53,-567.25 267.11,-561.96"/>
</g>
<!-- 94202443770176 -->
<g id="node13" class="node">
<title>94202443770176</title>
<polygon fill="#bde038" stroke="black" points="367.5,-550.5 306.5,-550.5 306.5,-497.5 367.5,-497.5 367.5,-550.5"/>
<text text-anchor="middle" x="337" y="-535.3" font-family="Times,serif" font-size="14.00">ELEM</text>
<text text-anchor="middle" x="337" y="-520.3" font-family="Times,serif" font-size="14.00">a</text>
<text text-anchor="middle" x="337" y="-505.3" font-family="Times,serif" font-size="14.00">Int</text>
</g>
<!-- 94202443770272&#45;&gt;94202443770176 -->
<g id="edge6" class="edge">
<title>94202443770272&#45;&gt;94202443770176</title>
<path fill="none" stroke="black" d="M337,-608.76C337,-595.51 337,-577.13 337,-560.97"/>
<polygon fill="black" stroke="black" points="340.5,-560.74 337,-550.74 333.5,-560.74 340.5,-560.74"/>
</g>
<!-- 94202443771232 -->
<g id="node15" class="node">
<title>94202443771232</title>
<polygon fill="#506266" stroke="black" points="460,-543 386,-543 386,-505 460,-505 460,-543"/>
<text text-anchor="middle" x="423" y="-527.8" font-family="Times,serif" font-size="14.00">APPLY</text>
<text text-anchor="middle" x="423" y="-512.8" font-family="Times,serif" font-size="14.00">Int&#45;&gt;Int</text>
</g>
<!-- 94202443771456&#45;&gt;94202443771232 -->
<g id="edge18" class="edge">
<title>94202443771456&#45;&gt;94202443771232</title>
<path fill="none" stroke="black" d="M423.82,-608.76C423.67,-593.32 423.45,-570.91 423.28,-553.16"/>
<polygon fill="black" stroke="black" points="426.78,-553.04 423.18,-543.08 419.78,-553.11 426.78,-553.04"/>
</g>
<!-- 94202443771328 -->
<g id="node26" class="node">
<title>94202443771328</title>
<polygon fill="#bde038" stroke="black" points="539.5,-550.5 478.5,-550.5 478.5,-497.5 539.5,-497.5 539.5,-550.5"/>
<text text-anchor="middle" x="509" y="-535.3" font-family="Times,serif" font-size="14.00">ELEM</text>
<text text-anchor="middle" x="509" y="-520.3" font-family="Times,serif" font-size="14.00">a</text>
<text text-anchor="middle" x="509" y="-505.3" font-family="Times,serif" font-size="14.00">Int</text>
</g>
<!-- 94202443771456&#45;&gt;94202443771328 -->
<g id="edge19" class="edge">
<title>94202443771456&#45;&gt;94202443771328</title>
<path fill="none" stroke="black" d="M439.2,-608.76C450.77,-594.88 467.02,-575.37 480.94,-558.67"/>
<polygon fill="black" stroke="black" points="483.84,-560.66 487.55,-550.74 478.46,-556.18 483.84,-560.66"/>
</g>
<!-- 94202443771264 -->
<g id="node16" class="node">
<title>94202443771264</title>
<polygon fill="#818274" stroke="black" points="433,-454 293,-454 293,-386 433,-386 433,-454"/>
<text text-anchor="middle" x="363" y="-438.8" font-family="Times,serif" font-size="14.00">OPERATOR</text>
<text text-anchor="middle" x="363" y="-423.8" font-family="Times,serif" font-size="14.00">/</text>
<text text-anchor="middle" x="363" y="-408.8" font-family="Times,serif" font-size="14.00">0x55ad3732ad80</text>
<text text-anchor="middle" x="363" y="-393.8" font-family="Times,serif" font-size="14.00">Int&#45;&gt;Int&#45;&gt;Int</text>
</g>
<!-- 94202443771232&#45;&gt;94202443771264 -->
<g id="edge8" class="edge">
<title>94202443771232&#45;&gt;94202443771264</title>
<path fill="none" stroke="black" d="M412.27,-504.76C405.46,-493.19 396.35,-477.7 387.82,-463.19"/>
<polygon fill="black" stroke="black" points="390.69,-461.18 382.61,-454.33 384.66,-464.73 390.69,-461.18"/>
</g>
<!-- 94202443771136 -->
<g id="node17" class="node">
<title>94202443771136</title>
<polygon fill="#506266" stroke="black" points="514.5,-439 451.5,-439 451.5,-401 514.5,-401 514.5,-439"/>
<text text-anchor="middle" x="483" y="-423.8" font-family="Times,serif" font-size="14.00">APPLY</text>
<text text-anchor="middle" x="483" y="-408.8" font-family="Times,serif" font-size="14.00">Int</text>
</g>
<!-- 94202443771232&#45;&gt;94202443771136 -->
<g id="edge17" class="edge">
<title>94202443771232&#45;&gt;94202443771136</title>
<path fill="none" stroke="black" d="M433.73,-504.76C443.03,-488.95 456.61,-465.86 467.16,-447.92"/>
<polygon fill="black" stroke="black" points="470.31,-449.47 472.37,-439.08 464.28,-445.92 470.31,-449.47"/>
</g>
<!-- 94202443771008 -->
<g id="node18" class="node">
<title>94202443771008</title>
<polygon fill="#506266" stroke="black" points="477,-342.5 403,-342.5 403,-304.5 477,-304.5 477,-342.5"/>
<text text-anchor="middle" x="440" y="-327.3" font-family="Times,serif" font-size="14.00">APPLY</text>
<text text-anchor="middle" x="440" y="-312.3" font-family="Times,serif" font-size="14.00">Int&#45;&gt;Int</text>
</g>
<!-- 94202443771136&#45;&gt;94202443771008 -->
<g id="edge15" class="edge">
<title>94202443771136&#45;&gt;94202443771008</title>
<path fill="none" stroke="black" d="M474.71,-400.78C468.4,-386.92 459.62,-367.62 452.47,-351.91"/>
<polygon fill="black" stroke="black" points="455.59,-350.32 448.27,-342.66 449.22,-353.22 455.59,-350.32"/>
</g>
<!-- 94202443770816 -->
<g id="node25" class="node">
<title>94202443770816</title>
<polygon fill="#bde038" stroke="black" points="556.5,-350 495.5,-350 495.5,-297 556.5,-297 556.5,-350"/>
<text text-anchor="middle" x="526" y="-334.8" font-family="Times,serif" font-size="14.00">ELEM</text>
<text text-anchor="middle" x="526" y="-319.8" font-family="Times,serif" font-size="14.00">d</text>
<text text-anchor="middle" x="526" y="-304.8" font-family="Times,serif" font-size="14.00">Int</text>
</g>
<!-- 94202443771136&#45;&gt;94202443770816 -->
<g id="edge16" class="edge">
<title>94202443771136&#45;&gt;94202443770816</title>
<path fill="none" stroke="black" d="M491.29,-400.78C496.6,-389.1 503.68,-373.56 510.05,-359.55"/>
<polygon fill="black" stroke="black" points="513.37,-360.72 514.32,-350.17 506.99,-357.82 513.37,-360.72"/>
</g>
<!-- 94202443770752 -->
<g id="node19" class="node">
<title>94202443770752</title>
<polygon fill="#818274" stroke="black" points="450,-261 310,-261 310,-193 450,-193 450,-261"/>
<text text-anchor="middle" x="380" y="-245.8" font-family="Times,serif" font-size="14.00">OPERATOR</text>
<text text-anchor="middle" x="380" y="-230.8" font-family="Times,serif" font-size="14.00">&#45;</text>
<text text-anchor="middle" x="380" y="-215.8" font-family="Times,serif" font-size="14.00">0x55ad3732ab80</text>
<text text-anchor="middle" x="380" y="-200.8" font-family="Times,serif" font-size="14.00">Int&#45;&gt;Int&#45;&gt;Int</text>
</g>
<!-- 94202443771008&#45;&gt;94202443770752 -->
<g id="edge9" class="edge">
<title>94202443771008&#45;&gt;94202443770752</title>
<path fill="none" stroke="black" d="M428.43,-304.28C422.18,-294.44 414.19,-281.86 406.51,-269.76"/>
<polygon fill="black" stroke="black" points="409.32,-267.65 401.01,-261.08 403.41,-271.4 409.32,-267.65"/>
</g>
<!-- 94202443770784 -->
<g id="node20" class="node">
<title>94202443770784</title>
<polygon fill="#506266" stroke="black" points="531.5,-246 468.5,-246 468.5,-208 531.5,-208 531.5,-246"/>
<text text-anchor="middle" x="500" y="-230.8" font-family="Times,serif" font-size="14.00">APPLY</text>
<text text-anchor="middle" x="500" y="-215.8" font-family="Times,serif" font-size="14.00">Int</text>
</g>
<!-- 94202443771008&#45;&gt;94202443770784 -->
<g id="edge14" class="edge">
<title>94202443771008&#45;&gt;94202443770784</title>
<path fill="none" stroke="black" d="M451.57,-304.28C460.45,-290.29 472.85,-270.76 482.88,-254.96"/>
<polygon fill="black" stroke="black" points="486.06,-256.48 488.47,-246.16 480.15,-252.73 486.06,-256.48"/>
</g>
<!-- 94202443770528 -->
<g id="node21" class="node">
<title>94202443770528</title>
<polygon fill="#506266" stroke="black" points="494,-149.5 420,-149.5 420,-111.5 494,-111.5 494,-149.5"/>
<text text-anchor="middle" x="457" y="-134.3" font-family="Times,serif" font-size="14.00">APPLY</text>
<text text-anchor="middle" x="457" y="-119.3" font-family="Times,serif" font-size="14.00">Int&#45;&gt;Int</text>
</g>
<!-- 94202443770784&#45;&gt;94202443770528 -->
<g id="edge12" class="edge">
<title>94202443770784&#45;&gt;94202443770528</title>
<path fill="none" stroke="black" d="M491.71,-207.78C485.4,-193.92 476.62,-174.62 469.47,-158.91"/>
<polygon fill="black" stroke="black" points="472.59,-157.32 465.27,-149.66 466.22,-160.22 472.59,-157.32"/>
</g>
<!-- 94202443770624 -->
<g id="node24" class="node">
<title>94202443770624</title>
<polygon fill="#bde038" stroke="black" points="573.5,-157 512.5,-157 512.5,-104 573.5,-104 573.5,-157"/>
<text text-anchor="middle" x="543" y="-141.8" font-family="Times,serif" font-size="14.00">ELEM</text>
<text text-anchor="middle" x="543" y="-126.8" font-family="Times,serif" font-size="14.00">c</text>
<text text-anchor="middle" x="543" y="-111.8" font-family="Times,serif" font-size="14.00">Int</text>
</g>
<!-- 94202443770784&#45;&gt;94202443770624 -->
<g id="edge13" class="edge">
<title>94202443770784&#45;&gt;94202443770624</title>
<path fill="none" stroke="black" d="M508.29,-207.78C513.6,-196.1 520.68,-180.56 527.05,-166.55"/>
<polygon fill="black" stroke="black" points="530.37,-167.72 531.32,-157.17 523.99,-164.82 530.37,-167.72"/>
</g>
<!-- 94202443770560 -->
<g id="node22" class="node">
<title>94202443770560</title>
<polygon fill="#818274" stroke="black" points="467,-68 329,-68 329,0 467,0 467,-68"/>
<text text-anchor="middle" x="398" y="-52.8" font-family="Times,serif" font-size="14.00">OPERATOR</text>
<text text-anchor="middle" x="398" y="-37.8" font-family="Times,serif" font-size="14.00">*</text>
<text text-anchor="middle" x="398" y="-22.8" font-family="Times,serif" font-size="14.00">0x55ad3732aac0</text>
<text text-anchor="middle" x="398" y="-7.8" font-family="Times,serif" font-size="14.00">Int&#45;&gt;Int&#45;&gt;Int</text>
</g>
<!-- 94202443770528&#45;&gt;94202443770560 -->
<g id="edge10" class="edge">
<title>94202443770528&#45;&gt;94202443770560</title>
<path fill="none" stroke="black" d="M445.62,-111.28C439.48,-101.44 431.62,-88.86 424.07,-76.76"/>
<polygon fill="black" stroke="black" points="426.92,-74.71 418.66,-68.08 420.98,-78.42 426.92,-74.71"/>
</g>
<!-- 94202443770432 -->
<g id="node23" class="node">
<title>94202443770432</title>
<polygon fill="#bde038" stroke="black" points="546.5,-60.5 485.5,-60.5 485.5,-7.5 546.5,-7.5 546.5,-60.5"/>
<text text-anchor="middle" x="516" y="-45.3" font-family="Times,serif" font-size="14.00">ELEM</text>
<text text-anchor="middle" x="516" y="-30.3" font-family="Times,serif" font-size="14.00">b</text>
<text text-anchor="middle" x="516" y="-15.3" font-family="Times,serif" font-size="14.00">Int</text>
</g>
<!-- 94202443770528&#45;&gt;94202443770432 -->
<g id="edge11" class="edge">
<title>94202443770528&#45;&gt;94202443770432</title>
<path fill="none" stroke="black" d="M468.38,-111.28C475.81,-99.38 485.74,-83.46 494.62,-69.25"/>
<polygon fill="black" stroke="black" points="497.65,-71 499.98,-60.67 491.71,-67.3 497.65,-71"/>
</g>
</g>
</svg>
