<?xml version="1.0" encoding="UTF-8" standalone="no"?>
<!DOCTYPE svg PUBLIC "-//W3C//DTD SVG 1.1//EN"
 "http://www.w3.org/Graphics/SVG/1.1/DTD/svg11.dtd">
<!-- Generated by graphviz version 2.43.0 (0)
 -->
<!-- Title: %3 Pages: 1 -->
<svg width="272pt" height="432pt"
 viewBox="0.00 0.00 271.50 432.00" xmlns="http://www.w3.org/2000/svg" xmlns:xlink="http://www.w3.org/1999/xlink">
<g id="graph0" class="graph" transform="scale(1 1) rotate(0) translate(4 428)">
<title>%3</title>
<polygon fill="white" stroke="transparent" points="-4,4 -4,-428 267.5,-428 267.5,4 -4,4"/>
<!-- 94827832058816 -->
<g id="node1" class="node">
<title>94827832058816</title>
<polygon fill="#506266" stroke="black" points="204.5,-424 141.5,-424 141.5,-386 204.5,-386 204.5,-424"/>
<text text-anchor="middle" x="173" y="-408.8" font-family="Times,serif" font-size="14.00">APPLY</text>
<text text-anchor="middle" x="173" y="-393.8" font-family="Times,serif" font-size="14.00">Int</text>
</g>
<!-- 94827832058688 -->
<g id="node2" class="node">
<title>94827832058688</title>
<polygon fill="#506266" stroke="black" points="167,-342.5 93,-342.5 93,-304.5 167,-304.5 167,-342.5"/>
<text text-anchor="middle" x="130" y="-327.3" font-family="Times,serif" font-size="14.00">APPLY</text>
<text text-anchor="middle" x="130" y="-312.3" font-family="Times,serif" font-size="14.00">Int&#45;&gt;Int</text>
</g>
<!-- 94827832058816&#45;&gt;94827832058688 -->
<g id="edge7" class="edge">
<title>94827832058816&#45;&gt;94827832058688</title>
<path fill="none" stroke="black" d="M163.24,-385.96C157.78,-375.87 150.87,-363.08 144.76,-351.79"/>
<polygon fill="black" stroke="black" points="147.7,-349.87 139.87,-342.74 141.55,-353.2 147.7,-349.87"/>
</g>
<!-- 94827832058560 -->
<g id="node9" class="node">
<title>94827832058560</title>
<polygon fill="#bde038" stroke="black" points="246.5,-350 185.5,-350 185.5,-297 246.5,-297 246.5,-350"/>
<text text-anchor="middle" x="216" y="-334.8" font-family="Times,serif" font-size="14.00">ELEM</text>
<text text-anchor="middle" x="216" y="-319.8" font-family="Times,serif" font-size="14.00">4</text>
<text text-anchor="middle" x="216" y="-304.8" font-family="Times,serif" font-size="14.00">Int</text>
</g>
<!-- 94827832058816&#45;&gt;94827832058560 -->
<g id="edge8" class="edge">
<title>94827832058816&#45;&gt;94827832058560</title>
<path fill="none" stroke="black" d="M182.76,-385.96C187.07,-377.99 192.29,-368.34 197.3,-359.07"/>
<polygon fill="black" stroke="black" points="200.53,-360.46 202.21,-350 194.37,-357.13 200.53,-360.46"/>
</g>
<!-- 94827832058656 -->
<g id="node3" class="node">
<title>94827832058656</title>
<polygon fill="#818274" stroke="black" points="140,-261 0,-261 0,-193 140,-193 140,-261"/>
<text text-anchor="middle" x="70" y="-245.8" font-family="Times,serif" font-size="14.00">OPERATOR</text>
<text text-anchor="middle" x="70" y="-230.8" font-family="Times,serif" font-size="14.00">/</text>
<text text-anchor="middle" x="70" y="-215.8" font-family="Times,serif" font-size="14.00">0x563ed33ea320</text>
<text text-anchor="middle" x="70" y="-200.8" font-family="Times,serif" font-size="14.00">Int&#45;&gt;Int&#45;&gt;Int</text>
</g>
<!-- 94827832058688&#45;&gt;94827832058656 -->
<g id="edge1" class="edge">
<title>94827832058688&#45;&gt;94827832058656</title>
<path fill="none" stroke="black" d="M118.43,-304.28C112.18,-294.44 104.19,-281.86 96.51,-269.76"/>
<polygon fill="black" stroke="black" points="99.32,-267.65 91.01,-261.08 93.41,-271.4 99.32,-267.65"/>
</g>
<!-- 94827832057904 -->
<g id="node4" class="node">
<title>94827832057904</title>
<polygon fill="#506266" stroke="black" points="221.5,-246 158.5,-246 158.5,-208 221.5,-208 221.5,-246"/>
<text text-anchor="middle" x="190" y="-230.8" font-family="Times,serif" font-size="14.00">APPLY</text>
<text text-anchor="middle" x="190" y="-215.8" font-family="Times,serif" font-size="14.00">Int</text>
</g>
<!-- 94827832058688&#45;&gt;94827832057904 -->
<g id="edge6" class="edge">
<title>94827832058688&#45;&gt;94827832057904</title>
<path fill="none" stroke="black" d="M141.57,-304.28C150.45,-290.29 162.85,-270.76 172.88,-254.96"/>
<polygon fill="black" stroke="black" points="176.06,-256.48 178.47,-246.16 170.15,-252.73 176.06,-256.48"/>
</g>
<!-- 94827832057872 -->
<g id="node5" class="node">
<title>94827832057872</title>
<polygon fill="#506266" stroke="black" points="184,-149.5 110,-149.5 110,-111.5 184,-111.5 184,-149.5"/>
<text text-anchor="middle" x="147" y="-134.3" font-family="Times,serif" font-size="14.00">APPLY</text>
<text text-anchor="middle" x="147" y="-119.3" font-family="Times,serif" font-size="14.00">Int&#45;&gt;Int</text>
</g>
<!-- 94827832057904&#45;&gt;94827832057872 -->
<g id="edge4" class="edge">
<title>94827832057904&#45;&gt;94827832057872</title>
<path fill="none" stroke="black" d="M181.71,-207.78C175.4,-193.92 166.62,-174.62 159.47,-158.91"/>
<polygon fill="black" stroke="black" points="162.59,-157.32 155.27,-149.66 156.22,-160.22 162.59,-157.32"/>
</g>
<!-- 94827832057744 -->
<g id="node8" class="node">
<title>94827832057744</title>
<polygon fill="#bde038" stroke="black" points="263.5,-157 202.5,-157 202.5,-104 263.5,-104 263.5,-157"/>
<text text-anchor="middle" x="233" y="-141.8" font-family="Times,serif" font-size="14.00">ELEM</text>
<text text-anchor="middle" x="233" y="-126.8" font-family="Times,serif" font-size="14.00">6</text>
<text text-anchor="middle" x="233" y="-111.8" font-family="Times,serif" font-size="14.00">Int</text>
</g>
<!-- 94827832057904&#45;&gt;94827832057744 -->
<g id="edge5" class="edge">
<title>94827832057904&#45;&gt;94827832057744</title>
<path fill="none" stroke="black" d="M198.29,-207.78C203.6,-196.1 210.68,-180.56 217.05,-166.55"/>
<polygon fill="black" stroke="black" points="220.37,-167.72 221.32,-157.17 213.99,-164.82 220.37,-167.72"/>
</g>
<!-- 94827832058064 -->
<g id="node6" class="node">
<title>94827832058064</title>
<polygon fill="#a3ab78" stroke="black" points="158,-68 18,-68 18,0 158,0 158,-68"/>
<text text-anchor="middle" x="88" y="-52.8" font-family="Times,serif" font-size="14.00">FUNCTION</text>
<text text-anchor="middle" x="88" y="-37.8" font-family="Times,serif" font-size="14.00">pow</text>
<text text-anchor="middle" x="88" y="-22.8" font-family="Times,serif" font-size="14.00">0x563ed33ea0d0</text>
<text text-anchor="middle" x="88" y="-7.8" font-family="Times,serif" font-size="14.00">Int&#45;&gt;Int&#45;&gt;Int</text>
</g>
<!-- 94827832057872&#45;&gt;94827832058064 -->
<g id="edge2" class="edge">
<title>94827832057872&#45;&gt;94827832058064</title>
<path fill="none" stroke="black" d="M135.62,-111.28C129.48,-101.44 121.62,-88.86 114.07,-76.76"/>
<polygon fill="black" stroke="black" points="116.92,-74.71 108.66,-68.08 110.98,-78.42 116.92,-74.71"/>
</g>
<!-- 94827832062432 -->
<g id="node7" class="node">
<title>94827832062432</title>
<polygon fill="#bde038" stroke="black" points="237.5,-60.5 176.5,-60.5 176.5,-7.5 237.5,-7.5 237.5,-60.5"/>
<text text-anchor="middle" x="207" y="-45.3" font-family="Times,serif" font-size="14.00">ELEM</text>
<text text-anchor="middle" x="207" y="-30.3" font-family="Times,serif" font-size="14.00">2</text>
<text text-anchor="middle" x="207" y="-15.3" font-family="Times,serif" font-size="14.00">Int</text>
</g>
<!-- 94827832057872&#45;&gt;94827832062432 -->
<g id="edge3" class="edge">
<title>94827832057872&#45;&gt;94827832062432</title>
<path fill="none" stroke="black" d="M158.57,-111.28C166.13,-99.38 176.23,-83.46 185.26,-69.25"/>
<polygon fill="black" stroke="black" points="188.3,-70.98 190.7,-60.67 182.39,-67.23 188.3,-70.98"/>
</g>
</g>
</svg>
