<?xml version="1.0" encoding="UTF-8" standalone="no"?>
<!DOCTYPE svg PUBLIC "-//W3C//DTD SVG 1.1//EN"
 "http://www.w3.org/Graphics/SVG/1.1/DTD/svg11.dtd">
<!-- Generated by graphviz version 2.43.0 (0)
 -->
<!-- Title: %3 Pages: 1 -->
<svg width="434pt" height="714pt"
 viewBox="0.00 0.00 433.50 714.00" xmlns="http://www.w3.org/2000/svg" xmlns:xlink="http://www.w3.org/1999/xlink">
<g id="graph0" class="graph" transform="scale(1 1) rotate(0) translate(4 710)">
<title>%3</title>
<polygon fill="white" stroke="transparent" points="-4,4 -4,-710 429.5,-710 429.5,4 -4,4"/>
<!-- 93905323938768 -->
<g id="node1" class="node">
<title>93905323938768</title>
<polygon fill="#506266" stroke="black" points="262.5,-706 199.5,-706 199.5,-668 262.5,-668 262.5,-706"/>
<text text-anchor="middle" x="231" y="-690.8" font-family="Times,serif" font-size="14.00">APPLY</text>
<text text-anchor="middle" x="231" y="-675.8" font-family="Times,serif" font-size="14.00">Int</text>
</g>
<!-- 93905323936992 -->
<g id="node2" class="node">
<title>93905323936992</title>
<polygon fill="#506266" stroke="black" points="225,-632 151,-632 151,-594 225,-594 225,-632"/>
<text text-anchor="middle" x="188" y="-616.8" font-family="Times,serif" font-size="14.00">APPLY</text>
<text text-anchor="middle" x="188" y="-601.8" font-family="Times,serif" font-size="14.00">Int&#45;&gt;Int</text>
</g>
<!-- 93905323938768&#45;&gt;93905323936992 -->
<g id="edge3" class="edge">
<title>93905323938768&#45;&gt;93905323936992</title>
<path fill="none" stroke="black" d="M220.15,-667.83C215.3,-659.71 209.48,-649.96 204.13,-641.01"/>
<polygon fill="black" stroke="black" points="207.13,-639.2 199,-632.41 201.12,-642.79 207.13,-639.2"/>
</g>
<!-- 93905323938576 -->
<g id="node5" class="node">
<title>93905323938576</title>
<polygon fill="#506266" stroke="black" points="306.5,-632 243.5,-632 243.5,-594 306.5,-594 306.5,-632"/>
<text text-anchor="middle" x="275" y="-616.8" font-family="Times,serif" font-size="14.00">APPLY</text>
<text text-anchor="middle" x="275" y="-601.8" font-family="Times,serif" font-size="14.00">Int</text>
</g>
<!-- 93905323938768&#45;&gt;93905323938576 -->
<g id="edge16" class="edge">
<title>93905323938768&#45;&gt;93905323938576</title>
<path fill="none" stroke="black" d="M242.1,-667.83C247.07,-659.71 253.02,-649.96 258.49,-641.01"/>
<polygon fill="black" stroke="black" points="261.52,-642.77 263.75,-632.41 255.55,-639.12 261.52,-642.77"/>
</g>
<!-- 93905323937024 -->
<g id="node3" class="node">
<title>93905323937024</title>
<polygon fill="#818274" stroke="black" points="140,-558 0,-558 0,-490 140,-490 140,-558"/>
<text text-anchor="middle" x="70" y="-542.8" font-family="Times,serif" font-size="14.00">OPERATOR</text>
<text text-anchor="middle" x="70" y="-527.8" font-family="Times,serif" font-size="14.00">+</text>
<text text-anchor="middle" x="70" y="-512.8" font-family="Times,serif" font-size="14.00">0x55680979cd00</text>
<text text-anchor="middle" x="70" y="-497.8" font-family="Times,serif" font-size="14.00">Int&#45;&gt;Int&#45;&gt;Int</text>
</g>
<!-- 93905323936992&#45;&gt;93905323937024 -->
<g id="edge1" class="edge">
<title>93905323936992&#45;&gt;93905323937024</title>
<path fill="none" stroke="black" d="M163.55,-593.97C151.81,-585.32 137.26,-574.59 123.15,-564.19"/>
<polygon fill="black" stroke="black" points="125.05,-561.24 114.93,-558.12 120.9,-566.88 125.05,-561.24"/>
</g>
<!-- 93905323936896 -->
<g id="node4" class="node">
<title>93905323936896</title>
<polygon fill="#bde038" stroke="black" points="219.5,-550.5 158.5,-550.5 158.5,-497.5 219.5,-497.5 219.5,-550.5"/>
<text text-anchor="middle" x="189" y="-535.3" font-family="Times,serif" font-size="14.00">ELEM</text>
<text text-anchor="middle" x="189" y="-520.3" font-family="Times,serif" font-size="14.00">a</text>
<text text-anchor="middle" x="189" y="-505.3" font-family="Times,serif" font-size="14.00">Int</text>
</g>
<!-- 93905323936992&#45;&gt;93905323936896 -->
<g id="edge2" class="edge">
<title>93905323936992&#45;&gt;93905323936896</title>
<path fill="none" stroke="black" d="M188.21,-593.97C188.32,-584.37 188.46,-572.21 188.59,-560.78"/>
<polygon fill="black" stroke="black" points="192.09,-560.63 188.71,-550.59 185.09,-560.55 192.09,-560.63"/>
</g>
<!-- 93905323942688 -->
<g id="node6" class="node">
<title>93905323942688</title>
<polygon fill="#506266" stroke="black" points="312,-543 238,-543 238,-505 312,-505 312,-543"/>
<text text-anchor="middle" x="275" y="-527.8" font-family="Times,serif" font-size="14.00">APPLY</text>
<text text-anchor="middle" x="275" y="-512.8" font-family="Times,serif" font-size="14.00">Int&#45;&gt;Int</text>
</g>
<!-- 93905323938576&#45;&gt;93905323942688 -->
<g id="edge14" class="edge">
<title>93905323938576&#45;&gt;93905323942688</title>
<path fill="none" stroke="black" d="M275,-593.97C275,-582.19 275,-566.56 275,-553.16"/>
<polygon fill="black" stroke="black" points="278.5,-553 275,-543 271.5,-553 278.5,-553"/>
</g>
<!-- 93905323942784 -->
<g id="node17" class="node">
<title>93905323942784</title>
<polygon fill="#bde038" stroke="black" points="391.5,-550.5 330.5,-550.5 330.5,-497.5 391.5,-497.5 391.5,-550.5"/>
<text text-anchor="middle" x="361" y="-535.3" font-family="Times,serif" font-size="14.00">ELEM</text>
<text text-anchor="middle" x="361" y="-520.3" font-family="Times,serif" font-size="14.00">a</text>
<text text-anchor="middle" x="361" y="-505.3" font-family="Times,serif" font-size="14.00">Int</text>
</g>
<!-- 93905323938576&#45;&gt;93905323942784 -->
<g id="edge15" class="edge">
<title>93905323938576&#45;&gt;93905323942784</title>
<path fill="none" stroke="black" d="M292.82,-593.97C303.09,-583.59 316.31,-570.21 328.38,-558"/>
<polygon fill="black" stroke="black" points="331.16,-560.16 335.7,-550.59 326.18,-555.24 331.16,-560.16"/>
</g>
<!-- 93905323942720 -->
<g id="node7" class="node">
<title>93905323942720</title>
<polygon fill="#818274" stroke="black" points="285.5,-454 144.5,-454 144.5,-386 285.5,-386 285.5,-454"/>
<text text-anchor="middle" x="215" y="-438.8" font-family="Times,serif" font-size="14.00">OPERATOR</text>
<text text-anchor="middle" x="215" y="-423.8" font-family="Times,serif" font-size="14.00">/</text>
<text text-anchor="middle" x="215" y="-408.8" font-family="Times,serif" font-size="14.00">0x55680979e340</text>
<text text-anchor="middle" x="215" y="-393.8" font-family="Times,serif" font-size="14.00">Int&#45;&gt;Int&#45;&gt;Int</text>
</g>
<!-- 93905323942688&#45;&gt;93905323942720 -->
<g id="edge4" class="edge">
<title>93905323942688&#45;&gt;93905323942720</title>
<path fill="none" stroke="black" d="M264.27,-504.76C257.46,-493.19 248.35,-477.7 239.82,-463.19"/>
<polygon fill="black" stroke="black" points="242.69,-461.18 234.61,-454.33 236.66,-464.73 242.69,-461.18"/>
</g>
<!-- 93905323938480 -->
<g id="node8" class="node">
<title>93905323938480</title>
<polygon fill="#506266" stroke="black" points="366.5,-439 303.5,-439 303.5,-401 366.5,-401 366.5,-439"/>
<text text-anchor="middle" x="335" y="-423.8" font-family="Times,serif" font-size="14.00">APPLY</text>
<text text-anchor="middle" x="335" y="-408.8" font-family="Times,serif" font-size="14.00">Int</text>
</g>
<!-- 93905323942688&#45;&gt;93905323938480 -->
<g id="edge13" class="edge">
<title>93905323942688&#45;&gt;93905323938480</title>
<path fill="none" stroke="black" d="M285.73,-504.76C295.03,-488.95 308.61,-465.86 319.16,-447.92"/>
<polygon fill="black" stroke="black" points="322.31,-449.47 324.37,-439.08 316.28,-445.92 322.31,-449.47"/>
</g>
<!-- 93905323938352 -->
<g id="node9" class="node">
<title>93905323938352</title>
<polygon fill="#506266" stroke="black" points="329,-342.5 255,-342.5 255,-304.5 329,-304.5 329,-342.5"/>
<text text-anchor="middle" x="292" y="-327.3" font-family="Times,serif" font-size="14.00">APPLY</text>
<text text-anchor="middle" x="292" y="-312.3" font-family="Times,serif" font-size="14.00">Int&#45;&gt;Int</text>
</g>
<!-- 93905323938480&#45;&gt;93905323938352 -->
<g id="edge11" class="edge">
<title>93905323938480&#45;&gt;93905323938352</title>
<path fill="none" stroke="black" d="M326.71,-400.78C320.4,-386.92 311.62,-367.62 304.47,-351.91"/>
<polygon fill="black" stroke="black" points="307.59,-350.32 300.27,-342.66 301.22,-353.22 307.59,-350.32"/>
</g>
<!-- 93905323937536 -->
<g id="node16" class="node">
<title>93905323937536</title>
<polygon fill="#bde038" stroke="black" points="408.5,-350 347.5,-350 347.5,-297 408.5,-297 408.5,-350"/>
<text text-anchor="middle" x="378" y="-334.8" font-family="Times,serif" font-size="14.00">ELEM</text>
<text text-anchor="middle" x="378" y="-319.8" font-family="Times,serif" font-size="14.00">d</text>
<text text-anchor="middle" x="378" y="-304.8" font-family="Times,serif" font-size="14.00">Int</text>
</g>
<!-- 93905323938480&#45;&gt;93905323937536 -->
<g id="edge12" class="edge">
<title>93905323938480&#45;&gt;93905323937536</title>
<path fill="none" stroke="black" d="M343.29,-400.78C348.6,-389.1 355.68,-373.56 362.05,-359.55"/>
<polygon fill="black" stroke="black" points="365.37,-360.72 366.32,-350.17 358.99,-357.82 365.37,-360.72"/>
</g>
<!-- 93905323937472 -->
<g id="node10" class="node">
<title>93905323937472</title>
<polygon fill="#818274" stroke="black" points="302,-261 164,-261 164,-193 302,-193 302,-261"/>
<text text-anchor="middle" x="233" y="-245.8" font-family="Times,serif" font-size="14.00">OPERATOR</text>
<text text-anchor="middle" x="233" y="-230.8" font-family="Times,serif" font-size="14.00">&#45;</text>
<text text-anchor="middle" x="233" y="-215.8" font-family="Times,serif" font-size="14.00">0x55680979cec0</text>
<text text-anchor="middle" x="233" y="-200.8" font-family="Times,serif" font-size="14.00">Int&#45;&gt;Int&#45;&gt;Int</text>
</g>
<!-- 93905323938352&#45;&gt;93905323937472 -->
<g id="edge5" class="edge">
<title>93905323938352&#45;&gt;93905323937472</title>
<path fill="none" stroke="black" d="M280.62,-304.28C274.48,-294.44 266.62,-281.86 259.07,-269.76"/>
<polygon fill="black" stroke="black" points="261.92,-267.71 253.66,-261.08 255.98,-271.42 261.92,-267.71"/>
</g>
<!-- 93905323937504 -->
<g id="node11" class="node">
<title>93905323937504</title>
<polygon fill="#506266" stroke="black" points="383.5,-246 320.5,-246 320.5,-208 383.5,-208 383.5,-246"/>
<text text-anchor="middle" x="352" y="-230.8" font-family="Times,serif" font-size="14.00">APPLY</text>
<text text-anchor="middle" x="352" y="-215.8" font-family="Times,serif" font-size="14.00">Int</text>
</g>
<!-- 93905323938352&#45;&gt;93905323937504 -->
<g id="edge10" class="edge">
<title>93905323938352&#45;&gt;93905323937504</title>
<path fill="none" stroke="black" d="M303.57,-304.28C312.45,-290.29 324.85,-270.76 334.88,-254.96"/>
<polygon fill="black" stroke="black" points="338.06,-256.48 340.47,-246.16 332.15,-252.73 338.06,-256.48"/>
</g>
<!-- 93905323937248 -->
<g id="node12" class="node">
<title>93905323937248</title>
<polygon fill="#506266" stroke="black" points="346,-149.5 272,-149.5 272,-111.5 346,-111.5 346,-149.5"/>
<text text-anchor="middle" x="309" y="-134.3" font-family="Times,serif" font-size="14.00">APPLY</text>
<text text-anchor="middle" x="309" y="-119.3" font-family="Times,serif" font-size="14.00">Int&#45;&gt;Int</text>
</g>
<!-- 93905323937504&#45;&gt;93905323937248 -->
<g id="edge8" class="edge">
<title>93905323937504&#45;&gt;93905323937248</title>
<path fill="none" stroke="black" d="M343.71,-207.78C337.4,-193.92 328.62,-174.62 321.47,-158.91"/>
<polygon fill="black" stroke="black" points="324.59,-157.32 317.27,-149.66 318.22,-160.22 324.59,-157.32"/>
</g>
<!-- 93905323937344 -->
<g id="node15" class="node">
<title>93905323937344</title>
<polygon fill="#bde038" stroke="black" points="425.5,-157 364.5,-157 364.5,-104 425.5,-104 425.5,-157"/>
<text text-anchor="middle" x="395" y="-141.8" font-family="Times,serif" font-size="14.00">ELEM</text>
<text text-anchor="middle" x="395" y="-126.8" font-family="Times,serif" font-size="14.00">c</text>
<text text-anchor="middle" x="395" y="-111.8" font-family="Times,serif" font-size="14.00">Int</text>
</g>
<!-- 93905323937504&#45;&gt;93905323937344 -->
<g id="edge9" class="edge">
<title>93905323937504&#45;&gt;93905323937344</title>
<path fill="none" stroke="black" d="M360.29,-207.78C365.6,-196.1 372.68,-180.56 379.05,-166.55"/>
<polygon fill="black" stroke="black" points="382.37,-167.72 383.32,-157.17 375.99,-164.82 382.37,-167.72"/>
</g>
<!-- 93905323937280 -->
<g id="node13" class="node">
<title>93905323937280</title>
<polygon fill="#818274" stroke="black" points="320,-68 180,-68 180,0 320,0 320,-68"/>
<text text-anchor="middle" x="250" y="-52.8" font-family="Times,serif" font-size="14.00">OPERATOR</text>
<text text-anchor="middle" x="250" y="-37.8" font-family="Times,serif" font-size="14.00">*</text>
<text text-anchor="middle" x="250" y="-22.8" font-family="Times,serif" font-size="14.00">0x55680979ce00</text>
<text text-anchor="middle" x="250" y="-7.8" font-family="Times,serif" font-size="14.00">Int&#45;&gt;Int&#45;&gt;Int</text>
</g>
<!-- 93905323937248&#45;&gt;93905323937280 -->
<g id="edge6" class="edge">
<title>93905323937248&#45;&gt;93905323937280</title>
<path fill="none" stroke="black" d="M297.62,-111.28C291.48,-101.44 283.62,-88.86 276.07,-76.76"/>
<polygon fill="black" stroke="black" points="278.92,-74.71 270.66,-68.08 272.98,-78.42 278.92,-74.71"/>
</g>
<!-- 93905323937152 -->
<g id="node14" class="node">
<title>93905323937152</title>
<polygon fill="#bde038" stroke="black" points="399.5,-60.5 338.5,-60.5 338.5,-7.5 399.5,-7.5 399.5,-60.5"/>
<text text-anchor="middle" x="369" y="-45.3" font-family="Times,serif" font-size="14.00">ELEM</text>
<text text-anchor="middle" x="369" y="-30.3" font-family="Times,serif" font-size="14.00">b</text>
<text text-anchor="middle" x="369" y="-15.3" font-family="Times,serif" font-size="14.00">Int</text>
</g>
<!-- 93905323937248&#45;&gt;93905323937152 -->
<g id="edge7" class="edge">
<title>93905323937248&#45;&gt;93905323937152</title>
<path fill="none" stroke="black" d="M320.57,-111.28C328.13,-99.38 338.23,-83.46 347.26,-69.25"/>
<polygon fill="black" stroke="black" points="350.3,-70.98 352.7,-60.67 344.39,-67.23 350.3,-70.98"/>
</g>
</g>
</svg>
