<?xml version="1.0" encoding="UTF-8" standalone="no"?>
<!DOCTYPE svg PUBLIC "-//W3C//DTD SVG 1.1//EN"
 "http://www.w3.org/Graphics/SVG/1.1/DTD/svg11.dtd">
<!-- Generated by graphviz version 2.43.0 (0)
 -->
<!-- Title: %3 Pages: 1 -->
<svg width="580pt" height="1189pt"
 viewBox="0.00 0.00 579.50 1189.00" xmlns="http://www.w3.org/2000/svg" xmlns:xlink="http://www.w3.org/1999/xlink">
<g id="graph0" class="graph" transform="scale(1 1) rotate(0) translate(4 1185)">
<title>%3</title>
<polygon fill="white" stroke="transparent" points="-4,4 -4,-1185 575.5,-1185 575.5,4 -4,4"/>
<!-- 94039596639600 -->
<g id="node1" class="node">
<title>94039596639600</title>
<polygon fill="#506266" stroke="black" points="393.5,-1181 330.5,-1181 330.5,-1143 393.5,-1143 393.5,-1181"/>
<text text-anchor="middle" x="362" y="-1165.8" font-family="Times,serif" font-size="14.00">APPLY</text>
<text text-anchor="middle" x="362" y="-1150.8" font-family="Times,serif" font-size="14.00">Int</text>
</g>
<!-- 94039596639472 -->
<g id="node2" class="node">
<title>94039596639472</title>
<polygon fill="#506266" stroke="black" points="356,-1099.5 282,-1099.5 282,-1061.5 356,-1061.5 356,-1099.5"/>
<text text-anchor="middle" x="319" y="-1084.3" font-family="Times,serif" font-size="14.00">APPLY</text>
<text text-anchor="middle" x="319" y="-1069.3" font-family="Times,serif" font-size="14.00">Int&#45;&gt;Int</text>
</g>
<!-- 94039596639600&#45;&gt;94039596639472 -->
<g id="edge27" class="edge">
<title>94039596639600&#45;&gt;94039596639472</title>
<path fill="none" stroke="black" d="M352.24,-1142.96C346.78,-1132.87 339.87,-1120.08 333.76,-1108.79"/>
<polygon fill="black" stroke="black" points="336.7,-1106.87 328.87,-1099.74 330.55,-1110.2 336.7,-1106.87"/>
</g>
<!-- 94039596639344 -->
<g id="node29" class="node">
<title>94039596639344</title>
<polygon fill="#bde038" stroke="black" points="435.5,-1107 374.5,-1107 374.5,-1054 435.5,-1054 435.5,-1107"/>
<text text-anchor="middle" x="405" y="-1091.8" font-family="Times,serif" font-size="14.00">ELEM</text>
<text text-anchor="middle" x="405" y="-1076.8" font-family="Times,serif" font-size="14.00">12</text>
<text text-anchor="middle" x="405" y="-1061.8" font-family="Times,serif" font-size="14.00">Int</text>
</g>
<!-- 94039596639600&#45;&gt;94039596639344 -->
<g id="edge28" class="edge">
<title>94039596639600&#45;&gt;94039596639344</title>
<path fill="none" stroke="black" d="M371.76,-1142.96C376.07,-1134.99 381.29,-1125.34 386.3,-1116.07"/>
<polygon fill="black" stroke="black" points="389.53,-1117.46 391.21,-1107 383.37,-1114.13 389.53,-1117.46"/>
</g>
<!-- 94039596639440 -->
<g id="node3" class="node">
<title>94039596639440</title>
<polygon fill="#818274" stroke="black" points="329,-1018 191,-1018 191,-950 329,-950 329,-1018"/>
<text text-anchor="middle" x="260" y="-1002.8" font-family="Times,serif" font-size="14.00">OPERATOR</text>
<text text-anchor="middle" x="260" y="-987.8" font-family="Times,serif" font-size="14.00">+</text>
<text text-anchor="middle" x="260" y="-972.8" font-family="Times,serif" font-size="14.00">0x55874cc0a4d0</text>
<text text-anchor="middle" x="260" y="-957.8" font-family="Times,serif" font-size="14.00">Int&#45;&gt;Int&#45;&gt;Int</text>
</g>
<!-- 94039596639472&#45;&gt;94039596639440 -->
<g id="edge1" class="edge">
<title>94039596639472&#45;&gt;94039596639440</title>
<path fill="none" stroke="black" d="M307.62,-1061.28C301.48,-1051.44 293.62,-1038.86 286.07,-1026.76"/>
<polygon fill="black" stroke="black" points="288.92,-1024.71 280.66,-1018.08 282.98,-1028.42 288.92,-1024.71"/>
</g>
<!-- 94039596639184 -->
<g id="node4" class="node">
<title>94039596639184</title>
<polygon fill="#506266" stroke="black" points="410.5,-1003 347.5,-1003 347.5,-965 410.5,-965 410.5,-1003"/>
<text text-anchor="middle" x="379" y="-987.8" font-family="Times,serif" font-size="14.00">APPLY</text>
<text text-anchor="middle" x="379" y="-972.8" font-family="Times,serif" font-size="14.00">Int</text>
</g>
<!-- 94039596639472&#45;&gt;94039596639184 -->
<g id="edge26" class="edge">
<title>94039596639472&#45;&gt;94039596639184</title>
<path fill="none" stroke="black" d="M330.57,-1061.28C339.45,-1047.29 351.85,-1027.76 361.88,-1011.96"/>
<polygon fill="black" stroke="black" points="365.06,-1013.48 367.47,-1003.16 359.15,-1009.73 365.06,-1013.48"/>
</g>
<!-- 94039596638736 -->
<g id="node5" class="node">
<title>94039596638736</title>
<polygon fill="#506266" stroke="black" points="373,-906.5 299,-906.5 299,-868.5 373,-868.5 373,-906.5"/>
<text text-anchor="middle" x="336" y="-891.3" font-family="Times,serif" font-size="14.00">APPLY</text>
<text text-anchor="middle" x="336" y="-876.3" font-family="Times,serif" font-size="14.00">Int&#45;&gt;Int</text>
</g>
<!-- 94039596639184&#45;&gt;94039596638736 -->
<g id="edge24" class="edge">
<title>94039596639184&#45;&gt;94039596638736</title>
<path fill="none" stroke="black" d="M370.71,-964.78C364.4,-950.92 355.62,-931.62 348.47,-915.91"/>
<polygon fill="black" stroke="black" points="351.59,-914.32 344.27,-906.66 345.22,-917.22 351.59,-914.32"/>
</g>
<!-- 94039596639088 -->
<g id="node28" class="node">
<title>94039596639088</title>
<polygon fill="#bde038" stroke="black" points="452.5,-914 391.5,-914 391.5,-861 452.5,-861 452.5,-914"/>
<text text-anchor="middle" x="422" y="-898.8" font-family="Times,serif" font-size="14.00">ELEM</text>
<text text-anchor="middle" x="422" y="-883.8" font-family="Times,serif" font-size="14.00">d</text>
<text text-anchor="middle" x="422" y="-868.8" font-family="Times,serif" font-size="14.00">Int</text>
</g>
<!-- 94039596639184&#45;&gt;94039596639088 -->
<g id="edge25" class="edge">
<title>94039596639184&#45;&gt;94039596639088</title>
<path fill="none" stroke="black" d="M387.29,-964.78C392.6,-953.1 399.68,-937.56 406.05,-923.55"/>
<polygon fill="black" stroke="black" points="409.37,-924.72 410.32,-914.17 402.99,-921.82 409.37,-924.72"/>
</g>
<!-- 94039596638800 -->
<g id="node6" class="node">
<title>94039596638800</title>
<polygon fill="#506266" stroke="black" points="339,-817.5 229,-817.5 229,-779.5 339,-779.5 339,-817.5"/>
<text text-anchor="middle" x="284" y="-802.3" font-family="Times,serif" font-size="14.00">APPLY</text>
<text text-anchor="middle" x="284" y="-787.3" font-family="Times,serif" font-size="14.00">Int&#45;&gt;Int&#45;&gt;Int</text>
</g>
<!-- 94039596638736&#45;&gt;94039596638800 -->
<g id="edge22" class="edge">
<title>94039596638736&#45;&gt;94039596638800</title>
<path fill="none" stroke="black" d="M325.23,-868.47C317.97,-856.34 308.28,-840.13 300.12,-826.47"/>
<polygon fill="black" stroke="black" points="302.9,-824.29 294.76,-817.5 296.89,-827.88 302.9,-824.29"/>
</g>
<!-- 94039596638960 -->
<g id="node27" class="node">
<title>94039596638960</title>
<polygon fill="#bde038" stroke="black" points="418.5,-825 357.5,-825 357.5,-772 418.5,-772 418.5,-825"/>
<text text-anchor="middle" x="388" y="-809.8" font-family="Times,serif" font-size="14.00">ELEM</text>
<text text-anchor="middle" x="388" y="-794.8" font-family="Times,serif" font-size="14.00">e</text>
<text text-anchor="middle" x="388" y="-779.8" font-family="Times,serif" font-size="14.00">Int</text>
</g>
<!-- 94039596638736&#45;&gt;94039596638960 -->
<g id="edge23" class="edge">
<title>94039596638736&#45;&gt;94039596638960</title>
<path fill="none" stroke="black" d="M346.77,-868.47C352.75,-858.48 360.38,-845.71 367.45,-833.89"/>
<polygon fill="black" stroke="black" points="370.58,-835.47 372.7,-825.09 364.57,-831.88 370.58,-835.47"/>
</g>
<!-- 94039596636528 -->
<g id="node7" class="node">
<title>94039596636528</title>
<polygon fill="#506266" stroke="black" points="296.5,-736 149.5,-736 149.5,-698 296.5,-698 296.5,-736"/>
<text text-anchor="middle" x="223" y="-720.8" font-family="Times,serif" font-size="14.00">APPLY</text>
<text text-anchor="middle" x="223" y="-705.8" font-family="Times,serif" font-size="14.00">Int&#45;&gt;Int&#45;&gt;Int&#45;&gt;Int</text>
</g>
<!-- 94039596638800&#45;&gt;94039596636528 -->
<g id="edge4" class="edge">
<title>94039596638800&#45;&gt;94039596636528</title>
<path fill="none" stroke="black" d="M270.16,-779.46C262.18,-769.06 252.01,-755.81 243.16,-744.27"/>
<polygon fill="black" stroke="black" points="245.86,-742.05 237,-736.24 240.31,-746.31 245.86,-742.05"/>
</g>
<!-- 94039596638608 -->
<g id="node10" class="node">
<title>94039596638608</title>
<polygon fill="#506266" stroke="black" points="377.5,-736 314.5,-736 314.5,-698 377.5,-698 377.5,-736"/>
<text text-anchor="middle" x="346" y="-720.8" font-family="Times,serif" font-size="14.00">APPLY</text>
<text text-anchor="middle" x="346" y="-705.8" font-family="Times,serif" font-size="14.00">Int</text>
</g>
<!-- 94039596638800&#45;&gt;94039596638608 -->
<g id="edge21" class="edge">
<title>94039596638800&#45;&gt;94039596638608</title>
<path fill="none" stroke="black" d="M298.07,-779.46C306.18,-769.06 316.51,-755.81 325.51,-744.27"/>
<polygon fill="black" stroke="black" points="328.38,-746.28 331.77,-736.24 322.86,-741.98 328.38,-746.28"/>
</g>
<!-- 94039596636400 -->
<g id="node8" class="node">
<title>94039596636400</title>
<polygon fill="#a3ab78" stroke="black" points="184,-662 0,-662 0,-594 184,-594 184,-662"/>
<text text-anchor="middle" x="92" y="-646.8" font-family="Times,serif" font-size="14.00">FUNCTION</text>
<text text-anchor="middle" x="92" y="-631.8" font-family="Times,serif" font-size="14.00">workWithFour</text>
<text text-anchor="middle" x="92" y="-616.8" font-family="Times,serif" font-size="14.00">0x55874cc098f0</text>
<text text-anchor="middle" x="92" y="-601.8" font-family="Times,serif" font-size="14.00">Int&#45;&gt;Int&#45;&gt;Int&#45;&gt;Int&#45;&gt;Int</text>
</g>
<!-- 94039596636528&#45;&gt;94039596636400 -->
<g id="edge2" class="edge">
<title>94039596636528&#45;&gt;94039596636400</title>
<path fill="none" stroke="black" d="M195.86,-697.97C182.7,-689.24 166.37,-678.39 150.57,-667.9"/>
<polygon fill="black" stroke="black" points="152.14,-664.74 141.88,-662.12 148.27,-670.57 152.14,-664.74"/>
</g>
<!-- 94039596636432 -->
<g id="node9" class="node">
<title>94039596636432</title>
<polygon fill="#bde038" stroke="black" points="263.5,-654.5 202.5,-654.5 202.5,-601.5 263.5,-601.5 263.5,-654.5"/>
<text text-anchor="middle" x="233" y="-639.3" font-family="Times,serif" font-size="14.00">ELEM</text>
<text text-anchor="middle" x="233" y="-624.3" font-family="Times,serif" font-size="14.00">a</text>
<text text-anchor="middle" x="233" y="-609.3" font-family="Times,serif" font-size="14.00">Int</text>
</g>
<!-- 94039596636528&#45;&gt;94039596636432 -->
<g id="edge3" class="edge">
<title>94039596636528&#45;&gt;94039596636432</title>
<path fill="none" stroke="black" d="M225.07,-697.97C226.18,-688.37 227.57,-676.21 228.89,-664.78"/>
<polygon fill="black" stroke="black" points="232.39,-664.93 230.06,-654.59 225.44,-664.13 232.39,-664.93"/>
</g>
<!-- 94039596637456 -->
<g id="node11" class="node">
<title>94039596637456</title>
<polygon fill="#506266" stroke="black" points="374,-647 300,-647 300,-609 374,-609 374,-647"/>
<text text-anchor="middle" x="337" y="-631.8" font-family="Times,serif" font-size="14.00">APPLY</text>
<text text-anchor="middle" x="337" y="-616.8" font-family="Times,serif" font-size="14.00">Int&#45;&gt;Int</text>
</g>
<!-- 94039596638608&#45;&gt;94039596637456 -->
<g id="edge7" class="edge">
<title>94039596638608&#45;&gt;94039596637456</title>
<path fill="none" stroke="black" d="M344.14,-697.97C342.92,-686.19 341.3,-670.56 339.91,-657.16"/>
<polygon fill="black" stroke="black" points="343.37,-656.59 338.86,-647 336.41,-657.31 343.37,-656.59"/>
</g>
<!-- 94039596638416 -->
<g id="node14" class="node">
<title>94039596638416</title>
<polygon fill="#506266" stroke="black" points="455.5,-647 392.5,-647 392.5,-609 455.5,-609 455.5,-647"/>
<text text-anchor="middle" x="424" y="-631.8" font-family="Times,serif" font-size="14.00">APPLY</text>
<text text-anchor="middle" x="424" y="-616.8" font-family="Times,serif" font-size="14.00">Int</text>
</g>
<!-- 94039596638608&#45;&gt;94039596638416 -->
<g id="edge20" class="edge">
<title>94039596638608&#45;&gt;94039596638416</title>
<path fill="none" stroke="black" d="M362.16,-697.97C373.35,-685.49 388.42,-668.69 400.87,-654.79"/>
<polygon fill="black" stroke="black" points="403.79,-656.79 407.86,-647 398.58,-652.11 403.79,-656.79"/>
</g>
<!-- 94039596637488 -->
<g id="node12" class="node">
<title>94039596637488</title>
<polygon fill="#818274" stroke="black" points="288.5,-558 149.5,-558 149.5,-490 288.5,-490 288.5,-558"/>
<text text-anchor="middle" x="219" y="-542.8" font-family="Times,serif" font-size="14.00">OPERATOR</text>
<text text-anchor="middle" x="219" y="-527.8" font-family="Times,serif" font-size="14.00">+</text>
<text text-anchor="middle" x="219" y="-512.8" font-family="Times,serif" font-size="14.00">0x55874cc09d30</text>
<text text-anchor="middle" x="219" y="-497.8" font-family="Times,serif" font-size="14.00">Int&#45;&gt;Int&#45;&gt;Int</text>
</g>
<!-- 94039596637456&#45;&gt;94039596637488 -->
<g id="edge5" class="edge">
<title>94039596637456&#45;&gt;94039596637488</title>
<path fill="none" stroke="black" d="M316.18,-609C302.06,-596.8 282.84,-580.18 265.21,-564.95"/>
<polygon fill="black" stroke="black" points="267.11,-561.96 257.25,-558.07 262.53,-567.25 267.11,-561.96"/>
</g>
<!-- 94039596636784 -->
<g id="node13" class="node">
<title>94039596636784</title>
<polygon fill="#bde038" stroke="black" points="367.5,-550.5 306.5,-550.5 306.5,-497.5 367.5,-497.5 367.5,-550.5"/>
<text text-anchor="middle" x="337" y="-535.3" font-family="Times,serif" font-size="14.00">ELEM</text>
<text text-anchor="middle" x="337" y="-520.3" font-family="Times,serif" font-size="14.00">a</text>
<text text-anchor="middle" x="337" y="-505.3" font-family="Times,serif" font-size="14.00">Int</text>
</g>
<!-- 94039596637456&#45;&gt;94039596636784 -->
<g id="edge6" class="edge">
<title>94039596637456&#45;&gt;94039596636784</title>
<path fill="none" stroke="black" d="M337,-608.76C337,-595.51 337,-577.13 337,-560.97"/>
<polygon fill="black" stroke="black" points="340.5,-560.74 337,-550.74 333.5,-560.74 340.5,-560.74"/>
</g>
<!-- 94039596642528 -->
<g id="node15" class="node">
<title>94039596642528</title>
<polygon fill="#506266" stroke="black" points="460,-543 386,-543 386,-505 460,-505 460,-543"/>
<text text-anchor="middle" x="423" y="-527.8" font-family="Times,serif" font-size="14.00">APPLY</text>
<text text-anchor="middle" x="423" y="-512.8" font-family="Times,serif" font-size="14.00">Int&#45;&gt;Int</text>
</g>
<!-- 94039596638416&#45;&gt;94039596642528 -->
<g id="edge18" class="edge">
<title>94039596638416&#45;&gt;94039596642528</title>
<path fill="none" stroke="black" d="M423.82,-608.76C423.67,-593.32 423.45,-570.91 423.28,-553.16"/>
<polygon fill="black" stroke="black" points="426.78,-553.04 423.18,-543.08 419.78,-553.11 426.78,-553.04"/>
</g>
<!-- 94039596642624 -->
<g id="node26" class="node">
<title>94039596642624</title>
<polygon fill="#bde038" stroke="black" points="539.5,-550.5 478.5,-550.5 478.5,-497.5 539.5,-497.5 539.5,-550.5"/>
<text text-anchor="middle" x="509" y="-535.3" font-family="Times,serif" font-size="14.00">ELEM</text>
<text text-anchor="middle" x="509" y="-520.3" font-family="Times,serif" font-size="14.00">a</text>
<text text-anchor="middle" x="509" y="-505.3" font-family="Times,serif" font-size="14.00">Int</text>
</g>
<!-- 94039596638416&#45;&gt;94039596642624 -->
<g id="edge19" class="edge">
<title>94039596638416&#45;&gt;94039596642624</title>
<path fill="none" stroke="black" d="M439.2,-608.76C450.77,-594.88 467.02,-575.37 480.94,-558.67"/>
<polygon fill="black" stroke="black" points="483.84,-560.66 487.55,-550.74 478.46,-556.18 483.84,-560.66"/>
</g>
<!-- 94039596642560 -->
<g id="node16" class="node">
<title>94039596642560</title>
<polygon fill="#818274" stroke="black" points="432.5,-454 293.5,-454 293.5,-386 432.5,-386 432.5,-454"/>
<text text-anchor="middle" x="363" y="-438.8" font-family="Times,serif" font-size="14.00">OPERATOR</text>
<text text-anchor="middle" x="363" y="-423.8" font-family="Times,serif" font-size="14.00">/</text>
<text text-anchor="middle" x="363" y="-408.8" font-family="Times,serif" font-size="14.00">0x55874cc0b100</text>
<text text-anchor="middle" x="363" y="-393.8" font-family="Times,serif" font-size="14.00">Int&#45;&gt;Int&#45;&gt;Int</text>
</g>
<!-- 94039596642528&#45;&gt;94039596642560 -->
<g id="edge8" class="edge">
<title>94039596642528&#45;&gt;94039596642560</title>
<path fill="none" stroke="black" d="M412.27,-504.76C405.46,-493.19 396.35,-477.7 387.82,-463.19"/>
<polygon fill="black" stroke="black" points="390.69,-461.18 382.61,-454.33 384.66,-464.73 390.69,-461.18"/>
</g>
<!-- 94039596638320 -->
<g id="node17" class="node">
<title>94039596638320</title>
<polygon fill="#506266" stroke="black" points="513.5,-439 450.5,-439 450.5,-401 513.5,-401 513.5,-439"/>
<text text-anchor="middle" x="482" y="-423.8" font-family="Times,serif" font-size="14.00">APPLY</text>
<text text-anchor="middle" x="482" y="-408.8" font-family="Times,serif" font-size="14.00">Int</text>
</g>
<!-- 94039596642528&#45;&gt;94039596638320 -->
<g id="edge17" class="edge">
<title>94039596642528&#45;&gt;94039596638320</title>
<path fill="none" stroke="black" d="M433.55,-504.76C442.69,-488.95 456.05,-465.86 466.43,-447.92"/>
<polygon fill="black" stroke="black" points="469.57,-449.49 471.54,-439.08 463.51,-445.98 469.57,-449.49"/>
</g>
<!-- 94039596638192 -->
<g id="node18" class="node">
<title>94039596638192</title>
<polygon fill="#506266" stroke="black" points="476,-342.5 402,-342.5 402,-304.5 476,-304.5 476,-342.5"/>
<text text-anchor="middle" x="439" y="-327.3" font-family="Times,serif" font-size="14.00">APPLY</text>
<text text-anchor="middle" x="439" y="-312.3" font-family="Times,serif" font-size="14.00">Int&#45;&gt;Int</text>
</g>
<!-- 94039596638320&#45;&gt;94039596638192 -->
<g id="edge15" class="edge">
<title>94039596638320&#45;&gt;94039596638192</title>
<path fill="none" stroke="black" d="M473.71,-400.78C467.4,-386.92 458.62,-367.62 451.47,-351.91"/>
<polygon fill="black" stroke="black" points="454.59,-350.32 447.27,-342.66 448.22,-353.22 454.59,-350.32"/>
</g>
<!-- 94039596638000 -->
<g id="node25" class="node">
<title>94039596638000</title>
<polygon fill="#bde038" stroke="black" points="555.5,-350 494.5,-350 494.5,-297 555.5,-297 555.5,-350"/>
<text text-anchor="middle" x="525" y="-334.8" font-family="Times,serif" font-size="14.00">ELEM</text>
<text text-anchor="middle" x="525" y="-319.8" font-family="Times,serif" font-size="14.00">d</text>
<text text-anchor="middle" x="525" y="-304.8" font-family="Times,serif" font-size="14.00">Int</text>
</g>
<!-- 94039596638320&#45;&gt;94039596638000 -->
<g id="edge16" class="edge">
<title>94039596638320&#45;&gt;94039596638000</title>
<path fill="none" stroke="black" d="M490.29,-400.78C495.6,-389.1 502.68,-373.56 509.05,-359.55"/>
<polygon fill="black" stroke="black" points="512.37,-360.72 513.32,-350.17 505.99,-357.82 512.37,-360.72"/>
</g>
<!-- 94039596637936 -->
<g id="node19" class="node">
<title>94039596637936</title>
<polygon fill="#818274" stroke="black" points="448,-261 314,-261 314,-193 448,-193 448,-261"/>
<text text-anchor="middle" x="381" y="-245.8" font-family="Times,serif" font-size="14.00">OPERATOR</text>
<text text-anchor="middle" x="381" y="-230.8" font-family="Times,serif" font-size="14.00">&#45;</text>
<text text-anchor="middle" x="381" y="-215.8" font-family="Times,serif" font-size="14.00">0x55874cc09ef0</text>
<text text-anchor="middle" x="381" y="-200.8" font-family="Times,serif" font-size="14.00">Int&#45;&gt;Int&#45;&gt;Int</text>
</g>
<!-- 94039596638192&#45;&gt;94039596637936 -->
<g id="edge9" class="edge">
<title>94039596638192&#45;&gt;94039596637936</title>
<path fill="none" stroke="black" d="M427.82,-304.28C421.78,-294.44 414.05,-281.86 406.63,-269.76"/>
<polygon fill="black" stroke="black" points="409.52,-267.78 401.31,-261.08 403.55,-271.44 409.52,-267.78"/>
</g>
<!-- 94039596637968 -->
<g id="node20" class="node">
<title>94039596637968</title>
<polygon fill="#506266" stroke="black" points="529.5,-246 466.5,-246 466.5,-208 529.5,-208 529.5,-246"/>
<text text-anchor="middle" x="498" y="-230.8" font-family="Times,serif" font-size="14.00">APPLY</text>
<text text-anchor="middle" x="498" y="-215.8" font-family="Times,serif" font-size="14.00">Int</text>
</g>
<!-- 94039596638192&#45;&gt;94039596637968 -->
<g id="edge14" class="edge">
<title>94039596638192&#45;&gt;94039596637968</title>
<path fill="none" stroke="black" d="M450.38,-304.28C459.11,-290.29 471.3,-270.76 481.17,-254.96"/>
<polygon fill="black" stroke="black" points="484.33,-256.5 486.66,-246.16 478.39,-252.79 484.33,-256.5"/>
</g>
<!-- 94039596637712 -->
<g id="node21" class="node">
<title>94039596637712</title>
<polygon fill="#506266" stroke="black" points="492,-149.5 418,-149.5 418,-111.5 492,-111.5 492,-149.5"/>
<text text-anchor="middle" x="455" y="-134.3" font-family="Times,serif" font-size="14.00">APPLY</text>
<text text-anchor="middle" x="455" y="-119.3" font-family="Times,serif" font-size="14.00">Int&#45;&gt;Int</text>
</g>
<!-- 94039596637968&#45;&gt;94039596637712 -->
<g id="edge12" class="edge">
<title>94039596637968&#45;&gt;94039596637712</title>
<path fill="none" stroke="black" d="M489.71,-207.78C483.4,-193.92 474.62,-174.62 467.47,-158.91"/>
<polygon fill="black" stroke="black" points="470.59,-157.32 463.27,-149.66 464.22,-160.22 470.59,-157.32"/>
</g>
<!-- 94039596637808 -->
<g id="node24" class="node">
<title>94039596637808</title>
<polygon fill="#bde038" stroke="black" points="571.5,-157 510.5,-157 510.5,-104 571.5,-104 571.5,-157"/>
<text text-anchor="middle" x="541" y="-141.8" font-family="Times,serif" font-size="14.00">ELEM</text>
<text text-anchor="middle" x="541" y="-126.8" font-family="Times,serif" font-size="14.00">c</text>
<text text-anchor="middle" x="541" y="-111.8" font-family="Times,serif" font-size="14.00">Int</text>
</g>
<!-- 94039596637968&#45;&gt;94039596637808 -->
<g id="edge13" class="edge">
<title>94039596637968&#45;&gt;94039596637808</title>
<path fill="none" stroke="black" d="M506.29,-207.78C511.6,-196.1 518.68,-180.56 525.05,-166.55"/>
<polygon fill="black" stroke="black" points="528.37,-167.72 529.32,-157.17 521.99,-164.82 528.37,-167.72"/>
</g>
<!-- 94039596637744 -->
<g id="node22" class="node">
<title>94039596637744</title>
<polygon fill="#818274" stroke="black" points="465,-68 327,-68 327,0 465,0 465,-68"/>
<text text-anchor="middle" x="396" y="-52.8" font-family="Times,serif" font-size="14.00">OPERATOR</text>
<text text-anchor="middle" x="396" y="-37.8" font-family="Times,serif" font-size="14.00">*</text>
<text text-anchor="middle" x="396" y="-22.8" font-family="Times,serif" font-size="14.00">0x55874cc09e30</text>
<text text-anchor="middle" x="396" y="-7.8" font-family="Times,serif" font-size="14.00">Int&#45;&gt;Int&#45;&gt;Int</text>
</g>
<!-- 94039596637712&#45;&gt;94039596637744 -->
<g id="edge10" class="edge">
<title>94039596637712&#45;&gt;94039596637744</title>
<path fill="none" stroke="black" d="M443.62,-111.28C437.48,-101.44 429.62,-88.86 422.07,-76.76"/>
<polygon fill="black" stroke="black" points="424.92,-74.71 416.66,-68.08 418.98,-78.42 424.92,-74.71"/>
</g>
<!-- 94039596637616 -->
<g id="node23" class="node">
<title>94039596637616</title>
<polygon fill="#bde038" stroke="black" points="544.5,-60.5 483.5,-60.5 483.5,-7.5 544.5,-7.5 544.5,-60.5"/>
<text text-anchor="middle" x="514" y="-45.3" font-family="Times,serif" font-size="14.00">ELEM</text>
<text text-anchor="middle" x="514" y="-30.3" font-family="Times,serif" font-size="14.00">b</text>
<text text-anchor="middle" x="514" y="-15.3" font-family="Times,serif" font-size="14.00">Int</text>
</g>
<!-- 94039596637712&#45;&gt;94039596637616 -->
<g id="edge11" class="edge">
<title>94039596637712&#45;&gt;94039596637616</title>
<path fill="none" stroke="black" d="M466.38,-111.28C473.81,-99.38 483.74,-83.46 492.62,-69.25"/>
<polygon fill="black" stroke="black" points="495.65,-71 497.98,-60.67 489.71,-67.3 495.65,-71"/>
</g>
</g>
</svg>
