<?xml version="1.0" encoding="UTF-8" standalone="no"?>
<!DOCTYPE svg PUBLIC "-//W3C//DTD SVG 1.1//EN"
 "http://www.w3.org/Graphics/SVG/1.1/DTD/svg11.dtd">
<!-- Generated by graphviz version 2.43.0 (0)
 -->
<!-- Title: %3 Pages: 1 -->
<svg width="294pt" height="188pt"
 viewBox="0.00 0.00 294.04 188.00" xmlns="http://www.w3.org/2000/svg" xmlns:xlink="http://www.w3.org/1999/xlink">
<g id="graph0" class="graph" transform="scale(1 1) rotate(0) translate(4 184)">
<title>%3</title>
<polygon fill="white" stroke="transparent" points="-4,4 -4,-184 290.04,-184 290.04,4 -4,4"/>
<!-- malloc -->
<g id="node1" class="node">
<title>malloc</title>
<ellipse fill="none" stroke="black" cx="146.14" cy="-162" rx="40.89" ry="18"/>
<text text-anchor="middle" x="146.14" y="-158.3" font-family="Times,serif" font-size="14.00">malloc</text>
</g>
<!-- simpleList -->
<g id="node2" class="node">
<title>simpleList</title>
<ellipse fill="none" stroke="black" cx="59.14" cy="-90" rx="59.29" ry="18"/>
<text text-anchor="middle" x="59.14" y="-86.3" font-family="Times,serif" font-size="14.00">simpleList</text>
</g>
<!-- malloc&#45;&gt;simpleList -->
<g id="edge1" class="edge">
<title>malloc&#45;&gt;simpleList</title>
<path fill="none" stroke="black" d="M127.27,-145.81C115.51,-136.35 100.18,-124.02 87.04,-113.45"/>
<polygon fill="black" stroke="black" points="89.18,-110.68 79.2,-107.13 84.79,-116.13 89.18,-110.68"/>
</g>
<!-- stringFile -->
<g id="node4" class="node">
<title>stringFile</title>
<ellipse fill="none" stroke="black" cx="230.14" cy="-90" rx="55.79" ry="18"/>
<text text-anchor="middle" x="230.14" y="-86.3" font-family="Times,serif" font-size="14.00">stringFile</text>
</g>
<!-- malloc&#45;&gt;stringFile -->
<g id="edge3" class="edge">
<title>malloc&#45;&gt;stringFile</title>
<path fill="none" stroke="black" d="M164.37,-145.81C175.61,-136.44 190.24,-124.25 202.85,-113.75"/>
<polygon fill="black" stroke="black" points="205.34,-116.22 210.78,-107.13 200.86,-110.85 205.34,-116.22"/>
</g>
<!-- divideString -->
<g id="node6" class="node">
<title>divideString</title>
<ellipse fill="none" stroke="black" cx="146.14" cy="-18" rx="68.49" ry="18"/>
<text text-anchor="middle" x="146.14" y="-14.3" font-family="Times,serif" font-size="14.00">divideString</text>
</g>
<!-- malloc&#45;&gt;divideString -->
<g id="edge7" class="edge">
<title>malloc&#45;&gt;divideString</title>
<path fill="none" stroke="black" d="M146.14,-143.87C146.14,-119.67 146.14,-75.21 146.14,-46.39"/>
<polygon fill="black" stroke="black" points="149.64,-46.19 146.14,-36.19 142.64,-46.19 149.64,-46.19"/>
</g>
<!-- simpleList&#45;&gt;divideString -->
<g id="edge5" class="edge">
<title>simpleList&#45;&gt;divideString</title>
<path fill="none" stroke="black" d="M79.32,-72.76C90.77,-63.55 105.28,-51.88 117.85,-41.77"/>
<polygon fill="black" stroke="black" points="120.18,-44.39 125.77,-35.39 115.79,-38.93 120.18,-44.39"/>
</g>
<!-- stddef -->
<g id="node3" class="node">
<title>stddef</title>
<ellipse fill="none" stroke="black" cx="47.14" cy="-162" rx="40.09" ry="18"/>
<text text-anchor="middle" x="47.14" y="-158.3" font-family="Times,serif" font-size="14.00">stddef</text>
</g>
<!-- stddef&#45;&gt;simpleList -->
<g id="edge2" class="edge">
<title>stddef&#45;&gt;simpleList</title>
<path fill="none" stroke="black" d="M50.11,-143.7C51.43,-135.98 53.02,-126.71 54.5,-118.11"/>
<polygon fill="black" stroke="black" points="57.97,-118.55 56.21,-108.1 51.07,-117.37 57.97,-118.55"/>
</g>
<!-- stringFile&#45;&gt;divideString -->
<g id="edge6" class="edge">
<title>stringFile&#45;&gt;divideString</title>
<path fill="none" stroke="black" d="M210.66,-72.76C199.72,-63.64 185.87,-52.1 173.81,-42.06"/>
<polygon fill="black" stroke="black" points="175.74,-39.1 165.81,-35.39 171.25,-44.48 175.74,-39.1"/>
</g>
<!-- string -->
<g id="node5" class="node">
<title>string</title>
<ellipse fill="none" stroke="black" cx="243.14" cy="-162" rx="38.19" ry="18"/>
<text text-anchor="middle" x="243.14" y="-158.3" font-family="Times,serif" font-size="14.00">string</text>
</g>
<!-- string&#45;&gt;stringFile -->
<g id="edge4" class="edge">
<title>string&#45;&gt;stringFile</title>
<path fill="none" stroke="black" d="M240,-144.05C238.57,-136.35 236.84,-127.03 235.23,-118.36"/>
<polygon fill="black" stroke="black" points="238.62,-117.47 233.35,-108.28 231.74,-118.75 238.62,-117.47"/>
</g>
</g>
</svg>
